<svg version="1.2" baseProfile="tiny-ps" xmlns="http://www.w3.org/2000/svg" viewBox="0 0 356 288" width="356" height="288">
	<title>address-map-svg</title>
	<defs>
		<clipPath clipPathUnits="userSpaceOnUse" id="cp1">
			<path d="M0 0L356 0L356 288L0 288L0 0Z" />
		</clipPath>
	</defs>
	<style>
		tspan { white-space:pre }
		.shp0 { opacity: 0.102;fill: #3f686c } 
		.shp1 { fill: #3f3d56 } 
		.shp2 { fill: #651d32 } 
		.shp3 { opacity: 0.102;fill: #444053 } 
		.shp4 { fill: #444053 } 
		.shp5 { fill: #ffffff } 
		.shp6 { opacity: 0.102;fill: #000000 } 
		.shp7 { opacity: 0.302;fill: none;stroke: #444053;stroke-width: 3 } 
		.shp8 { fill: #551326 } 
	</style>
	<g id="Clip-Path" clip-path="url(#cp1)">
		<g id="Layer">
			<path id="Layer" class="shp0" d="M329.51 279.21C322.21 271.97 318.73 263.68 321.73 260.7C324.74 257.72 333.1 261.17 340.4 268.41C347.71 275.65 351.19 283.94 348.18 286.93C345.17 289.91 336.81 286.46 329.51 279.21Z" />
			<path id="Layer" class="shp1" d="M332.15 269.65C332.15 266.69 334 264.29 336.28 264.29C338.56 264.29 340.42 266.69 340.42 269.65C340.42 272.62 338.56 275.02 336.28 275.02C334 275.02 332.15 272.62 332.15 269.65Z" />
			<path id="Layer" class="shp1" d="M332.15 263.09C332.15 260.13 334 257.73 336.28 257.73C338.56 257.73 340.42 260.13 340.42 263.09C340.42 266.06 338.56 268.46 336.28 268.46C334 268.46 332.15 266.06 332.15 263.09Z" />
			<path id="Layer" class="shp1" d="M332.15 256.53C332.15 253.57 334 251.16 336.28 251.16C338.56 251.16 340.42 253.57 340.42 256.53C340.42 259.5 338.56 261.9 336.28 261.9C334 261.9 332.15 259.5 332.15 256.53Z" />
			<path id="Layer" class="shp1" d="M332.15 249.97C332.15 247.01 334 244.6 336.28 244.6C338.56 244.6 340.42 247.01 340.42 249.97C340.42 252.94 338.56 255.34 336.28 255.34C334 255.34 332.15 252.94 332.15 249.97Z" />
			<path id="Layer" class="shp1" d="M332.15 243.41C332.15 240.45 334 238.04 336.28 238.04C338.56 238.04 340.42 240.45 340.42 243.41C340.42 246.38 338.56 248.78 336.28 248.78C334 248.78 332.15 246.38 332.15 243.41Z" />
			<path id="Layer" class="shp1" d="M332.15 236.85C332.15 233.89 334 231.48 336.28 231.48C338.56 231.48 340.42 233.89 340.42 236.85C340.42 239.82 338.56 242.22 336.28 242.22C334 242.22 332.15 239.82 332.15 236.85Z" />
			<path id="Layer" class="shp1" d="M332.15 230.29C332.15 227.32 334 224.92 336.28 224.92C338.56 224.92 340.42 227.32 340.42 230.29C340.42 233.25 338.56 235.66 336.28 235.66C334 235.66 332.15 233.25 332.15 230.29Z" />
			<path id="Layer" class="shp2" d="M351.77 185.38C354.52 188.85 356.01 193.12 356.01 197.53C356.01 201.93 354.52 206.21 351.77 209.67C354.07 212.57 355.5 216.05 355.9 219.71C356.3 223.38 355.64 227.08 354.02 230.39C352.4 233.71 349.87 236.5 346.71 238.46C343.56 240.42 339.92 241.45 336.2 241.45C332.49 241.45 328.84 240.42 325.69 238.46C322.54 236.5 320.01 233.71 318.39 230.39C316.76 227.08 316.11 223.38 316.51 219.71C316.91 216.05 318.34 212.57 320.63 209.67C318.6 207.1 317.24 204.07 316.68 200.85C316.12 197.63 316.38 194.32 317.44 191.23L332.47 196.23L318.37 188.97C318.99 187.7 319.74 186.5 320.62 185.39C318.94 183.27 317.71 180.83 317.02 178.22C316.33 175.61 316.19 172.89 316.61 170.22C317.03 167.56 317.99 165 319.45 162.72C320.91 160.44 322.82 158.49 325.07 156.97C327.32 155.46 329.87 154.42 332.54 153.93C335.22 153.43 337.97 153.49 340.62 154.09C343.27 154.69 345.77 155.83 347.96 157.44C350.15 159.04 351.98 161.07 353.34 163.41L338.81 174.01L354.57 165.9C355.58 168.38 356.06 171.04 356 173.72C355.93 176.39 355.32 179.03 354.19 181.46L342.44 181.38L353.3 183.15C352.84 183.93 352.33 184.68 351.76 185.39L351.77 185.38Z" />
			<path id="Layer" class="shp3" d="M351.76 209.68C354.06 212.58 355.49 216.06 355.89 219.72C356.28 223.38 355.63 227.09 354.01 230.4C352.38 233.72 349.85 236.51 346.7 238.47C343.55 240.43 339.91 241.46 336.19 241.46C332.48 241.46 328.83 240.43 325.68 238.47C322.53 236.51 320 233.72 318.38 230.4C316.75 227.09 316.1 223.38 316.5 219.72C316.9 216.06 318.32 212.58 320.62 209.68C317.87 206.22 316.38 201.94 316.38 197.54C316.38 195.33 354.42 206.34 351.76 209.68Z" />
			<path id="Layer" class="shp4" d="M326.39 0L326.39 275.12L232.36 262.13L118.06 285.25L117.14 285.44L26.19 260.6L26.19 21.4L120.61 0L223.88 21.4L227.81 20.58L326.39 0Z" />
			<path id="Layer" class="shp5" d="M310.59 15.02L310.59 261.18L226.46 249.56L124.19 270.25L123.37 270.41L41.99 248.19L41.99 34.17L126.47 15.02L218.88 34.17L222.39 33.43L310.59 15.02Z" />
			<path id="Layer" class="shp6" d="M232.36 262.13L118.06 285.25L120.61 0L223.88 21.4L227.81 20.58L232.36 262.13Z" />
			<g id="Layer" style="opacity: 0.302">
				<path id="Layer" class="shp7" d="M318.69 91.35L311.94 99.92L254.52 99.92L254.52 132.78L221 132.78L220.95 52.73" />
				<path id="Layer" class="shp7" d="M34.29 78.14L158.95 78.14L166.66 74.7L169.74 74.7L169.74 151.89L223.69 151.89L226 158.77L226 193.54L267.62 193.54L267.62 236.53" />
				<path id="Layer" class="shp7" d="M186.21 236.53L186.21 151.89" />
				<path id="Layer" class="shp7" d="M318.69 213.85L186.21 213.85" />
				<path id="Layer" class="shp7" d="M285.5 52.73L285.5 236.53" />
				<path id="Layer" class="shp7" d="M33.9 197.6L318.69 197.6" />
				<path id="Layer" class="shp7" d="M68.56 236.53L68.56 52.73" />
				<path id="Layer" class="shp7" d="M134.76 52.73L134.76 236.53" />
				<path id="Layer" class="shp7" d="M34.29 99.16L254.52 99.92" />
				<path id="Layer" class="shp7" d="M98.38 53.06L98.38 236.53" />
				<path id="Layer" class="shp7" d="M33.9 141.69L134.76 141.69L186.21 197.6" />
				<path id="Layer" class="shp7" d="M197.35 52.73L197.35 151.89" />
				<path id="Layer" class="shp7" d="M186.21 169.65L318.69 169.65" />
			</g>
			<path id="Layer" class="shp2" d="M225.81 168.89L186.89 168.89L186.89 152.08L223.69 151.89L226 158.38L225.81 168.89Z" />
			<path id="Layer" fill-rule="evenodd" class="shp8" d="M221.61 87.96C225.6 91.92 227.85 97.29 227.85 102.89C227.85 114.58 206.54 152.46 206.54 152.46C206.54 152.46 185.24 114.56 185.24 102.89C185.24 97.29 187.49 91.92 191.48 87.96C195.48 84 200.89 81.77 206.54 81.77C212.19 81.77 217.61 84 221.61 87.96ZM206.54 111.9C209.03 111.9 211.41 110.92 213.17 109.18C214.93 107.44 215.91 105.08 215.92 102.61C215.92 100.77 215.37 98.98 214.34 97.45C213.31 95.92 211.84 94.73 210.13 94.03C208.42 93.32 206.53 93.14 204.72 93.5C202.9 93.86 201.23 94.74 199.92 96.04C198.61 97.34 197.71 99 197.35 100.8C196.99 102.6 197.18 104.47 197.88 106.17C198.59 107.87 199.8 109.32 201.34 110.34C202.88 111.36 204.69 111.91 206.54 111.91L206.54 111.9Z" />
			<path id="Layer" fill-rule="evenodd" class="shp6" d="M221.61 87.96C225.6 91.92 227.85 97.29 227.85 102.89C227.85 114.58 206.54 152.46 206.54 152.46C206.54 152.46 185.24 114.56 185.24 102.89C185.24 97.29 187.49 91.92 191.48 87.96C195.48 84 200.89 81.77 206.54 81.77C212.19 81.77 217.61 84 221.61 87.96ZM206.54 111.9C209.03 111.9 211.41 110.92 213.17 109.18C214.93 107.44 215.91 105.08 215.92 102.61C215.92 100.77 215.37 98.98 214.34 97.45C213.31 95.92 211.84 94.73 210.13 94.03C208.42 93.32 206.53 93.14 204.72 93.5C202.9 93.86 201.23 94.74 199.92 96.04C198.61 97.34 197.71 99 197.35 100.8C196.99 102.6 197.18 104.47 197.88 106.17C198.59 107.87 199.8 109.32 201.34 110.34C202.88 111.36 204.69 111.91 206.54 111.91L206.54 111.9Z" />
			<path id="Layer" fill-rule="evenodd" class="shp2" d="M221.61 91.01C225.6 94.98 227.85 100.35 227.85 105.95C227.85 117.63 206.54 155.52 206.54 155.52C206.54 155.52 185.24 117.62 185.24 105.95C185.24 100.35 187.49 94.98 191.48 91.01C195.48 87.05 200.89 84.83 206.54 84.83C212.19 84.83 217.61 87.05 221.61 91.01ZM206.54 114.96C209.03 114.96 211.41 113.98 213.17 112.24C214.93 110.5 215.91 108.13 215.92 105.67C215.92 103.83 215.37 102.03 214.34 100.51C213.31 98.98 211.84 97.79 210.13 97.08C208.42 96.38 206.53 96.2 204.72 96.55C202.9 96.91 201.23 97.8 199.92 99.1C198.61 100.4 197.71 102.05 197.35 103.86C196.99 105.66 197.18 107.53 197.88 109.22C198.59 110.92 199.8 112.37 201.34 113.39C202.88 114.42 204.69 114.96 206.54 114.96L206.54 114.96Z" />
			<path id="Layer" class="shp0" d="M185.38 285.3C184.22 282.63 188.58 278.2 195.12 275.41C201.66 272.62 207.9 272.52 209.06 275.19C210.22 277.86 205.86 282.29 199.32 285.08C192.78 287.88 186.54 287.97 185.38 285.3Z" />
			<path id="Layer" class="shp1" d="M194.22 278.17C194.22 276.12 195.5 274.47 197.07 274.47C198.65 274.47 199.92 276.12 199.92 278.17C199.92 280.21 198.65 281.86 197.07 281.86C195.5 281.86 194.22 280.21 194.22 278.17Z" />
			<path id="Layer" class="shp1" d="M194.22 273.64C194.22 271.6 195.5 269.94 197.07 269.94C198.65 269.94 199.92 271.6 199.92 273.64C199.92 275.68 198.65 277.34 197.07 277.34C195.5 277.34 194.22 275.68 194.22 273.64Z" />
			<path id="Layer" class="shp1" d="M194.22 269.12C194.22 267.08 195.5 265.42 197.07 265.42C198.65 265.42 199.92 267.08 199.92 269.12C199.92 271.16 198.65 272.82 197.07 272.82C195.5 272.82 194.22 271.16 194.22 269.12Z" />
			<path id="Layer" class="shp1" d="M194.22 264.6C194.22 262.56 195.5 260.9 197.07 260.9C198.65 260.9 199.92 262.56 199.92 264.6C199.92 266.64 198.65 268.3 197.07 268.3C195.5 268.3 194.22 266.64 194.22 264.6Z" />
			<path id="Layer" class="shp1" d="M194.22 260.07C194.22 258.03 195.5 256.38 197.07 256.38C198.65 256.38 199.92 258.03 199.92 260.07C199.92 262.12 198.65 263.77 197.07 263.77C195.5 263.77 194.22 262.12 194.22 260.07Z" />
			<path id="Layer" class="shp1" d="M194.22 255.56C194.22 253.51 195.5 251.86 197.07 251.86C198.65 251.86 199.92 253.51 199.92 255.56C199.92 257.6 198.65 259.25 197.07 259.25C195.5 259.25 194.22 257.6 194.22 255.56Z" />
			<path id="Layer" class="shp1" d="M194.22 251.03C194.22 248.99 195.5 247.34 197.07 247.34C198.65 247.34 199.92 248.99 199.92 251.03C199.92 253.08 198.65 254.73 197.07 254.73C195.5 254.73 194.22 253.08 194.22 251.03Z" />
			<path id="Layer" class="shp2" d="M186.4 220.09C186.01 219.6 185.66 219.09 185.34 218.56L192.83 217.34L184.74 217.4C183.96 215.72 183.54 213.91 183.49 212.06C183.45 210.22 183.78 208.38 184.47 206.67L195.34 212.24L185.32 204.94C186.26 203.33 187.52 201.93 189.03 200.82C190.54 199.72 192.26 198.93 194.09 198.52C195.92 198.1 197.81 198.06 199.65 198.41C201.5 198.75 203.25 199.46 204.8 200.5C206.35 201.55 207.67 202.9 208.68 204.47C209.68 206.04 210.35 207.8 210.63 209.63C210.92 211.47 210.82 213.35 210.35 215.15C209.87 216.94 209.03 218.63 207.87 220.09C208.47 220.85 208.99 221.68 209.41 222.56L199.7 227.56L210.06 224.13C210.79 226.26 210.97 228.54 210.59 230.76C210.2 232.98 209.27 235.07 207.86 236.84C209.45 238.84 210.43 241.24 210.71 243.76C210.98 246.29 210.53 248.84 209.41 251.12C208.29 253.41 206.55 255.34 204.38 256.69C202.21 258.03 199.69 258.75 197.13 258.75C194.57 258.75 192.06 258.03 189.89 256.69C187.71 255.34 185.97 253.41 184.85 251.12C183.73 248.84 183.28 246.29 183.56 243.76C183.83 241.24 184.82 238.84 186.4 236.84C184.51 234.45 183.48 231.5 183.48 228.47C183.48 225.43 184.51 222.49 186.4 220.1L186.4 220.09Z" />
			<path id="Layer" class="shp6" d="M210.78 228.44C210.79 231.48 209.76 234.43 207.86 236.82C209.45 238.81 210.43 241.21 210.71 243.74C210.98 246.26 210.53 248.82 209.41 251.1C208.29 253.39 206.55 255.31 204.38 256.66C202.21 258.01 199.69 258.73 197.13 258.73C194.57 258.73 192.06 258.01 189.89 256.66C187.71 255.31 185.97 253.39 184.85 251.1C183.73 248.82 183.28 246.26 183.56 243.74C183.83 241.21 184.82 238.81 186.4 236.82C184.57 234.52 210.78 226.94 210.78 228.44Z" />
			<path id="Layer" class="shp0" d="M13.13 270.81C5.82 263.56 2.34 255.28 5.35 252.29C8.36 249.31 16.72 252.76 24.02 260C31.32 267.25 34.8 275.54 31.8 278.52C28.79 281.5 20.43 278.05 13.13 270.81Z" />
			<path id="Layer" class="shp1" d="M15.76 261.25C15.76 258.28 17.61 255.88 19.9 255.88C22.18 255.88 24.03 258.28 24.03 261.25C24.03 264.21 22.18 266.62 19.9 266.62C17.61 266.62 15.76 264.21 15.76 261.25Z" />
			<path id="Layer" class="shp1" d="M15.76 254.69C15.76 251.72 17.61 249.32 19.9 249.32C22.18 249.32 24.03 251.72 24.03 254.69C24.03 257.65 22.18 260.06 19.9 260.06C17.61 260.06 15.76 257.65 15.76 254.69Z" />
			<path id="Layer" class="shp1" d="M15.76 248.13C15.76 245.16 17.61 242.76 19.9 242.76C22.18 242.76 24.03 245.16 24.03 248.13C24.03 251.09 22.18 253.5 19.9 253.5C17.61 253.5 15.76 251.09 15.76 248.13Z" />
			<path id="Layer" class="shp1" d="M15.76 241.57C15.76 238.6 17.61 236.2 19.9 236.2C22.18 236.2 24.03 238.6 24.03 241.57C24.03 244.53 22.18 246.94 19.9 246.94C17.61 246.94 15.76 244.53 15.76 241.57Z" />
			<path id="Layer" class="shp1" d="M15.76 235C15.76 232.04 17.61 229.64 19.9 229.64C22.18 229.64 24.03 232.04 24.03 235C24.03 237.97 22.18 240.37 19.9 240.37C17.61 240.37 15.76 237.97 15.76 235Z" />
			<path id="Layer" class="shp1" d="M15.76 228.44C15.76 225.48 17.61 223.08 19.9 223.08C22.18 223.08 24.03 225.48 24.03 228.44C24.03 231.41 22.18 233.81 19.9 233.81C17.61 233.81 15.76 231.41 15.76 228.44Z" />
			<path id="Layer" class="shp1" d="M15.76 221.88C15.76 218.92 17.61 216.51 19.9 216.51C22.18 216.51 24.03 218.92 24.03 221.88C24.03 224.85 22.18 227.25 19.9 227.25C17.61 227.25 15.76 224.85 15.76 221.88Z" />
			<path id="Layer" class="shp2" d="M35.39 176.98C38.13 180.44 39.63 184.72 39.63 189.12C39.63 193.53 38.13 197.8 35.39 201.26C37.69 204.16 39.12 207.64 39.51 211.31C39.91 214.97 39.26 218.67 37.64 221.99C36.01 225.3 33.48 228.1 30.33 230.06C27.18 232.01 23.54 233.05 19.82 233.05C16.1 233.05 12.46 232.01 9.31 230.06C6.16 228.1 3.63 225.3 2 221.99C0.38 218.67 -0.27 214.97 0.13 211.31C0.52 207.64 1.95 204.16 4.25 201.26C2.21 198.7 0.86 195.66 0.3 192.44C-0.26 189.22 0 185.92 1.06 182.82L16.09 187.83L1.98 180.57C2.6 179.29 3.36 178.09 4.24 176.99C2.56 174.87 1.33 172.43 0.64 169.81C-0.05 167.21 -0.19 164.48 0.22 161.82C0.64 159.15 1.61 156.6 3.07 154.32C4.52 152.04 6.44 150.08 8.69 148.57C10.94 147.05 13.48 146.02 16.16 145.52C18.83 145.02 21.58 145.08 24.24 145.68C26.89 146.29 29.39 147.43 31.57 149.03C33.76 150.63 35.6 152.67 36.96 155L22.42 165.6L38.19 157.49C39.2 159.97 39.68 162.63 39.61 165.31C39.55 167.99 38.93 170.62 37.8 173.05L26.05 172.97L36.92 174.74C36.46 175.52 35.94 176.27 35.38 176.99L35.39 176.98Z" />
			<path id="Layer" class="shp3" d="M15.38 165.27C17.67 168.17 19.1 171.65 19.5 175.31C19.9 178.98 19.25 182.68 17.63 186C16 189.31 13.47 192.11 10.32 194.06C7.17 196.02 3.52 197.06 -0.19 197.06C-3.91 197.06 -7.55 196.02 -10.7 194.06C-13.85 192.11 -16.39 189.31 -18.01 186C-19.63 182.68 -20.28 178.98 -19.89 175.31C-19.49 171.65 -18.06 168.17 -15.76 165.27C-18.51 161.81 -20.01 157.53 -20 153.13C-20 150.92 18.03 161.93 15.38 165.27Z" />
		</g>
	</g>
</svg>