<svg width="30" height="36" viewBox="0 0 30 36" fill="none" xmlns="http://www.w3.org/2000/svg">
<path d="M19.4998 31.5C19.4998 33.897 17.4118 36 15.0433 36C12.6748 36 10.4998 33.897 10.4998 31.5H19.4998ZM19.7053 5.9175C18.7393 5.3565 18.1423 4.3125 18.1438 3.1875V3.183C18.1453 1.425 16.7368 0 14.9998 0C13.2628 0 11.8543 1.425 11.8543 3.183V3.1875C11.8558 4.314 11.2603 5.3565 10.2928 5.9175C3.29076 9.981 7.31525 23.49 -0.000244141 25.8765V28.5H29.9998V25.8765C22.6843 23.49 26.7103 9.9795 19.7053 5.9175ZM14.9998 1.5C15.8278 1.5 16.4998 2.1735 16.4998 3C16.4998 3.828 15.8278 4.5 14.9998 4.5C14.1718 4.5 13.4998 3.828 13.4998 3C13.4998 2.1735 14.1718 1.5 14.9998 1.5ZM5.32325 25.5C7.10675 22.9995 7.73075 19.6635 8.26925 16.7775C8.93975 13.1925 9.57275 9.8055 11.8003 8.514C13.8703 7.3125 16.2343 7.374 18.2008 8.514C20.4283 9.8055 21.0613 13.1925 21.7318 16.7775C22.2703 19.6635 22.8943 22.9995 24.6778 25.5H5.32325Z" fill="#3F686C"/>
</svg>
