<svg width="16" height="16" viewBox="0 0 16 16" fill="none" xmlns="http://www.w3.org/2000/svg">
<path d="M12.6667 4.12267V4C12.6667 2.89533 11.7713 2 10.6667 2C9.562 2 8.66667 2.89533 8.66667 4H7.33333C7.33333 2.89533 6.438 2 5.33333 2C4.22867 2 3.33333 2.89533 3.33333 4V4.12267C2.55933 4.39933 2 5.132 2 6V12C2 13.1027 2.89733 14 4 14H12C13.1027 14 14 13.1027 14 12V6C14 5.132 13.4407 4.39933 12.6667 4.12267ZM10 4C10 3.632 10.298 3.33333 10.6667 3.33333C11.0353 3.33333 11.3333 3.632 11.3333 4V5.33333C11.3333 5.70133 11.0353 6 10.6667 6C10.298 6 10 5.70133 10 5.33333V4ZM4.66667 4C4.66667 3.632 4.96467 3.33333 5.33333 3.33333C5.702 3.33333 6 3.632 6 4V5.33333C6 5.70133 5.702 6 5.33333 6C4.96467 6 4.66667 5.70133 4.66667 5.33333V4ZM12.6667 12C12.6667 12.3673 12.368 12.6667 12 12.6667H4C3.632 12.6667 3.33333 12.3673 3.33333 12V8H12.6667V12ZM12.6667 7.33333H3.33333V6C3.33333 5.63267 3.632 5.33333 4 5.33333C4 6.06933 4.59733 6.66667 5.33333 6.66667C6.06933 6.66667 6.66667 6.06933 6.66667 5.33333H9.33333C9.33333 6.06933 9.93067 6.66667 10.6667 6.66667C11.4027 6.66667 12 6.06933 12 5.33333C12.368 5.33333 12.6667 5.63267 12.6667 6V7.33333Z" fill="#807F7F"/>
</svg>
