<svg width="14" height="12" viewBox="0 0 14 12" fill="none" xmlns="http://www.w3.org/2000/svg">
<path d="M12.8276 2.69248C12.6704 2.63737 12.5039 2.61359 12.3376 2.62248H5.9676C5.7226 2.62248 5.4076 2.58748 5.1626 2.65748C5.0123 2.69169 4.87824 2.77632 4.78272 2.89731C4.68721 3.0183 4.63599 3.16834 4.6376 3.32248C4.6376 3.50813 4.71135 3.68617 4.84262 3.81745C4.9739 3.94873 5.15195 4.02248 5.3376 4.02248H11.6726L11.1126 6.96248C11.0772 7.12161 10.9885 7.26387 10.8612 7.36571C10.7339 7.46755 10.5756 7.52286 10.4126 7.52248H5.1626C5.001 7.51756 4.84538 7.4603 4.71913 7.3593C4.59289 7.25831 4.50286 7.11905 4.4626 6.96248L3.3426 1.78248C3.27474 1.4692 3.10297 1.18806 2.85516 0.984739C2.60736 0.781414 2.29809 0.667844 1.9776 0.662476H1.4876C1.30195 0.662476 1.1239 0.736225 0.992623 0.867501C0.861347 0.998776 0.787598 1.17682 0.787598 1.36248C0.787598 1.54813 0.861347 1.72617 0.992623 1.85745C1.1239 1.98873 1.30195 2.06248 1.4876 2.06248H1.9776L3.0976 7.24248C3.3076 8.22248 4.1476 8.88748 5.1626 8.88748H10.4126C11.2526 8.88748 12.1276 8.32748 12.3726 7.52248C12.5476 6.96248 12.6526 6.33248 12.7576 5.77248C12.8626 5.17748 13.0026 4.58248 13.1076 4.02248C13.1476 3.90978 13.1712 3.7919 13.1776 3.67248C13.2065 3.55819 13.2183 3.44023 13.2126 3.32248C13.2126 3.04248 13.0726 2.76248 12.8276 2.69248ZM3.5876 10.2875C3.5876 10.566 3.69822 10.833 3.89514 11.0299C4.09205 11.2269 4.35912 11.3375 4.6376 11.3375C4.91608 11.3375 5.18315 11.2269 5.38006 11.0299C5.57697 10.833 5.6876 10.566 5.6876 10.2875C5.6876 10.009 5.57697 9.74193 5.38006 9.54501C5.18315 9.3481 4.91608 9.23748 4.6376 9.23748C4.35912 9.23748 4.09205 9.3481 3.89514 9.54501C3.69822 9.74193 3.5876 10.009 3.5876 10.2875ZM9.8876 10.2875C9.8876 10.4951 9.94918 10.6982 10.0646 10.8708C10.1799 11.0435 10.3439 11.1781 10.5358 11.2575C10.7276 11.337 10.9388 11.3578 11.1424 11.3173C11.3461 11.2768 11.5332 11.1768 11.6801 11.0299C11.8269 10.8831 11.9269 10.696 11.9674 10.4923C12.0079 10.2886 11.9871 10.0775 11.9077 9.88566C11.8282 9.6938 11.6936 9.52981 11.5209 9.41443C11.3483 9.29906 11.1453 9.23748 10.9376 9.23748C10.6591 9.23748 10.392 9.3481 10.1951 9.54501C9.99822 9.74193 9.8876 10.009 9.8876 10.2875Z" fill="white"/>
</svg>
