<svg width="11" height="11" viewBox="0 0 11 11" fill="none" xmlns="http://www.w3.org/2000/svg">
<g clip-path="url(#clip0_356:818)">
<path d="M10.0834 5.07377V5.50002C10.0829 6.48838 9.76281 7.45008 9.17103 8.24169C8.57924 9.0333 7.74742 9.61241 6.79962 9.89264C5.85182 10.1729 4.83883 10.1392 3.91171 9.79671C2.9846 9.45419 2.19305 8.82115 1.6551 7.99201C1.11716 7.16287 0.861652 6.18205 0.926683 5.19583C0.991714 4.20961 1.3738 3.27084 2.01596 2.51951C2.65812 1.76819 3.52594 1.24457 4.49 1.02675C5.45406 0.808936 6.4627 0.90859 7.3655 1.31085" stroke="#3F686C" stroke-linecap="round" stroke-linejoin="round"/>
<path d="M10.5417 1.375L5.5 6.41667L4.125 5.04167" stroke="#3F686C" stroke-linecap="round" stroke-linejoin="round"/>
</g>
<defs>
<clipPath id="clip0_356:818">
<rect width="11" height="11" fill="white"/>
</clipPath>
</defs>
</svg>
