<svg width="34" height="34" viewBox="0 0 34 34" fill="none" xmlns="http://www.w3.org/2000/svg">
<path fill-rule="evenodd" clip-rule="evenodd" d="M5.45133 26.9167H4.25C3.12233 26.9167 2.04142 26.469 1.24525 25.6714C0.447667 24.8752 0 23.7943 0 22.6667V18.4167C0 8.25208 7.61742 0 17 0C26.3826 0 34 8.25208 34 18.4167V22.6667C34 23.7943 33.5523 24.8752 32.7547 25.6714C31.9586 26.469 30.8777 26.9167 29.75 26.9167H28.5487C24.7378 33.4801 18.768 34 17 34C15.232 34 9.26217 33.4801 5.45133 26.9167ZM28.3333 18.5923C27.4819 18.9267 26.5356 18.3373 26.5356 17.4632C26.5356 17.0326 26.5044 16.5991 26.4605 16.167C23.9657 15.8072 21.335 13.4385 21.2202 10.8927C19.3573 13.7332 14.8098 16.8002 11.2413 16.8002C12.7797 15.81 13.8465 12.8718 13.9372 11.8306C13.1141 13.3776 9.83167 16.2733 7.48992 16.7705L7.46442 17.4632C7.46442 18.3402 6.51667 18.9252 5.66667 18.5923V23.9346C6.07325 24.2973 6.562 24.5919 7.14142 24.7761C7.46017 24.8781 7.72508 25.0934 7.8795 25.3767C11.0047 31.1086 15.5663 31.1667 17 31.1667C18.3161 31.1667 22.2686 31.1171 25.3258 26.6772C23.8085 27.2907 22.117 27.5329 20.0005 27.6023C19.4763 28.4523 18.3288 29.0417 17 29.0417C15.1753 29.0417 13.6949 27.931 13.6949 26.5625C13.6949 25.194 15.1753 24.0833 17 24.0833C18.3217 24.0833 19.4622 24.6656 19.992 25.5071C22.6837 25.4702 26.1347 25.0339 28.3333 21.76V18.5923ZM12.75 17.7083C13.7218 17.7083 14.5109 18.6603 14.5109 19.8333C14.5109 21.0063 13.7218 21.9583 12.75 21.9583C11.7782 21.9583 10.9891 21.0063 10.9891 19.8333C10.9891 18.6603 11.7782 17.7083 12.75 17.7083ZM21.25 17.7083C22.2218 17.7083 23.0109 18.6603 23.0109 19.8333C23.0109 21.0063 22.2218 21.9583 21.25 21.9583C20.2782 21.9583 19.4891 21.0063 19.4891 19.8333C19.4891 18.6603 20.2782 17.7083 21.25 17.7083ZM29.0105 15.5833H30.9329C29.7202 8.33283 23.9388 2.83333 17 2.83333C10.0612 2.83333 4.27975 8.33283 3.06708 15.5833H4.9895C5.72617 9.88408 9.82175 4.64383 17 4.64383C24.1782 4.64383 28.2738 9.88408 29.0105 15.5833Z" fill="#3F686C"/>
</svg>
