<svg width="14" height="14" viewBox="0 0 14 14" fill="none" xmlns="http://www.w3.org/2000/svg">
<path d="M14 6.41667H12.8036C12.53 3.66042 10.3396 1.47 7.58333 1.19583V0H6.41667V1.19583C3.66042 1.47 1.47 3.66042 1.19642 6.41667H0V7.58333H1.19642C1.47 10.3396 3.66042 12.53 6.41667 12.8042V14H7.58333V12.8042C10.3396 12.5306 12.53 10.3396 12.8036 7.58333H14V6.41667ZM7.58333 11.6264V9.33333H6.41667V11.6264C4.31025 11.3616 2.63783 9.68975 2.37358 7.58333H4.66667V6.41667H2.37358C2.63783 4.31025 4.31025 2.63842 6.41667 2.37358V4.66667H7.58333V2.37358C9.68975 2.63842 11.3622 4.30967 11.6264 6.41667H9.33333V7.58333H11.6264C11.3622 9.68975 9.68975 11.3616 7.58333 11.6264ZM8.16667 7C8.16667 7.644 7.644 8.16667 7 8.16667C6.356 8.16667 5.83333 7.644 5.83333 7C5.83333 6.356 6.356 5.83333 7 5.83333C7.644 5.83333 8.16667 6.356 8.16667 7Z" fill="#202020"/>
</svg>
