<svg width="9" height="9" viewBox="0 0 9 9" fill="none" xmlns="http://www.w3.org/2000/svg">
<path d="M1.125 2.25V9H7.875V2.25H1.125ZM3 7.5C3 7.707 2.832 7.875 2.625 7.875C2.418 7.875 2.25 7.707 2.25 7.5V3.75C2.25 3.543 2.418 3.375 2.625 3.375C2.832 3.375 3 3.543 3 3.75V7.5ZM4.875 7.5C4.875 7.707 4.707 7.875 4.5 7.875C4.293 7.875 4.125 7.707 4.125 7.5V3.75C4.125 3.543 4.293 3.375 4.5 3.375C4.707 3.375 4.875 3.543 4.875 3.75V7.5ZM6.75 7.5C6.75 7.707 6.582 7.875 6.375 7.875C6.168 7.875 6 7.707 6 7.5V3.75C6 3.543 6.168 3.375 6.375 3.375C6.582 3.375 6.75 3.543 6.75 3.75V7.5ZM8.25 0.75V1.5H0.75V0.75H2.89163C3.22913 0.75 3.50325 0.337875 3.50325 0H5.49638C5.49638 0.337875 5.77013 0.75 6.108 0.75H8.25Z" fill="white"/>
</svg>
