<svg width="14" height="14" viewBox="0 0 14 14" fill="none" xmlns="http://www.w3.org/2000/svg">
<path d="M7 1.16667C10.2165 1.16667 12.8333 3.7835 12.8333 7C12.8333 10.2165 10.2165 12.8333 7 12.8333C3.7835 12.8333 1.16667 10.2165 1.16667 7C1.16667 3.7835 3.7835 1.16667 7 1.16667ZM7 0C3.13425 0 0 3.13425 0 7C0 10.8657 3.13425 14 7 14C10.8657 14 14 10.8657 14 7C14 3.13425 10.8657 0 7 0ZM9.33333 8.21508C9.33333 6.96383 8.03133 6.61558 7.03325 6.14658C6.42717 5.83158 6.50358 5.07967 7.37217 5.02892C7.854 4.99975 8.34925 5.14267 8.79725 5.30017L9.00842 4.33942C8.47933 4.17842 8.00567 4.10492 7.58333 4.09383V3.5H7V4.12242C5.86542 4.27817 5.25933 4.98983 5.25933 5.78492C5.25933 7.20708 6.92008 7.42408 7.46317 7.67667C8.204 8.008 8.06692 8.6975 7.39667 8.84975C6.81508 8.98158 6.07308 8.75175 5.51542 8.53475L5.25 9.49375C5.7715 9.76325 6.39625 9.90675 7 9.91783V10.5H7.58333V9.88575C8.54992 9.75042 9.3345 9.21725 9.33333 8.21508Z" fill="#3F686C"/>
</svg>
