<svg width="14" height="20" viewBox="0 0 14 20" fill="none" xmlns="http://www.w3.org/2000/svg">
<path d="M6.99992 1.66667C9.66325 1.66667 11.9999 3.84833 11.9999 6.335C11.9999 8.9125 9.92242 12.2783 6.99992 16.8858C4.07742 12.2783 1.99992 8.9125 1.99992 6.335C1.99992 3.84833 4.33658 1.66667 6.99992 1.66667ZM6.99992 0C3.50158 0 0.333252 2.83583 0.333252 6.335C0.333252 9.83333 3.22408 14.01 6.99992 20C10.7757 14.01 13.6666 9.83333 13.6666 6.335C13.6666 2.83583 10.4991 0 6.99992 0V0ZM6.99992 9.16667C5.61908 9.16667 4.49992 8.0475 4.49992 6.66667C4.49992 5.28583 5.61908 4.16667 6.99992 4.16667C8.38075 4.16667 9.49992 5.28583 9.49992 6.66667C9.49992 8.0475 8.38075 9.16667 6.99992 9.16667Z" fill="#3F686C"/>
</svg>
