<svg width="20" height="20" viewBox="0 0 20 20" fill="none" xmlns="http://www.w3.org/2000/svg">
<path d="M10 2.49999C11.7758 2.49999 13.3333 3.94166 13.3333 5.58499C13.3333 7.29333 11.905 9.70249 10 12.7192C8.095 9.70249 6.66667 7.29333 6.66667 5.58499C6.66667 3.94166 8.22417 2.49999 10 2.49999ZM10 0.833328C7.37667 0.833328 5 2.96083 5 5.58499C5 8.20833 7.16833 11.3408 10 15.8333C12.8317 11.3408 15 8.20833 15 5.58499C15 2.96083 12.6242 0.833328 10 0.833328ZM10 7.49999C9.07917 7.49999 8.33333 6.75416 8.33333 5.83333C8.33333 4.91249 9.07917 4.16666 10 4.16666C10.9208 4.16666 11.6667 4.91249 11.6667 5.83333C11.6667 6.75416 10.9208 7.49999 10 7.49999ZM20 19.1667H0L3.33333 12.5H5.94583C6.26667 13.0342 6.61083 13.5908 6.9725 14.1667H4.36333L2.69667 17.5H17.3025L15.6358 14.1667H13.0267C13.3892 13.5908 13.7333 13.0342 14.0533 12.5H16.6667L20 19.1667Z" fill="#3F686C"/>
</svg>
