<svg version="1.2" baseProfile="tiny-ps" xmlns="http://www.w3.org/2000/svg" viewBox="0 0 328 328" width="328" height="328">
	<title>login-alert-svg</title>
	<style>
		tspan { white-space:pre }
		.shp0 { fill: #f0f0f0 } 
		.shp1 { fill: #e0e0e0 } 
		.shp2 { fill: #651d32 } 
		.shp3 { opacity: 0.149;fill: #000000 } 
		.shp4 { fill: #ffffff } 
		.shp5 { fill: #263238 } 
		.shp6 { fill: #551326 } 
		.shp7 { fill: #b54163 } 
		.shp8 { fill: #fafafa } 
		.shp9 { opacity: 0.2;fill: #000000 } 
		.shp10 { opacity: 0.6;fill: #ffffff } 
		.shp11 { fill: #ffa8a7 } 
		.shp12 { opacity: 0.102;fill: #000000 } 
		.shp13 { fill: #b16668 } 
		.shp14 { fill: #455a64 } 
		.shp15 { fill: #f28f8f } 
	</style>
	<path id="Layer" class="shp0" d="M9.45 224.29C9.45 175.01 78.65 135.06 164 135.06C249.35 135.06 318.55 175.01 318.55 224.29C318.55 273.57 249.35 313.52 164 313.52C78.65 313.52 9.45 273.57 9.45 224.29Z" />
	<path id="Layer" class="shp1" d="M78.73 261.14C78.73 244.15 102.59 230.37 132.02 230.37C161.45 230.37 185.31 244.15 185.31 261.14C185.31 278.13 161.45 291.91 132.02 291.91C102.59 291.91 78.73 278.13 78.73 261.14Z" />
	<path id="Layer" class="shp2" d="M283.58 222.65L277.32 219.04C277.32 219.04 275.8 205.66 276.81 195.29C278.24 180.73 287.65 163.2 298.87 167.32C310.08 171.44 293.72 186.26 290.08 198.62C286.44 210.97 283.58 222.65 283.58 222.65Z" />
	<path id="Layer" class="shp3" d="M283.58 222.65L277.32 219.04C277.32 219.04 275.8 205.66 276.81 195.29C278.24 180.73 287.65 163.2 298.87 167.32C310.08 171.44 293.72 186.26 290.08 198.62C286.44 210.97 283.58 222.65 283.58 222.65Z" />
	<path id="Layer" class="shp4" d="M280.14 221.11C280.09 221.09 280.05 221.06 280.01 221.03C279.98 221 279.94 220.96 279.92 220.91C279.9 220.86 279.89 220.81 279.89 220.76C278.78 188.07 295.12 171.56 295.29 171.4C295.33 171.36 295.37 171.34 295.41 171.32C295.46 171.3 295.51 171.29 295.56 171.29C295.61 171.29 295.66 171.3 295.7 171.32C295.75 171.34 295.79 171.36 295.82 171.4C295.89 171.47 295.94 171.57 295.94 171.67C295.94 171.77 295.89 171.87 295.82 171.94C295.67 172.09 279.55 188.38 280.65 220.74C280.65 220.84 280.62 220.93 280.55 221.01C280.48 221.08 280.39 221.13 280.29 221.13C280.24 221.13 280.19 221.13 280.14 221.11Z" />
	<path id="Layer" class="shp2" d="M287.5 224.9L283.06 222.33C283.06 222.33 282.3 213.15 286.8 202C290.74 192.29 300.45 184.22 305.34 185.92C310.24 187.61 310.11 191.08 307.72 194.72C305.34 198.36 290.83 207.03 287.5 224.9Z" />
	<path id="Layer" class="shp4" d="M284.89 223.81C284.82 223.74 284.78 223.65 284.78 223.54C284.69 202.7 304.22 188.63 304.42 188.5C304.5 188.44 304.6 188.42 304.7 188.43C304.8 188.45 304.88 188.51 304.94 188.59C304.97 188.63 304.99 188.67 305 188.72C305.02 188.77 305.02 188.82 305.01 188.87C305 188.92 304.99 188.96 304.96 189C304.93 189.05 304.9 189.08 304.86 189.11C304.66 189.25 285.44 203.08 285.54 223.54C285.54 223.65 285.5 223.74 285.42 223.81C285.35 223.88 285.26 223.92 285.16 223.93C285.06 223.93 284.96 223.88 284.89 223.81Z" />
	<path id="Layer" class="shp2" d="M40.39 177.59C31.82 166.93 32.8 161.38 37.39 159.41C41.98 157.44 54.89 163.65 58.21 182.31C60.57 195.63 58.03 210.71 58.03 210.71L52.26 214.61C52.08 197.23 45.47 183.85 40.39 177.59Z" />
	<g id="Layer" style="opacity: 0.149">
		<path id="Layer" class="shp3" d="M40.39 177.59C31.82 166.93 32.8 161.38 37.39 159.41C41.98 157.44 54.89 163.65 58.21 182.31C60.57 195.63 58.03 210.71 58.03 210.71L52.26 214.61C52.08 197.23 45.47 183.85 40.39 177.59Z" />
	</g>
	<path id="Layer" class="shp4" d="M54.24 207.13L54.18 207.13C54.12 207.13 54.06 207.11 54.01 207.08C53.96 207.06 53.91 207.02 53.88 206.97C53.84 206.93 53.81 206.87 53.8 206.81C53.78 206.76 53.78 206.7 53.79 206.64C55.88 189.06 48.46 169.99 40.38 162.4C40.31 162.32 40.26 162.21 40.26 162.1C40.26 161.99 40.31 161.89 40.38 161.81C40.42 161.77 40.47 161.74 40.52 161.72C40.57 161.7 40.62 161.69 40.68 161.69C40.73 161.69 40.79 161.7 40.84 161.72C40.89 161.74 40.94 161.77 40.97 161.81C49.2 169.54 56.76 188.93 54.65 206.76C54.63 206.86 54.58 206.95 54.51 207.02C54.44 207.09 54.34 207.13 54.24 207.13Z" />
	<path id="Layer" class="shp2" d="M37.14 224.8C36.22 225.36 33.55 223.37 32.81 222.89C31.54 222.06 30.5 220.92 29.8 219.57C29.02 218.04 28.73 216.31 28.97 214.61C29.1 213.72 29.3 212.85 29.55 211.99C29.78 211.13 30.01 210.27 30.21 209.4C30.5 208.56 30.61 207.67 30.54 206.78C30.28 205.03 28.7 203.83 27.26 202.8C25.67 201.65 23.98 200.13 23.98 198.02C24.06 196.36 24.69 194.78 25.78 193.52C26.77 192.21 27.95 191.07 28.83 189.69C29.52 188.75 29.88 187.59 29.84 186.41C29.72 185.69 29.46 185 29.07 184.38C28.3 183.01 27.3 181.75 26.75 180.3C26.21 178.85 26.25 176.99 27.41 175.91C28.33 175.02 29.74 174.88 31.02 174.94C32.23 175.06 33.39 175.44 34.43 176.06C37.83 177.86 39.82 181.8 43.41 183.17C44.79 183.69 46.3 183.78 47.74 184.14C49.17 184.49 50.66 185.19 51.35 186.5C52.7 189.09 50.34 192.36 51.31 195.11C52.17 197.55 54.59 198.44 55.95 200.62C56.5 201.59 56.73 202.72 56.61 203.83C56.53 205.7 56.11 207.54 55.37 209.26C54.51 211.05 53.55 212.78 52.48 214.45C52.48 214.45 37.28 224.72 37.14 224.8Z" />
	<path id="Layer" class="shp4" d="M46.01 219.37C45.96 219.37 45.9 219.35 45.85 219.33C45.8 219.31 45.76 219.28 45.72 219.24C45.68 219.2 45.65 219.15 45.63 219.1C45.61 219.05 45.6 219 45.6 218.94C45.97 202.33 37.79 184.17 32.01 178.92C31.92 178.85 31.87 178.75 31.87 178.63C31.86 178.53 31.9 178.42 31.97 178.33C32.01 178.29 32.06 178.26 32.11 178.24C32.16 178.22 32.21 178.21 32.27 178.21C32.32 178.21 32.38 178.22 32.43 178.24C32.48 178.26 32.53 178.29 32.56 178.33C38.47 183.65 46.81 202.12 46.43 218.96C46.43 219.01 46.42 219.07 46.4 219.12C46.38 219.17 46.35 219.21 46.31 219.25C46.27 219.29 46.22 219.32 46.17 219.34C46.12 219.36 46.07 219.37 46.01 219.37Z" />
	<path id="Layer" class="shp4" d="M42.95 199.13C42.91 199.14 42.87 199.14 42.83 199.13C37.46 197.58 30.81 197.42 30.75 197.42C30.69 197.42 30.64 197.4 30.59 197.38C30.54 197.36 30.49 197.33 30.45 197.29C30.42 197.25 30.39 197.2 30.37 197.15C30.35 197.1 30.34 197.04 30.34 196.99C30.34 196.94 30.35 196.88 30.37 196.83C30.39 196.78 30.42 196.73 30.46 196.69C30.5 196.66 30.55 196.63 30.6 196.61C30.66 196.59 30.71 196.58 30.77 196.58C30.83 196.58 37.59 196.75 43.06 198.32C43.17 198.35 43.25 198.43 43.31 198.52C43.36 198.62 43.37 198.73 43.34 198.84C43.32 198.92 43.26 199 43.19 199.05C43.12 199.1 43.04 199.13 42.95 199.13Z" />
	<path id="Layer" class="shp2" d="M197.56 203.19L195.07 201.75C194.66 201.48 194.32 201.12 194.07 200.69C193.82 200.27 193.68 199.79 193.65 199.29L193.65 95.96C193.68 95.47 193.82 94.99 194.07 94.56C194.31 94.13 194.66 93.77 195.07 93.5L264.18 53.6C264.62 53.38 265.11 53.26 265.6 53.26C266.09 53.26 266.58 53.38 267.02 53.6L269.5 55.04C269.92 55.31 270.26 55.67 270.51 56.1C270.76 56.53 270.9 57.01 270.93 57.5L270.93 160.83C270.9 161.32 270.76 161.8 270.51 162.23C270.27 162.66 269.92 163.02 269.51 163.29L200.4 203.2C199.96 203.42 199.47 203.54 198.98 203.53C198.49 203.53 198 203.41 197.56 203.19Z" />
	<path id="Layer" class="shp2" d="M270.93 57.27C270.83 56.53 270.23 56.27 269.52 56.68L200.4 96.58C199.98 96.85 199.64 97.21 199.4 97.64L194.06 94.56C194.3 94.13 194.65 93.76 195.07 93.5L264.18 53.6C264.62 53.38 265.1 53.26 265.6 53.26C266.09 53.26 266.58 53.38 267.02 53.6L269.5 55.04C269.89 55.29 270.21 55.61 270.46 56C270.71 56.38 270.87 56.82 270.93 57.27Z" />
	<path id="Layer" class="shp5" d="M452.16 212.31C451.74 212.48 451.29 212.56 450.84 212.54C450.38 212.52 449.94 212.4 449.53 212.2L447.04 210.75C446.63 210.48 446.29 210.12 446.04 209.69C445.79 209.26 445.65 208.78 445.63 208.29L445.63 104.96C445.64 104.47 445.78 103.99 446.04 103.56L451.37 106.64C451.11 107.06 450.97 107.55 450.95 108.04L450.95 211.38C450.98 212.19 451.49 212.56 452.16 212.31Z" />
	<path id="Layer" class="shp6" d="M199.39 97.65C199.64 97.22 199.99 96.85 200.4 96.58L269.51 56.68C270.27 56.23 270.93 56.59 270.93 57.5L270.93 160.83C270.9 161.32 270.76 161.8 270.51 162.23C270.27 162.66 269.92 163.02 269.51 163.29L200.4 203.2C199.63 203.65 198.98 203.28 198.98 202.38L198.98 99.06C199 98.56 199.15 98.08 199.39 97.65Z" />
	<path id="Layer" class="shp2" d="M182.84 138.42C181.95 137.88 177.81 135.53 177.59 135.41C177.42 135.3 177.28 135.17 177.17 135C177.06 134.84 176.99 134.65 176.97 134.46C176.94 134.26 176.96 134.07 177.01 133.88C177.07 133.69 177.18 133.52 177.31 133.38L193.65 115.85L198.98 118.91L182.64 136.45C182.51 136.59 182.42 136.75 182.36 136.93C182.3 137.1 182.28 137.29 182.29 137.48C182.31 137.66 182.37 137.84 182.47 138.01C182.56 138.17 182.69 138.31 182.84 138.42Z" />
	<path id="Layer" class="shp2" d="M198.98 137.39L183.71 138.65C183.45 138.68 183.18 138.62 182.95 138.49C182.72 138.35 182.54 138.16 182.42 137.92C182.31 137.68 182.26 137.41 182.3 137.15C182.34 136.89 182.46 136.64 182.64 136.45L198.98 118.93L198.98 137.39Z" />
	<path id="Layer" class="shp7" d="M234.95 93.38C243.01 88.73 249.54 92.5 249.54 101.8C249.54 111.11 243.01 122.41 234.95 127.06C226.9 131.71 220.37 127.94 220.37 118.64C220.37 109.35 226.9 98.03 234.95 93.38Z" />
	<path id="Layer" class="shp4" d="M234.85 100.7C237.47 99.19 239.58 100.41 239.58 103.43C239.49 105.07 239.01 106.67 238.19 108.09C237.37 109.51 236.22 110.72 234.85 111.62C232.22 113.13 230.11 111.91 230.11 108.89C230.2 107.25 230.68 105.65 231.5 104.23C232.32 102.81 233.47 101.6 234.85 100.7Z" />
	<path id="Layer" class="shp4" d="M244.18 117.97C241.84 121.67 238.68 124.79 234.95 127.09C233 128.3 230.75 128.98 228.45 129.06C227.6 129.06 226.76 128.93 225.95 128.67L225.95 127.31C225.95 122.37 229.43 116.33 233.72 113.85L236.4 112.3C240.69 109.82 244.18 111.83 244.18 116.78L244.18 117.97Z" />
	<path id="Layer" class="shp7" d="M225.72 164.1L244.19 153.44C244.98 152.98 245.61 153.35 245.61 154.26L245.61 160.21C245.59 160.7 245.44 161.18 245.2 161.61C244.95 162.03 244.6 162.4 244.19 162.67L225.72 173.33C224.93 173.79 224.29 173.42 224.29 172.51L224.29 166.56C224.32 166.07 224.46 165.59 224.71 165.16C224.96 164.74 225.3 164.37 225.72 164.1Z" />
	<path id="Layer" class="shp8" d="M216.67 150.81L253.22 129.7C254.15 129.16 254.92 129.6 254.92 130.69L254.92 132.9C254.89 133.49 254.72 134.06 254.42 134.58C254.13 135.09 253.71 135.53 253.22 135.85L216.65 156.96C215.71 157.5 214.95 157.06 214.95 155.97L214.95 153.78C214.98 153.19 215.15 152.61 215.45 152.09C215.75 151.57 216.17 151.14 216.67 150.81Z" />
	<path id="Layer" class="shp2" d="M162.28 25.18C163.41 25.44 164.5 25.85 165.52 26.4C166.5 26.93 167.37 27.62 168.1 28.45C168.8 29.25 169.32 30.19 169.62 31.21C169.93 32.29 169.95 33.45 169.69 34.55C169.51 35.42 169.17 36.25 168.67 36.99C168.22 37.62 167.68 38.18 167.07 38.66C166.47 39.13 165.83 39.54 165.16 39.89L163.27 40.9C162.7 41.19 162.16 41.54 161.66 41.94C161.2 42.29 160.85 42.76 160.65 43.3C160.55 43.54 160.38 43.76 160.17 43.91C160.07 43.99 159.95 44.05 159.83 44.07C159.7 44.1 159.57 44.1 159.45 44.06L156.67 43.45C156.53 43.42 156.41 43.36 156.29 43.29C156.18 43.21 156.08 43.11 156.01 42.99C155.93 42.89 155.88 42.76 155.86 42.63C155.84 42.5 155.84 42.37 155.88 42.24C156.11 41.38 156.5 40.57 157.05 39.87C157.54 39.24 158.12 38.68 158.75 38.21C159.37 37.75 160.03 37.35 160.72 37.01C161.38 36.67 162.03 36.35 162.6 36.03C163.13 35.74 163.63 35.4 164.09 35.01C164.5 34.67 164.77 34.21 164.89 33.7C164.99 33.25 164.99 32.79 164.87 32.35C164.76 31.9 164.54 31.49 164.23 31.15C163.46 30.32 162.44 29.76 161.32 29.57C159.24 29.11 157.5 29.81 156.07 31.67C155.93 31.87 155.76 32.04 155.56 32.18C155.33 32.3 155.07 32.31 154.83 32.24L151.87 31.58C151.66 31.54 151.47 31.42 151.35 31.24C151.29 31.14 151.24 31.04 151.22 30.92C151.21 30.81 151.21 30.69 151.24 30.58C151.49 29.67 151.96 28.83 152.6 28.14C153.33 27.34 154.2 26.67 155.16 26.17C156.21 25.63 157.34 25.25 158.51 25.06C159.76 24.86 161.04 24.9 162.28 25.18ZM159.14 46.29C159.4 46.36 159.63 46.52 159.77 46.74C159.91 46.97 159.96 47.24 159.91 47.5L159.2 50.72C159.17 50.85 159.12 50.98 159.04 51.09C158.97 51.2 158.87 51.3 158.75 51.37C158.64 51.45 158.52 51.5 158.39 51.52C158.26 51.55 158.12 51.55 157.99 51.52L154.82 50.79C154.68 50.77 154.55 50.71 154.44 50.64C154.33 50.56 154.23 50.46 154.16 50.34C154.09 50.23 154.04 50.11 154.01 49.98C153.99 49.84 153.99 49.71 154.02 49.58L154.74 46.37C154.8 46.11 154.96 45.88 155.18 45.73C155.41 45.59 155.68 45.54 155.94 45.59L159.14 46.29Z" />
	<path id="Layer" class="shp2" d="M165.78 55.96C166.57 55.83 167.38 55.81 168.17 55.91C168.93 56 169.67 56.22 170.35 56.57C171 56.9 171.57 57.37 172.03 57.94C172.44 58.5 172.73 59.14 172.88 59.82C173.03 60.5 173.03 61.2 172.9 61.88C172.77 62.4 172.57 62.91 172.3 63.37C172.04 63.82 171.73 64.25 171.39 64.64C171.06 65.04 170.74 65.41 170.44 65.77C170.15 66.11 169.9 66.47 169.67 66.85C169.47 67.19 169.36 67.58 169.37 67.97C169.37 68.16 169.31 68.34 169.22 68.5C169.17 68.57 169.11 68.64 169.04 68.68C168.97 68.73 168.88 68.76 168.79 68.78L166.83 69.09C166.74 69.11 166.64 69.1 166.55 69.08C166.46 69.06 166.37 69.03 166.3 68.97C166.22 68.92 166.15 68.86 166.11 68.78C166.06 68.7 166.03 68.61 166.03 68.52C165.94 67.91 165.99 67.29 166.16 66.7C166.31 66.17 166.53 65.67 166.81 65.2C167.09 64.75 167.41 64.33 167.76 63.93C168.11 63.54 168.41 63.17 168.72 62.82C168.99 62.5 169.22 62.16 169.41 61.79C169.58 61.47 169.65 61.11 169.59 60.75C169.54 60.44 169.42 60.14 169.23 59.89C169.04 59.63 168.79 59.43 168.51 59.29C167.8 58.95 167 58.85 166.24 59.01C165.54 59.12 164.9 59.43 164.39 59.91C163.88 60.39 163.53 61.02 163.4 61.71C163.36 61.88 163.29 62.03 163.2 62.18C163.08 62.3 162.92 62.38 162.75 62.39L160.68 62.73C160.53 62.75 160.38 62.72 160.26 62.64C160.2 62.6 160.15 62.54 160.1 62.48C160.06 62.41 160.04 62.34 160.03 62.26C159.97 61.61 160.07 60.95 160.33 60.35C160.59 59.65 160.97 59 161.46 58.44C161.99 57.82 162.62 57.28 163.32 56.86C164.07 56.4 164.91 56.1 165.78 55.96ZM169.17 70.29C169.26 70.28 169.35 70.28 169.44 70.3C169.53 70.32 169.61 70.36 169.69 70.42C169.76 70.47 169.83 70.53 169.88 70.61C169.93 70.69 169.96 70.78 169.98 70.87L170.34 73.12C170.37 73.3 170.33 73.49 170.22 73.64C170.11 73.79 169.95 73.89 169.77 73.92L167.57 74.28C167.39 74.31 167.2 74.26 167.05 74.15C166.97 74.1 166.91 74.04 166.86 73.96C166.81 73.88 166.78 73.79 166.77 73.7L166.4 71.45C166.38 71.36 166.39 71.27 166.41 71.18C166.43 71.09 166.47 71.01 166.53 70.93C166.58 70.86 166.64 70.79 166.72 70.74C166.8 70.7 166.89 70.66 166.98 70.65L169.17 70.29Z" />
	<g id="Layer" style="opacity: 0.2">
		<path id="Layer" class="shp9" d="M165.78 55.96C166.57 55.83 167.38 55.81 168.17 55.91C168.93 56 169.67 56.22 170.35 56.57C171 56.9 171.57 57.37 172.03 57.94C172.44 58.5 172.73 59.14 172.88 59.82C173.03 60.5 173.03 61.2 172.9 61.88C172.77 62.4 172.57 62.91 172.3 63.37C172.04 63.82 171.73 64.25 171.39 64.64C171.06 65.04 170.74 65.41 170.44 65.77C170.15 66.11 169.9 66.47 169.67 66.85C169.47 67.19 169.36 67.58 169.37 67.97C169.37 68.16 169.31 68.34 169.22 68.5C169.17 68.57 169.11 68.64 169.04 68.68C168.97 68.73 168.88 68.76 168.79 68.78L166.83 69.09C166.74 69.11 166.64 69.1 166.55 69.08C166.46 69.06 166.37 69.03 166.3 68.97C166.22 68.92 166.15 68.86 166.11 68.78C166.06 68.7 166.03 68.61 166.03 68.52C165.94 67.91 165.99 67.29 166.16 66.7C166.31 66.17 166.53 65.67 166.81 65.2C167.09 64.75 167.41 64.33 167.76 63.93C168.11 63.54 168.41 63.17 168.72 62.82C168.99 62.5 169.22 62.16 169.41 61.79C169.58 61.47 169.65 61.11 169.59 60.75C169.54 60.44 169.42 60.14 169.23 59.89C169.04 59.63 168.79 59.43 168.51 59.29C167.8 58.95 167 58.85 166.24 59.01C165.54 59.12 164.9 59.43 164.39 59.91C163.88 60.39 163.53 61.02 163.4 61.71C163.36 61.88 163.29 62.03 163.2 62.18C163.08 62.3 162.92 62.38 162.75 62.39L160.68 62.73C160.53 62.75 160.38 62.72 160.26 62.64C160.2 62.6 160.15 62.54 160.1 62.48C160.06 62.41 160.04 62.34 160.03 62.26C159.97 61.61 160.07 60.95 160.33 60.35C160.59 59.65 160.97 59 161.46 58.44C161.99 57.82 162.62 57.28 163.32 56.86C164.07 56.4 164.91 56.1 165.78 55.96ZM169.17 70.29C169.26 70.28 169.35 70.28 169.44 70.3C169.53 70.32 169.61 70.36 169.69 70.42C169.76 70.47 169.83 70.53 169.88 70.61C169.93 70.69 169.96 70.78 169.98 70.87L170.34 73.12C170.37 73.3 170.33 73.49 170.22 73.64C170.11 73.79 169.95 73.89 169.77 73.92L167.57 74.28C167.39 74.31 167.2 74.26 167.05 74.15C166.97 74.1 166.91 74.04 166.86 73.96C166.81 73.88 166.78 73.79 166.77 73.7L166.4 71.45C166.38 71.36 166.39 71.27 166.41 71.18C166.43 71.09 166.47 71.01 166.53 70.93C166.58 70.86 166.64 70.79 166.72 70.74C166.8 70.7 166.89 70.66 166.98 70.65L169.17 70.29Z" />
	</g>
	<path id="Layer" class="shp2" d="M184.34 59.49C184.43 59.56 184.5 59.63 184.56 59.73C184.62 59.82 184.65 59.92 184.67 60.03C184.69 60.14 184.69 60.25 184.67 60.35C184.64 60.46 184.6 60.56 184.53 60.65L182.97 62.85C182.91 62.93 182.83 63.01 182.74 63.07C182.65 63.13 182.54 63.16 182.43 63.18C182.33 63.2 182.22 63.2 182.11 63.18C182 63.15 181.91 63.11 181.82 63.04L179.66 61.51C179.58 61.45 179.5 61.37 179.44 61.28C179.39 61.19 179.35 61.08 179.34 60.98C179.32 60.87 179.32 60.76 179.34 60.65C179.37 60.55 179.41 60.45 179.47 60.36L181.06 58.16C181.18 57.98 181.38 57.86 181.59 57.83C181.81 57.79 182.03 57.84 182.21 57.96L184.34 59.49ZM193.41 44.61C194.2 45.16 194.9 45.82 195.49 46.58C196.06 47.28 196.51 48.08 196.8 48.94C197.07 49.76 197.16 50.63 197.07 51.5C196.96 52.42 196.61 53.29 196.06 54.03C195.65 54.64 195.12 55.15 194.51 55.54C193.97 55.88 193.39 56.14 192.77 56.3C192.17 56.46 191.56 56.57 190.95 56.62L189.2 56.78C188.68 56.82 188.16 56.91 187.66 57.05C187.19 57.15 186.76 57.39 186.42 57.73C186.27 57.88 186.08 57.99 185.87 58.04C185.76 58.07 185.66 58.08 185.56 58.06C185.45 58.04 185.36 57.99 185.27 57.93L183.37 56.57C183.19 56.44 183.06 56.25 183.02 56.03C183 55.92 183 55.81 183.03 55.71C183.05 55.6 183.1 55.5 183.18 55.42C183.62 54.84 184.18 54.36 184.81 54C185.38 53.69 185.99 53.45 186.62 53.3C187.23 53.15 187.85 53.06 188.47 53.02C189.09 52.98 189.67 52.93 190.21 52.88C190.7 52.84 191.19 52.74 191.66 52.59C192.07 52.45 192.43 52.18 192.67 51.82C192.89 51.52 193.03 51.17 193.08 50.8C193.14 50.42 193.1 50.05 192.98 49.69C192.66 48.82 192.07 48.07 191.29 47.57C189.87 46.56 188.33 46.53 186.65 47.48C186.48 47.58 186.3 47.66 186.1 47.7C186 47.71 185.9 47.69 185.8 47.66C185.7 47.63 185.61 47.58 185.54 47.51L183.52 46.07C183.44 46.02 183.38 45.96 183.33 45.89C183.28 45.81 183.25 45.73 183.23 45.64C183.22 45.56 183.22 45.46 183.24 45.38C183.26 45.29 183.3 45.21 183.36 45.13C183.84 44.52 184.46 44.04 185.16 43.72C185.97 43.36 186.83 43.14 187.71 43.07C188.68 42.99 189.65 43.06 190.59 43.3C191.61 43.54 192.57 43.99 193.41 44.61Z" />
	<g id="Layer" style="opacity: 0.6">
		<path id="Layer" class="shp10" d="M184.34 59.49C184.43 59.56 184.5 59.63 184.56 59.73C184.62 59.82 184.65 59.92 184.67 60.03C184.69 60.14 184.69 60.25 184.67 60.35C184.64 60.46 184.6 60.56 184.53 60.65L182.97 62.85C182.91 62.93 182.83 63.01 182.74 63.07C182.65 63.13 182.54 63.16 182.43 63.18C182.33 63.2 182.22 63.2 182.11 63.18C182 63.15 181.91 63.11 181.82 63.04L179.66 61.51C179.58 61.45 179.5 61.37 179.44 61.28C179.39 61.19 179.35 61.08 179.34 60.98C179.32 60.87 179.32 60.76 179.34 60.65C179.37 60.55 179.41 60.45 179.47 60.36L181.06 58.16C181.18 57.98 181.38 57.86 181.59 57.83C181.81 57.79 182.03 57.84 182.21 57.96L184.34 59.49ZM193.41 44.61C194.2 45.16 194.9 45.82 195.49 46.58C196.06 47.28 196.51 48.08 196.8 48.94C197.07 49.76 197.16 50.63 197.07 51.5C196.96 52.42 196.61 53.29 196.06 54.03C195.65 54.64 195.12 55.15 194.51 55.54C193.97 55.88 193.39 56.14 192.77 56.3C192.17 56.46 191.56 56.57 190.95 56.62L189.2 56.78C188.68 56.82 188.16 56.91 187.66 57.05C187.19 57.15 186.76 57.39 186.42 57.73C186.27 57.88 186.08 57.99 185.87 58.04C185.76 58.07 185.66 58.08 185.56 58.06C185.45 58.04 185.36 57.99 185.27 57.93L183.37 56.57C183.19 56.44 183.06 56.25 183.02 56.03C183 55.92 183 55.81 183.03 55.71C183.05 55.6 183.1 55.5 183.18 55.42C183.62 54.84 184.18 54.36 184.81 54C185.38 53.69 185.99 53.45 186.62 53.3C187.23 53.15 187.85 53.06 188.47 53.02C189.09 52.98 189.67 52.93 190.21 52.88C190.7 52.84 191.19 52.74 191.66 52.59C192.07 52.45 192.43 52.18 192.67 51.82C192.89 51.52 193.03 51.17 193.08 50.8C193.14 50.42 193.1 50.05 192.98 49.69C192.66 48.82 192.07 48.07 191.29 47.57C189.87 46.56 188.33 46.53 186.65 47.48C186.48 47.58 186.3 47.66 186.1 47.7C186 47.71 185.9 47.69 185.8 47.66C185.7 47.63 185.61 47.58 185.54 47.51L183.52 46.07C183.44 46.02 183.38 45.96 183.33 45.89C183.28 45.81 183.25 45.73 183.23 45.64C183.22 45.56 183.22 45.46 183.24 45.38C183.26 45.29 183.3 45.21 183.36 45.13C183.84 44.52 184.46 44.04 185.16 43.72C185.97 43.36 186.83 43.14 187.71 43.07C188.68 42.99 189.65 43.06 190.59 43.3C191.61 43.54 192.57 43.99 193.41 44.61Z" />
	</g>
	<path id="Layer" class="shp6" d="M135.48 117.56L112.18 117.56L112.18 61.09C112.18 56.19 114.13 51.49 117.59 48.02C121.06 44.55 125.76 42.6 130.67 42.6L132.82 42.6C137.72 42.6 142.43 44.55 145.9 48.02C149.37 51.49 151.31 56.19 151.31 61.09L151.31 101.77C151.31 105.96 149.63 109.98 146.66 112.94C143.7 115.9 139.68 117.56 135.48 117.56Z" />
	<path id="Layer" class="shp6" d="M117.56 253.64C117.56 253.64 117.91 255.74 118.21 258.48C118.58 261.6 118.64 263.86 119.23 267.96C119.82 271.91 120.09 274.43 118.24 278.26C116.39 282.09 112.12 280.03 110.48 277.76C108.85 275.49 108.15 273.99 108.27 269.95C108.38 266.42 109.17 264.89 109.25 260.59C109.28 258.21 109.5 255.84 109.91 253.5L117.56 253.64Z" />
	<path id="Layer" class="shp11" d="M121.55 228.12C120.17 238.34 117.48 247.96 117.54 253.65C117.52 255.01 118.24 268.22 117.92 271.31C117.59 274.4 111.46 275.1 110.51 269.93C109.88 266.51 109.97 255.2 109.92 253.53C109.66 244.63 108.16 234.13 107.95 224.67L122.12 224.92C122.06 225.41 121.61 227.63 121.55 228.12Z" />
	<path id="Layer" class="shp6" d="M148.26 246.66C150.01 250.73 152.3 252.91 158.54 256.98L161.59 258.95C165.52 261.48 167.69 261.7 166.56 263.54C165.42 265.38 163.02 266.53 159.58 266.53C156.65 266.55 152.36 264.8 150.4 262.93C148.55 261.13 146.3 259.79 143.84 259.03C141.83 258.41 138.75 256.72 138.51 255.39C138.27 254.07 138.61 251.4 139.01 249.78C139.32 248.61 139.53 247.15 139.67 246.44C139.77 245.84 140.32 246.15 140.32 246.15L148.26 246.66Z" />
	<path id="Layer" class="shp11" d="M150.3 249.17C153.15 252.29 158.36 256.38 161.94 259.12C161.4 260.49 157.06 260.39 154.92 259.32C152.12 257.82 149.46 256.08 146.96 254.13C144.03 251.9 140.24 250.09 140.24 246.75C140.23 246.51 140.25 246.27 140.31 246.03C140.27 243.22 139.65 239.16 136.77 221.96L150.22 215.82C150.22 215.82 148.2 240.69 148.31 243.62C148.41 246.55 148.91 247.7 150.3 249.17Z" />
	<path id="Layer" class="shp2" d="M149.68 133.27C151.1 149.84 152.93 181.15 152.06 192.71C151.41 201.35 149.68 224.23 149.68 224.23C145.04 228.35 137.44 226.08 137.44 226.08C137.44 226.08 133.43 212.01 134.13 204.84C134.6 201.28 135.38 197.77 136.45 194.34L131.48 170.19C131.48 170.19 129.12 183.78 127.81 194.41C126.27 206.6 121.03 231.65 121.03 231.65C115.59 235.77 108.23 231.69 108.23 231.69C108.23 231.69 107.18 219.31 107.58 209.58C108 199.16 111.28 194.56 111.47 192.21C111.47 192.21 110.21 180.5 109.45 167.22C108.59 152.74 108.59 143.96 113.76 132.62L149.68 133.27Z" />
	<path id="Layer" class="shp6" d="M131.5 170.17L133.54 151.98C133.54 151.98 142.68 150.76 146.83 146.86C145.64 148.72 144.06 150.29 142.2 151.47C140.33 152.64 138.23 153.39 136.05 153.67L133.1 170.6L136.45 194.34L131.5 170.17Z" />
	<path id="Layer" class="shp11" d="M161.38 140.8L157.15 135.14L158 122.2C158.08 121.46 157.88 120.72 157.44 120.12L143.32 104.91C140.84 97.74 135.92 85.63 138.44 85.49C142.04 85.29 145.74 85.97 149.25 90.38C154.17 96.55 158.82 102.76 164.27 109.67C168.3 114.78 168.82 115.25 169.03 118.14C169.07 121.48 168.9 124.82 168.53 128.14C167.79 135.28 161.38 140.8 161.38 140.8Z" />
	<path id="Layer" class="shp2" d="M137.85 85.48C141.33 85.2 146.58 90.7 151.98 99.44C154.32 103.23 154.27 109.06 150.01 112.56C149.9 115.71 149.74 118.48 149.78 121.22C149.92 127.74 150.34 131.59 150.57 137.83C149.45 139.35 146.09 140.89 139.74 141.71C131.4 142.81 122.22 142.57 111.27 136.46C113.5 130.14 116.02 125.86 117.14 122.41L117.37 116.75L115.22 105.36C114.08 99.21 112.76 94.89 112.99 93.26C113.52 89.46 114.25 88.14 117.12 86.54C117.12 86.54 122.09 86.07 124.82 85.88L137.85 85.48Z" />
	<path id="Layer" class="shp10" d="M137.85 85.48C141.33 85.2 146.58 90.7 151.98 99.44C154.32 103.23 154.27 109.06 150.01 112.56C149.9 115.71 149.74 118.48 149.78 121.22C149.92 127.74 150.34 131.59 150.57 137.83C149.45 139.35 146.09 140.89 139.74 141.71C131.4 142.81 122.22 142.57 111.27 136.46C113.5 130.14 116.02 125.86 117.14 122.41L117.37 116.75L115.22 105.36C114.08 99.21 112.76 94.89 112.99 93.26C113.52 89.46 114.25 88.14 117.12 86.54C117.12 86.54 122.09 86.07 124.82 85.88L137.85 85.48Z" />
	<path id="Layer" class="shp12" d="M130.85 116.24C123.66 114.02 124.26 107.49 124.26 107.49C124.66 109.13 125.47 110.63 126.62 111.86C127.77 113.09 129.22 114 130.82 114.5C136.53 116.53 141.53 112.65 141.53 112.65C141.53 112.65 137.83 118.39 130.85 116.24Z" />
	<path id="Layer" class="shp11" d="M148.31 67.97C148.1 77.44 145.03 79.78 143.49 80.43C141.94 81.09 138.97 80.69 136.09 80.22L136.09 85.94C136.09 85.94 139.42 89.43 139.17 92.03C138.92 94.63 133.92 94.93 130.2 92.38C128.14 90.97 126.28 89.29 124.67 87.39C124.36 87.02 124.19 86.55 124.19 86.07L124.19 72.69C124.19 72.69 122.61 74.36 119.81 72.45C119.21 72.06 118.69 71.56 118.3 70.96C117.9 70.37 117.63 69.7 117.51 68.99C117.38 68.29 117.41 67.56 117.58 66.87C117.75 66.18 118.06 65.52 118.5 64.96C119.72 63.52 122.82 63.42 124.3 65.61C125.14 67.25 125.25 68.89 126.19 68.24C128.68 66.44 127.34 62.33 130.35 60.37C131.34 59.85 132.37 59.41 133.42 59.05C138.8 57.2 143.45 55.64 144.58 51.96C146.69 53.17 148.58 56.8 148.31 67.97Z" />
	<path id="Layer" class="shp13" d="M136.47 75.18C136.47 74.5 137.03 73.94 137.72 73.94C138.41 73.94 138.97 74.5 138.97 75.18C138.97 75.87 138.41 76.43 137.72 76.43C137.03 76.43 136.47 75.87 136.47 75.18Z" />
	<path id="Layer" class="shp5" d="M136.9 66.53C136.89 66.79 136.82 67.04 136.68 67.25C136.54 67.47 136.34 67.64 136.1 67.74C135.86 67.84 135.6 67.87 135.35 67.82C135.1 67.78 134.86 67.66 134.68 67.48C134.49 67.3 134.36 67.08 134.3 66.83C134.25 66.58 134.26 66.31 134.35 66.07C134.44 65.83 134.6 65.62 134.81 65.47C135.01 65.32 135.26 65.23 135.52 65.22C135.69 65.21 135.87 65.24 136.04 65.3C136.21 65.36 136.36 65.46 136.49 65.58C136.62 65.7 136.72 65.85 136.79 66.01C136.86 66.18 136.9 66.35 136.9 66.53Z" />
	<path id="Layer" class="shp5" d="M146.83 66.66C146.85 66.82 146.83 66.99 146.78 67.14C146.73 67.29 146.65 67.43 146.54 67.56C146.44 67.68 146.31 67.78 146.17 67.85C146.02 67.92 145.87 67.96 145.7 67.98C145.54 67.99 145.38 67.97 145.22 67.92C145.07 67.86 144.93 67.78 144.81 67.67C144.69 67.56 144.6 67.42 144.54 67.27C144.47 67.12 144.45 66.96 144.45 66.79C144.43 66.63 144.45 66.47 144.5 66.31C144.55 66.16 144.63 66.02 144.73 65.89C144.84 65.77 144.97 65.67 145.12 65.6C145.26 65.53 145.42 65.48 145.58 65.48C145.75 65.47 145.91 65.5 146.06 65.55C146.21 65.61 146.35 65.7 146.47 65.81C146.59 65.92 146.68 66.06 146.74 66.21C146.8 66.36 146.83 66.52 146.83 66.68L146.83 66.66Z" />
	<path id="Layer" fill-rule="evenodd" class="shp14" d="M135.21 69.9C134.08 69.9 132.99 69.45 132.19 68.66C131.39 67.86 130.94 66.77 130.94 65.64C130.94 62.74 133.93 62.74 135.21 62.74C136.49 62.74 139.47 62.74 139.47 65.64C139.47 66.77 139.02 67.85 138.22 68.65C137.42 69.45 136.34 69.9 135.21 69.9ZM135.21 63.41C132.59 63.41 131.61 64.07 131.61 65.64C131.61 66.6 131.99 67.51 132.67 68.19C133.35 68.87 134.26 69.25 135.22 69.25C136.18 69.25 137.1 68.87 137.77 68.19C138.45 67.51 138.83 66.6 138.83 65.64C138.8 64.03 137.79 63.41 135.21 63.41Z" />
	<path id="Layer" fill-rule="evenodd" class="shp14" d="M146.04 69.9C144.91 69.9 143.82 69.45 143.02 68.66C142.22 67.86 141.77 66.77 141.77 65.64C141.77 62.74 144.76 62.74 146.04 62.74C147.32 62.74 150.3 62.74 150.3 65.64C150.3 66.77 149.85 67.85 149.05 68.65C148.25 69.45 147.17 69.9 146.04 69.9ZM146.04 63.41C143.45 63.41 142.44 64.07 142.44 65.64C142.44 66.6 142.82 67.51 143.5 68.19C144.18 68.87 145.09 69.25 146.05 69.25C147.01 69.25 147.93 68.87 148.6 68.19C149.28 67.51 149.66 66.6 149.66 65.64C149.63 64.03 148.62 63.41 146.04 63.41Z" />
	<path id="Layer" class="shp15" d="M144.54 70.93L140.34 72.23L140.13 64.26L144.54 70.93Z" />
	<path id="Layer" class="shp15" d="M136.08 82.13C136.08 82.13 129.86 80.33 127.99 78.72C126.95 77.91 126.19 76.81 125.8 75.56C126.77 78.04 133.04 79.84 136.08 80.24L136.08 82.13Z" />
	<path id="Layer" class="shp5" d="M136.23 60.39L133.45 62.09C133.23 61.71 133.17 61.26 133.27 60.83C133.38 60.4 133.64 60.03 134.01 59.79C134.2 59.68 134.4 59.61 134.62 59.58C134.83 59.55 135.04 59.56 135.25 59.62C135.46 59.67 135.65 59.77 135.82 59.9C135.99 60.04 136.13 60.2 136.23 60.39Z" />
	<path id="Layer" class="shp5" d="M147.55 62.28L144.45 61.2C144.51 60.99 144.61 60.8 144.75 60.64C144.89 60.47 145.05 60.34 145.25 60.24C145.44 60.14 145.64 60.09 145.86 60.07C146.07 60.06 146.28 60.09 146.49 60.16C146.9 60.31 147.24 60.61 147.44 61.01C147.64 61.4 147.68 61.86 147.55 62.28Z" />
	<path id="Layer" class="shp14" d="M139.14 65.98C139.09 65.98 139.05 65.97 139.01 65.95C138.97 65.94 138.93 65.91 138.9 65.88C138.87 65.85 138.84 65.81 138.83 65.77C138.81 65.73 138.8 65.68 138.8 65.64C138.8 65.09 139.88 64.74 140.85 64.74C141.82 64.74 142.44 65.09 142.44 65.64C142.42 65.71 142.38 65.77 142.32 65.82C142.26 65.86 142.19 65.89 142.12 65.89C142.04 65.89 141.97 65.86 141.91 65.82C141.85 65.77 141.81 65.71 141.79 65.64C141.79 65.57 141.45 65.41 140.87 65.41C140.4 65.4 139.93 65.48 139.49 65.65C139.49 65.69 139.48 65.74 139.47 65.78C139.45 65.82 139.42 65.86 139.39 65.89C139.35 65.92 139.31 65.95 139.27 65.96C139.23 65.98 139.18 65.98 139.14 65.98Z" />
	<path id="Layer" class="shp14" d="M131.29 65.69L131.25 65.69L123.75 65.04C123.4 64.69 122.98 64.42 122.52 64.24L131.32 65.05C131.41 65.06 131.49 65.11 131.55 65.18C131.6 65.25 131.63 65.33 131.62 65.42C131.6 65.5 131.56 65.57 131.5 65.62C131.44 65.67 131.36 65.69 131.29 65.69Z" />
	<path id="Layer" class="shp11" d="M116.41 85.48C117.76 86.45 118.84 87.75 119.54 89.26C123.8 98.55 120.37 106.27 115.23 105.33L114.36 103.33C113.88 102.19 113.12 101.2 112.15 100.44C107.64 96.87 94.03 86.05 90.1 82.29C87.81 80.12 85.9 78.86 84.19 75.35C83.92 74.74 83.14 72.97 85.23 70.7C87.75 67.96 90.45 65.65 93.2 63.14C96.27 60.36 98.67 58.04 101.35 55.52C103.65 53.36 106.93 50.92 108.46 48.19C108.96 47.11 109.65 46.13 110.48 45.29C111.08 44.82 111.75 44.44 112.45 44.16C113.89 43.54 115.37 43.04 116.89 42.66C120.39 41.77 123.5 40.54 127.07 41.32C127.65 41.43 128.19 41.69 128.64 42.07C130.11 43.38 128.82 44.79 127.61 45.63C125.58 47.04 123.39 48.18 121.42 49.67C119.54 51.08 117.87 52.77 116.46 54.66C116.06 55.24 115.62 55.79 115.15 56.31C114.38 57.12 113.45 57.76 112.41 58.19C111.45 58.54 110.98 59.49 110.14 60.61C108.95 62.25 108.14 63.39 106.86 64.98C104.63 67.76 102.95 70.23 100.5 73.51C100.5 73.51 111.03 81.57 116.41 85.48Z" />
	<path id="Layer" class="shp15" d="M101.99 74.64C97.49 78.67 94.21 77.83 94.21 77.83C96.68 77.03 98.86 75.53 100.5 73.51L101.99 74.64Z" />
	<path id="Layer" class="shp6" d="M167.36 122.3C166.05 126.02 162.11 137.49 160.8 141.21C160.62 141.66 160.34 142.06 159.99 142.39C159.63 142.72 159.21 142.97 158.75 143.13L149.63 145.61C149.49 145.66 149.33 145.68 149.18 145.66C149.03 145.64 148.88 145.59 148.75 145.5L147.89 144.75C147.78 144.62 147.7 144.46 147.68 144.29C147.66 144.12 147.69 143.94 147.77 143.79L154.33 124.88C154.51 124.43 154.79 124.03 155.15 123.69C155.5 123.36 155.92 123.11 156.38 122.96L165.49 120.48C165.63 120.43 165.78 120.41 165.93 120.43C166.08 120.44 166.22 120.5 166.35 120.58L167.19 121.3C167.44 121.48 167.52 121.83 167.36 122.3Z" />
	<path id="Layer" class="shp2" d="M148.63 144.52L155.19 125.61C155.37 125.16 155.65 124.75 156 124.42C156.36 124.09 156.78 123.85 157.24 123.7L166.34 121.22C167.19 120.99 167.65 121.47 167.35 122.3C166.04 126.02 162.1 137.49 160.79 141.21C160.61 141.66 160.33 142.06 159.98 142.39C159.63 142.72 159.21 142.97 158.75 143.13L149.64 145.63C148.8 145.83 148.35 145.34 148.63 144.52Z" />
	<path id="Layer" class="shp6" d="M156.25 124.22C155.77 124.58 155.41 125.06 155.18 125.61L148.62 144.52C148.55 144.67 148.52 144.84 148.53 145C148.55 145.17 148.61 145.33 148.72 145.46L147.9 144.77C147.78 144.64 147.71 144.48 147.69 144.3C147.67 144.13 147.7 143.96 147.78 143.8L154.34 124.89C154.54 124.38 154.88 123.92 155.31 123.58L156.25 124.22Z" />
	<path id="Layer" class="shp15" d="M165.86 126.56C165.86 126.56 167.51 126.4 168.29 127.44C169.07 128.48 168.22 136.08 167.48 137.17C166.74 138.26 164.3 141.78 161.86 142.12C159.43 142.47 153.34 141.34 152.74 140.12C152.15 138.91 154.23 134.91 157.99 134.02C161.76 133.13 164.03 131.84 164.69 129.92L165.86 126.56Z" />
</svg>