<svg version="1.2" baseProfile="tiny-ps" xmlns="http://www.w3.org/2000/svg" viewBox="0 0 294 294" width="294" height="294">
	<title>login-svg</title>
	<style>
		tspan { white-space:pre }
		.shp0 { fill: #f5f5f5 } 
		.shp1 { fill: #ebebeb } 
		.shp2 { fill: #651d32 } 
		.shp3 { opacity: 0.2;fill: #000000 } 
		.shp4 { fill: #ffffff } 
		.shp5 { fill: #e0e0e0 } 
		.shp6 { fill: #f0f0f0 } 
		.shp7 { fill: #551326 } 
		.shp8 { fill: #b15b74 } 
		.shp9 { fill: #37474f } 
		.shp10 { opacity: 0.702;fill: #ffffff } 
		.shp11 { opacity: 0.102;fill: #000000 } 
		.shp12 { opacity: 0.2;fill: #ffffff } 
		.shp13 { fill: #ffa8a7 } 
		.shp14 { fill: #f28f8f } 
		.shp15 { opacity: 0.302;fill: #000000 } 
		.shp16 { fill: #3f686c } 
	</style>
	<path id="Layer" class="shp0" d="M73.64 158.94C114.15 139.63 179.85 139.63 220.37 158.94C260.88 178.25 260.88 209.56 220.37 228.87C179.85 248.19 114.15 248.18 73.64 228.87C33.12 209.56 33.12 178.25 73.64 158.94Z" />
	<path id="Layer" class="shp1" d="M206.71 208.16C206.71 204.61 212.76 201.72 220.22 201.72C227.69 201.72 233.74 204.61 233.74 208.16C233.74 211.72 227.69 214.6 220.22 214.6C212.76 214.6 206.71 211.72 206.71 208.16Z" />
	<path id="Layer" class="shp2" d="M76.63 191.79C76.76 187.77 80.13 187.43 81.43 189.34C82.49 190.89 82.7 193.99 81.22 198.06C80.04 201.29 78.01 204.15 75.34 206.33L70.56 209.09C74.04 205.21 76.35 199.71 76.63 191.79Z" />
	<path id="Layer" class="shp3" d="M76.63 191.79C76.76 187.77 80.13 187.43 81.43 189.34C82.49 190.89 82.7 193.99 81.22 198.06C80.04 201.29 78.01 204.15 75.34 206.33L70.56 209.09C74.04 205.21 76.35 199.71 76.63 191.79Z" />
	<path id="Layer" class="shp4" d="M70.56 209.38C70.5 209.38 70.44 209.36 70.39 209.32C70.34 209.28 70.3 209.23 70.28 209.17C70.26 209.11 70.27 209.05 70.29 208.99C70.31 208.93 70.34 208.88 70.4 208.85C81.45 201.2 79.31 190.54 79.29 190.44C79.28 190.4 79.28 190.36 79.28 190.32C79.29 190.28 79.31 190.24 79.33 190.21C79.35 190.18 79.38 190.15 79.41 190.13C79.44 190.1 79.48 190.09 79.52 190.08C79.56 190.07 79.6 190.07 79.64 190.08C79.67 190.09 79.71 190.1 79.74 190.12C79.78 190.14 79.81 190.17 79.83 190.2C79.85 190.24 79.87 190.27 79.87 190.31C79.87 190.42 82.13 201.45 70.75 209.33C70.69 209.37 70.63 209.38 70.56 209.38Z" />
	<path id="Layer" class="shp2" d="M60.98 214.62C60.98 214.62 59.32 213.27 59.72 211.43C60.12 209.6 61.19 208.28 59.35 205.92C57.51 203.55 57 200.4 59.2 198.7C60.88 197.37 63.49 199.24 64.43 195.76C65.13 193.21 64.89 187.55 68.14 185.67C71.39 183.79 73.44 186.63 72.92 190.46C72.48 193.89 71.84 197.19 72.34 198.1C73.29 199.87 74.92 199.63 74.84 202.85C74.78 205.85 71.94 208.33 71.94 208.33L60.98 214.62Z" />
	<path id="Layer" class="shp4" d="M66.44 211.75C66.37 211.74 66.3 211.72 66.25 211.67C66.19 211.62 66.16 211.56 66.15 211.49C65.31 204.52 67.33 192.49 68.97 188.91C68.99 188.87 69.01 188.84 69.04 188.81C69.07 188.78 69.1 188.75 69.14 188.74C69.18 188.72 69.22 188.71 69.26 188.72C69.31 188.72 69.35 188.73 69.38 188.75C69.42 188.76 69.45 188.79 69.48 188.81C69.5 188.84 69.52 188.88 69.54 188.91C69.55 188.95 69.56 188.99 69.55 189.03C69.55 189.06 69.54 189.1 69.53 189.14C67.9 192.66 65.95 204.73 66.76 211.39C66.76 211.47 66.74 211.55 66.69 211.61C66.64 211.67 66.57 211.71 66.5 211.72L66.44 211.75Z" />
	<path id="Layer" class="shp4" d="M66.29 206.32C66.24 206.32 66.2 206.31 66.16 206.29C64.12 205.29 62.82 201.75 62.77 201.58C62.75 201.55 62.75 201.51 62.75 201.47C62.75 201.43 62.76 201.39 62.77 201.35C62.79 201.32 62.81 201.29 62.84 201.26C62.87 201.23 62.91 201.21 62.94 201.2C62.98 201.19 63.02 201.18 63.06 201.18C63.1 201.19 63.14 201.19 63.17 201.21C63.21 201.23 63.24 201.25 63.26 201.28C63.29 201.31 63.31 201.35 63.32 201.38C63.32 201.42 64.59 204.85 66.41 205.74C66.47 205.77 66.52 205.82 66.55 205.88C66.58 205.94 66.59 206.01 66.57 206.07C66.56 206.14 66.52 206.19 66.47 206.24C66.42 206.28 66.35 206.3 66.29 206.3L66.29 206.32Z" />
	<path id="Layer" class="shp4" d="M66.25 208.67C66.19 208.67 66.13 208.65 66.08 208.62C66.04 208.58 66 208.54 65.98 208.48C65.95 208.41 65.95 208.33 65.98 208.26C66.01 208.19 66.07 208.13 66.14 208.1C69.57 206.72 71.71 202.64 71.74 202.59C71.77 202.52 71.83 202.47 71.91 202.44C71.98 202.42 72.06 202.43 72.13 202.46C72.2 202.5 72.25 202.56 72.28 202.63C72.3 202.71 72.3 202.79 72.26 202.86C72.17 203.04 70 207.19 66.38 208.65C66.34 208.66 66.29 208.67 66.25 208.67Z" />
	<path id="Layer" class="shp2" d="M186.28 177.03C186.28 177.03 183.71 172.87 183.46 168.35C183.2 163.83 184.2 161.95 185.56 161.41C186.93 160.87 187.03 162.53 187.73 163.51C188.43 164.49 189.86 163.93 190.39 160.87C190.92 157.81 192.85 152.64 196.86 151.63C201.27 150.54 198.9 155.71 197.79 157.73C196.68 159.75 195.82 162.5 196.55 163.25C197.28 163.99 198.41 162.61 199.49 163.89C200.8 165.44 196.73 171.01 194.39 172.35L186.28 177.03Z" />
	<path id="Layer" class="shp4" d="M189.8 175.29C189.76 175.29 189.72 175.28 189.69 175.26C189.65 175.25 189.62 175.22 189.6 175.19C189.57 175.17 189.55 175.13 189.54 175.1C189.52 175.06 189.52 175.02 189.52 174.98C189.92 167.71 192.19 160.66 196.1 154.52C196.13 154.49 196.16 154.46 196.19 154.44C196.22 154.42 196.26 154.41 196.3 154.4C196.33 154.39 196.37 154.4 196.41 154.41C196.45 154.41 196.49 154.43 196.52 154.46C196.58 154.5 196.62 154.57 196.63 154.65C196.64 154.72 196.63 154.8 196.58 154.86C192.73 160.91 190.5 167.85 190.11 175.01C190.11 175.05 190.1 175.09 190.08 175.12C190.07 175.16 190.04 175.19 190.01 175.22C189.99 175.24 189.95 175.26 189.91 175.27C189.88 175.29 189.84 175.29 189.8 175.29Z" />
	<path id="Layer" class="shp4" d="M190.14 171.81C190.09 171.81 190.04 171.8 189.99 171.78C188.35 170.87 187.44 168.16 187.4 168.05C187.39 168.01 187.38 167.97 187.38 167.94C187.39 167.9 187.4 167.86 187.41 167.82C187.43 167.79 187.46 167.76 187.48 167.73C187.51 167.71 187.55 167.69 187.58 167.67C187.66 167.65 187.74 167.66 187.81 167.69C187.88 167.73 187.93 167.79 187.95 167.86C187.95 167.86 188.84 170.47 190.31 171.26C190.37 171.3 190.42 171.36 190.44 171.44C190.46 171.51 190.45 171.59 190.42 171.66C190.39 171.71 190.35 171.75 190.3 171.78C190.25 171.81 190.19 171.82 190.14 171.81Z" />
	<path id="Layer" class="shp4" d="M190.42 170.03C190.36 170.03 190.29 170.01 190.24 169.97C190.19 169.93 190.16 169.87 190.14 169.81C190.13 169.77 190.13 169.73 190.13 169.69C190.14 169.66 190.15 169.62 190.17 169.59C190.19 169.56 190.22 169.53 190.25 169.5C190.28 169.48 190.32 169.47 190.35 169.46C194.6 168.38 196.07 166.16 196.08 166.13C196.1 166.1 196.13 166.07 196.16 166.05C196.19 166.03 196.23 166.01 196.27 166C196.3 166 196.34 165.99 196.38 166C196.42 166.01 196.46 166.02 196.49 166.04C196.52 166.06 196.55 166.09 196.57 166.12C196.59 166.15 196.61 166.19 196.62 166.23C196.63 166.27 196.63 166.31 196.62 166.34C196.62 166.38 196.6 166.42 196.58 166.45C196.51 166.55 194.99 168.88 190.5 170.03L190.42 170.03Z" />
	<path id="Layer" class="shp2" d="M122.28 176.65C104.21 173.11 100.86 155.06 100.78 146.74C100.7 137.25 104.41 129.11 111.08 130.19C117.75 131.26 116.06 144.57 116.37 155.96C116.67 166.52 122.3 167.9 122.3 167.9L122.28 176.65Z" />
	<path id="Layer" class="shp3" d="M122.28 176.65C104.21 173.11 100.86 155.06 100.78 146.74C100.7 137.25 104.41 129.11 111.08 130.19C117.75 131.26 116.06 144.57 116.37 155.96C116.67 166.52 122.3 167.9 122.3 167.9L122.28 176.65Z" />
	<path id="Layer" class="shp4" d="M122.3 175.56L122.25 175.56C118.19 174.82 114.88 172.58 112.41 168.91C105.11 158.02 107.41 137.67 108.17 134.12C108.19 134.05 108.23 133.98 108.3 133.94C108.36 133.9 108.44 133.88 108.52 133.89C108.59 133.91 108.66 133.96 108.7 134.02C108.74 134.09 108.76 134.17 108.75 134.25C108 137.77 105.71 157.86 112.9 168.59C113.95 170.25 115.33 171.68 116.96 172.78C118.58 173.88 120.42 174.63 122.36 174.98C122.39 174.99 122.43 175 122.46 175.03C122.5 175.05 122.53 175.07 122.55 175.11C122.57 175.14 122.58 175.18 122.59 175.21C122.6 175.25 122.6 175.29 122.59 175.33C122.58 175.4 122.54 175.46 122.49 175.5C122.44 175.54 122.37 175.57 122.3 175.56Z" />
	<path id="Layer" class="shp2" d="M122.3 202.67C116.48 203.45 107.02 203.44 101.55 199.14C96.09 194.83 97.23 191.13 99.33 189.58C101.43 188.04 103.25 186.27 99.64 182.84C96.03 179.41 90.23 173.89 88.35 165.62C86.47 157.34 87.4 152.17 91.09 150.45C94.67 148.78 95.62 151.43 97.81 156.91C100.01 162.39 104.94 157.7 109.16 159.41C113.38 161.12 113.21 164.5 113.48 167.41C113.74 170.33 115.14 171.13 117.53 171.13C119.92 171.13 122.3 172.51 122.3 175.25L122.3 202.67Z" />
	<path id="Layer" class="shp4" d="M122.3 193.06C122.28 193.06 122.25 193.06 122.23 193.06C121.97 192.99 115.95 191.24 107.17 183.17C97.82 174.59 93.41 161.71 93.36 161.58C93.34 161.51 93.35 161.43 93.38 161.36C93.42 161.29 93.48 161.24 93.55 161.21C93.62 161.19 93.7 161.19 93.77 161.23C93.84 161.26 93.9 161.32 93.92 161.39C93.96 161.52 98.33 174.26 107.57 182.74C116.22 190.69 122.32 192.48 122.39 192.49C122.42 192.5 122.46 192.52 122.49 192.55C122.52 192.57 122.54 192.6 122.56 192.63C122.58 192.67 122.59 192.71 122.6 192.74C122.6 192.78 122.6 192.82 122.59 192.86C122.57 192.92 122.53 192.97 122.48 193C122.43 193.04 122.37 193.06 122.3 193.06Z" />
	<path id="Layer" class="shp4" d="M109.62 185.22C109.56 185.22 109.5 185.2 109.45 185.17C109.41 185.14 109.37 185.09 109.35 185.03C107.46 180.19 107.03 169.82 107 169.38C107 169.3 107.03 169.23 107.08 169.17C107.13 169.11 107.2 169.08 107.28 169.07C107.36 169.07 107.43 169.1 107.49 169.16C107.54 169.21 107.58 169.28 107.59 169.36C107.59 169.46 108.03 180.06 109.88 184.82C109.89 184.86 109.9 184.9 109.9 184.93C109.9 184.97 109.89 185.01 109.87 185.05C109.86 185.08 109.84 185.12 109.81 185.14C109.78 185.17 109.75 185.19 109.71 185.2C109.68 185.21 109.65 185.22 109.62 185.22Z" />
	<path id="Layer" class="shp4" d="M109.57 192.19C109.03 192.19 108.49 192.16 107.95 192.1C107.91 192.1 107.88 192.09 107.84 192.07C107.81 192.05 107.78 192.03 107.75 191.99C107.73 191.96 107.71 191.93 107.7 191.89C107.69 191.85 107.69 191.81 107.69 191.78C107.7 191.74 107.71 191.7 107.73 191.67C107.75 191.63 107.77 191.6 107.8 191.58C107.83 191.56 107.87 191.54 107.91 191.53C107.94 191.52 107.98 191.51 108.02 191.52C108.07 191.52 113.55 192.14 116.06 189.58C116.08 189.55 116.12 189.53 116.15 189.51C116.19 189.49 116.23 189.48 116.27 189.48C116.31 189.48 116.35 189.48 116.39 189.5C116.43 189.51 116.46 189.53 116.49 189.56C116.52 189.59 116.54 189.63 116.56 189.66C116.57 189.7 116.58 189.74 116.58 189.78C116.58 189.82 116.57 189.86 116.55 189.9C116.53 189.94 116.51 189.97 116.48 190C114.66 191.87 111.49 192.19 109.57 192.19Z" />
	<path id="Layer" fill-rule="evenodd" class="shp5" d="M102.22 83.75L103.27 85.98L104.21 87.68L102.19 92.22L101.47 93.39C100.89 94.3 98.22 96.03 97.51 96.82L97.6 98.25L94.12 101L93.18 97.9C92.4 98.28 92.58 99.62 91.87 99.74L88.79 102.73L85.85 102.09L87.38 97.85C86.86 97.45 86.44 96.93 86.14 96.34L82.87 98.5L82.24 94.83L85.38 91.93C85.45 90.96 85.61 90 85.87 89.06L83.4 88.01L85.42 83.47L88.3 83.62C88.87 82.72 89.52 81.86 90.23 81.07L90 77.42L93.49 74.68L94.43 77.78C95.13 77.43 95.89 77.18 96.67 77.05L98.82 72.94L101.76 73.59L100.19 77.82C100.71 78.23 101.14 78.75 101.44 79.33L104.7 77.18L105.34 80.84L102.22 83.75ZM98.64 84C98.15 81.19 97.13 81.34 94.45 83.45C91.77 85.56 90.23 89.84 90.69 92.66C91.14 95.47 91.99 95.01 94.67 92.9C97.36 90.82 99.12 86.81 98.64 84Z" />
	<path id="Layer" class="shp0" d="M98.84 72.94L102.66 75.13L100.51 79.24L96.69 77.04L98.84 72.94Z" />
	<path id="Layer" class="shp0" d="M108.52 79.38L105.25 81.53L101.44 79.33L104.7 77.18L108.52 79.38Z" />
	<path id="Layer" class="shp5" d="M108 89.86L105.52 88.81L101.71 86.61L104.18 87.66L108 89.86Z" />
	<path id="Layer" class="shp5" d="M87.41 97.85L91.22 100.05L89.66 104.28L85.84 102.09L87.41 97.85Z" />
	<path id="Layer" class="shp5" d="M97.9 103.19L94.09 101L93.15 97.9L96.97 100.1L97.9 103.19Z" />
	<path id="Layer" fill-rule="evenodd" class="shp1" d="M106.01 85.91C105.94 86.89 105.78 87.85 105.52 88.79L108.03 89.84L106 94.37L103.12 94.23C102.55 95.13 101.9 95.99 101.19 96.78L101.42 100.43L97.93 103.17L97 100.08C96.29 100.44 95.53 100.68 94.75 100.81L92.6 104.93L89.66 104.28L91.22 100.04C90.7 99.64 90.28 99.12 89.98 98.54L86.71 100.69L86.08 97.02L89.22 94.17C89.29 93.2 89.45 92.23 89.71 91.29L87.23 90.23L89.25 85.7L92.14 85.85C92.71 84.94 93.36 84.08 94.07 83.28L93.84 79.63L97.33 76.89L98.26 79.98C98.97 79.63 99.72 79.38 100.5 79.25L102.66 75.13L105.57 75.79L104.01 80.02C104.53 80.43 104.95 80.94 105.25 81.53L108.52 79.38L109.15 83.04L106.01 85.91ZM102.47 86.22C101.98 83.41 99.42 82.84 96.74 84.94C94.06 87.05 92.27 91.04 92.76 93.85C93.25 96.66 95.81 97.23 98.49 95.13C101.17 93.02 102.95 89.03 102.47 86.22Z" />
	<path id="Layer" class="shp0" d="M93.84 79.62L90.02 77.42L93.52 74.68L97.33 76.88L93.84 79.62Z" />
	<path id="Layer" class="shp5" d="M93.84 79.62L94.07 83.27L90.25 81.07L90.02 77.42L93.84 79.62Z" />
	<path id="Layer" class="shp0" d="M89.25 85.68L85.44 83.48L88.32 83.62L92.14 85.82L89.25 85.68Z" />
	<path id="Layer" class="shp5" d="M89.25 85.68L87.23 90.2L83.42 88.01L85.44 83.48L89.25 85.68Z" />
	<path id="Layer" class="shp0" d="M86.07 97.03L82.26 94.83L85.41 91.93L89.22 94.13L86.07 97.03Z" />
	<path id="Layer" class="shp5" d="M86.71 100.69L82.89 98.5L82.26 94.83L86.07 97.03L86.71 100.69Z" />
	<path id="Layer" class="shp0" d="M102.66 75.13L98.84 72.94L101.76 73.59L105.57 75.79L102.66 75.13Z" />
	<path id="Layer" fill-rule="evenodd" class="shp5" d="M83.91 67.31C84.03 68.84 83.87 70.38 83.42 71.85L85.48 73.62L82.13 79.42L79.67 78.56C78.66 79.77 77.35 80.69 75.87 81.23L75.39 86.52L70.65 89.26L70.17 84.5C69.25 84.77 68.29 84.86 67.34 84.78L63.92 89.92L60.56 87.99L63.29 82.45C62.75 81.66 62.35 80.78 62.12 79.86L57.76 81.82L57.76 76.34L62.12 73.28C62.39 71.93 62.79 70.61 63.29 69.33L60.55 66.97L63.9 61.16L67.33 62.34C68.18 61.26 69.13 60.25 70.16 59.34L70.64 54.05L75.38 51.31L75.86 56.07C76.78 55.8 77.74 55.71 78.69 55.79L82.11 50.64L85.47 52.58L82.72 58.11C83.27 58.9 83.67 59.78 83.9 60.71L88.25 58.74L88.25 64.22L83.91 67.31ZM79.61 66.48C79.61 62.26 77.41 60.75 73.77 62.85C70.13 64.95 67.13 70.12 67.13 74.3C67.13 78.48 69.37 79.99 73.01 77.89C76.65 75.79 79.61 70.7 79.61 66.48Z" />
	<path id="Layer" class="shp0" d="M82.5 57.99L78.69 55.79L82.11 50.64L85.92 52.84L82.5 57.99Z" />
	<path id="Layer" class="shp0" d="M87.71 62.9L83.9 60.71L88.25 58.74L92.07 60.94L87.71 62.9Z" />
	<path id="Layer" class="shp5" d="M74.45 91.46L70.64 89.26L70.16 84.5L73.97 86.7L74.45 91.46Z" />
	<path id="Layer" class="shp5" d="M63.29 82.46L67.11 84.65L64.36 90.19L60.55 87.99L63.29 82.46Z" />
	<path id="Layer" fill-rule="evenodd" class="shp1" d="M87.71 69.49C87.43 70.84 87.04 72.16 86.53 73.44L89.28 75.79L85.92 81.6L82.5 80.42C81.65 81.5 80.7 82.51 79.67 83.42L79.19 88.71L74.45 91.45L73.97 86.69C73.05 86.96 72.09 87.05 71.14 86.97L67.71 92.12L64.36 90.18L67.11 84.65C66.56 83.86 66.16 82.99 65.93 82.06L61.58 84.02L61.58 78.54L65.93 75.48C66.21 74.13 66.6 72.8 67.11 71.52L64.36 69.17L67.71 63.36L71.14 64.54C71.99 63.46 72.94 62.46 73.97 61.54L74.45 56.25L79.19 53.51L79.67 58.28C80.59 58.01 81.55 57.91 82.51 58L85.93 52.85L89.28 54.79L86.54 60.32C87.08 61.11 87.48 61.99 87.71 62.92L92.07 60.97L92.07 66.44L87.71 69.49ZM76.82 80.09C80.46 77.99 83.41 72.91 83.41 68.71C83.41 64.51 80.47 62.8 76.82 64.9C73.17 67.01 70.23 72.12 70.23 76.32C70.23 80.51 73.18 82.22 76.82 80.12L76.82 80.09Z" />
	<path id="Layer" class="shp6" d="M67.33 62.35L71.14 64.55L67.71 63.36L63.9 61.15L67.33 62.35Z" />
	<path id="Layer" class="shp0" d="M67.72 63.36L64.37 69.17L60.55 66.97L63.9 61.16L67.72 63.36Z" />
	<path id="Layer" class="shp5" d="M60.55 66.96L64.36 69.16L67.11 71.52L63.29 69.33L60.55 66.96Z" />
	<path id="Layer" class="shp0" d="M62.12 73.28L65.93 75.48L61.58 78.55L57.76 76.35L62.12 73.28Z" />
	<path id="Layer" class="shp5" d="M57.76 76.35L61.58 78.55L61.58 84.03L57.76 81.83L57.76 76.35Z" />
	<path id="Layer" class="shp0" d="M74.45 56.25L70.64 54.05L75.38 51.31L79.19 53.51L74.45 56.25Z" />
	<path id="Layer" class="shp5" d="M127.09 210.76C126.74 210.76 126.39 210.67 126.07 210.5L120.95 207.56C120.82 207.52 120.72 207.44 120.64 207.34C120.57 207.23 120.53 207.1 120.53 206.98C120.53 206.85 120.57 206.72 120.64 206.62C120.72 206.51 120.82 206.43 120.95 206.39L176.24 174.5C176.55 174.34 176.9 174.26 177.26 174.26C177.61 174.26 177.96 174.34 178.28 174.5L183.39 177.44C183.51 177.48 183.61 177.56 183.69 177.67C183.76 177.77 183.8 177.9 183.8 178.03C183.8 178.16 183.76 178.28 183.69 178.39C183.61 178.49 183.51 178.57 183.39 178.62L128.11 210.53C127.8 210.69 127.44 210.77 127.09 210.76Z" />
	<path id="Layer" class="shp2" d="M184.41 56.86L184.41 175.09C184.37 175.97 184.11 176.83 183.67 177.6C183.23 178.37 182.61 179.02 181.87 179.5L132.03 208.28C130.62 209.09 129.48 208.43 129.48 206.81L129.48 88.58C129.53 87.69 129.79 86.83 130.23 86.07C130.67 85.3 131.29 84.65 132.03 84.17L181.87 55.39C183.28 54.58 184.41 55.24 184.41 56.86Z" />
	<path id="Layer" class="shp7" d="M130.23 86.04L123.06 81.93C123.49 81.15 124.11 80.5 124.86 80.03L174.71 51.27C175.5 50.87 176.37 50.66 177.25 50.66C178.14 50.66 179.01 50.87 179.8 51.27L181.87 52.45C182.54 52.89 183.11 53.47 183.54 54.14C183.98 54.82 184.26 55.58 184.38 56.38C184.17 55.11 183.13 54.66 181.87 55.39L132.03 84.17C131.28 84.63 130.66 85.27 130.23 86.04Z" />
	<path id="Layer" class="shp7" d="M122.3 84.44C122.34 83.56 122.6 82.7 123.05 81.95L130.22 86.07C129.76 86.82 129.5 87.69 129.47 88.58L129.47 206.78C129.47 208.23 130.41 208.91 131.58 208.45C130.84 208.75 130.04 208.88 129.23 208.85C128.43 208.81 127.64 208.61 126.93 208.25L124.85 207.08C124.11 206.59 123.49 205.94 123.05 205.18C122.61 204.41 122.35 203.55 122.3 202.67L122.3 84.44Z" />
	<path id="Layer" class="shp4" d="M133.4 99.92L180.52 72.72C181.36 72.24 182.04 72.64 182.04 73.61L182.04 161.11C182.02 161.64 181.86 162.16 181.6 162.62C181.33 163.08 180.96 163.47 180.52 163.76L133.42 190.95C132.57 191.44 131.89 191.05 131.89 190.07L131.89 102.56C131.91 102.04 132.07 101.52 132.33 101.06C132.59 100.6 132.96 100.21 133.4 99.92Z" />
	<path id="Layer" class="shp8" d="M157.84 74.78C157.83 75.09 157.74 75.39 157.58 75.66C157.43 75.93 157.21 76.16 156.95 76.33C156.46 76.62 156.06 76.4 156.06 75.81C156.07 75.5 156.16 75.2 156.32 74.93C156.47 74.66 156.69 74.43 156.95 74.26C157.44 73.98 157.84 74.21 157.84 74.78Z" />
	<path id="Layer" class="shp8" d="M160.48 183.58C160.41 184.81 160.06 186 159.44 187.06C158.83 188.13 157.98 189.03 156.95 189.71C155 190.84 153.42 189.92 153.42 187.67C153.49 186.44 153.84 185.25 154.45 184.18C155.07 183.12 155.92 182.21 156.95 181.54C158.9 180.41 160.49 181.33 160.48 183.58Z" />
	<path id="Layer" class="shp8" d="M150.28 84.4C150.25 85.02 150.07 85.62 149.76 86.16C149.44 86.7 149.01 87.16 148.49 87.5C147.52 88.07 146.72 87.61 146.72 86.47C146.75 85.85 146.93 85.24 147.24 84.7C147.54 84.16 147.97 83.7 148.49 83.36C149.48 82.79 150.28 83.25 150.28 84.4Z" />
	<path id="Layer" class="shp8" d="M153.27 81.76C153.49 81.4 153.79 81.09 154.16 80.86L165.92 74.06C166.6 73.65 167.19 73.94 167.19 74.7C167.16 75.13 167.03 75.54 166.81 75.91C166.59 76.28 166.28 76.59 165.92 76.82L154.16 83.62C153.47 84.03 152.88 83.74 152.88 82.97C152.91 82.55 153.04 82.13 153.27 81.76Z" />
	<path id="Layer" class="shp9" d="M126.28 103.71C126.7 103.98 127.04 104.34 127.29 104.78C127.54 105.21 127.69 105.69 127.71 106.19C127.71 107.1 127.07 107.47 126.28 107.02C125.86 106.74 125.52 106.38 125.27 105.95C125.02 105.52 124.88 105.03 124.85 104.53C124.85 103.62 125.49 103.25 126.28 103.71Z" />
	<path id="Layer" class="shp9" d="M126.28 114.75C126.7 115.02 127.04 115.39 127.29 115.82C127.54 116.25 127.69 116.73 127.71 117.23C127.71 118.14 127.07 118.51 126.28 118.06C125.86 117.79 125.52 117.42 125.27 116.99C125.02 116.56 124.88 116.07 124.85 115.58C124.85 114.66 125.49 114.29 126.28 114.75Z" />
	<path id="Layer" class="shp8" d="M125.83 103.93C126.25 104.2 126.6 104.57 126.85 105C127.09 105.43 127.24 105.91 127.27 106.41C127.27 107.32 126.63 107.69 125.83 107.24C125.42 106.97 125.07 106.6 124.82 106.17C124.57 105.74 124.42 105.25 124.4 104.76C124.4 103.84 125.04 103.49 125.83 103.93Z" />
	<path id="Layer" class="shp8" d="M125.83 114.97C126.25 115.24 126.6 115.61 126.85 116.04C127.1 116.47 127.24 116.95 127.27 117.45C127.27 118.36 126.63 118.73 125.83 118.28C125.41 118 125.07 117.64 124.82 117.21C124.57 116.78 124.42 116.29 124.4 115.8C124.4 114.88 125.04 114.51 125.83 114.97Z" />
	<path id="Layer" class="shp4" d="M191.58 163.86C191.55 164.39 191.4 164.9 191.13 165.36C190.87 165.82 190.5 166.22 190.05 166.5L184.43 169.75L142.96 193.7C142.11 194.19 141.43 193.79 141.43 192.82L141.43 105.33C141.45 104.8 141.61 104.29 141.87 103.83C142.14 103.37 142.51 102.98 142.96 102.69L184.41 78.75L190.05 75.49C190.9 75.01 191.58 75.4 191.58 76.38L191.58 163.86Z" />
	<path id="Layer" fill-rule="evenodd" class="shp2" d="M192.19 163.85C192.16 164.48 191.98 165.1 191.66 165.65C191.34 166.2 190.9 166.66 190.37 167L185 170.1L143.25 194.21C142.95 194.39 142.62 194.49 142.27 194.5C142.03 194.5 141.79 194.44 141.58 194.32C141.33 194.16 141.13 193.93 141 193.67C140.87 193.41 140.81 193.11 140.84 192.82L140.84 105.36C140.86 104.72 141.04 104.1 141.36 103.55C141.68 103 142.12 102.54 142.66 102.2L184.38 78.09L189.76 74.98C190 74.8 190.28 74.7 190.58 74.68C190.88 74.66 191.17 74.73 191.43 74.88C191.69 75.03 191.89 75.25 192.02 75.52C192.16 75.78 192.21 76.08 192.17 76.38L192.19 163.85ZM184.38 169.1L189.75 166C190.1 165.76 190.4 165.44 190.61 165.07C190.82 164.7 190.95 164.28 190.98 163.86L190.98 76.35C190.98 76.08 190.91 75.92 190.83 75.87C190.75 75.85 190.66 75.85 190.57 75.87C190.49 75.89 190.41 75.92 190.34 75.98L184.46 79.38L143.27 103.19C142.92 103.43 142.62 103.75 142.41 104.12C142.19 104.49 142.07 104.91 142.04 105.33L142.04 192.81C142.04 193.08 142.11 193.24 142.19 193.29C142.28 193.31 142.36 193.31 142.45 193.29C142.53 193.27 142.62 193.24 142.68 193.18L183.91 169.38L184.39 169.1L184.38 169.1Z" />
	<path id="Layer" class="shp2" d="M166.5 96.7C171.8 93.66 176.06 96.11 176.06 102.22C176.06 108.33 171.78 115.75 166.5 118.77C161.23 121.79 156.95 119.36 156.95 113.25C156.95 107.15 161.23 99.75 166.5 96.7Z" />
	<path id="Layer" class="shp8" d="M166.5 101.5C168.22 100.51 169.6 101.31 169.6 103.27C169.54 104.34 169.23 105.39 168.69 106.32C168.16 107.25 167.41 108.05 166.5 108.63C164.79 109.62 163.41 108.82 163.41 106.87C163.46 105.79 163.77 104.75 164.31 103.81C164.85 102.88 165.6 102.09 166.5 101.5Z" />
	<path id="Layer" class="shp8" d="M172.51 112.79C170.98 115.22 168.92 117.26 166.47 118.77C164.27 120.06 162.22 120.35 160.59 119.81L160.59 118.94C160.59 115.69 162.88 111.74 165.69 110.11L167.45 109.1C170.27 107.47 172.54 108.79 172.54 112.04L172.51 112.79Z" />
	<path id="Layer" class="shp10" d="M166.5 101.5C168.22 100.51 169.6 101.31 169.6 103.27C169.54 104.34 169.23 105.39 168.69 106.32C168.16 107.25 167.41 108.05 166.5 108.63C164.79 109.62 163.41 108.82 163.41 106.87C163.46 105.79 163.77 104.75 164.31 103.81C164.85 102.88 165.6 102.09 166.5 101.5Z" />
	<path id="Layer" class="shp10" d="M172.51 112.79C170.98 115.22 168.92 117.26 166.47 118.77C164.27 120.06 162.22 120.35 160.59 119.81L160.59 118.94C160.59 115.69 162.88 111.74 165.69 110.11L167.45 109.1C170.27 107.47 172.54 108.79 172.54 112.04L172.51 112.79Z" />
	<path id="Layer" class="shp2" d="M148.02 132.21L160.31 125.11C160.9 124.78 161.33 125.04 161.33 125.7L161.33 126.1C161.31 126.46 161.21 126.8 161.03 127.11C160.86 127.41 160.61 127.67 160.31 127.87L148.02 134.96C147.46 135.29 147 135.02 147 134.38L147 133.97C147.02 133.62 147.12 133.27 147.3 132.97C147.47 132.66 147.72 132.4 148.02 132.21Z" />
	<path id="Layer" class="shp11" d="M148.02 132.21L160.31 125.11C160.9 124.78 161.33 125.04 161.33 125.7L161.33 126.1C161.31 126.46 161.21 126.8 161.03 127.11C160.86 127.41 160.61 127.67 160.31 127.87L148.02 134.96C147.46 135.29 147 135.02 147 134.38L147 133.97C147.02 133.62 147.12 133.27 147.3 132.97C147.47 132.66 147.72 132.4 148.02 132.21Z" />
	<path id="Layer" class="shp2" d="M147.51 140.77L184.71 119.3C184.99 119.14 185.21 119.26 185.21 119.59L185.21 123.93C185.2 124.11 185.15 124.28 185.06 124.43C184.98 124.59 184.85 124.72 184.71 124.81L147.51 146.29C147.23 146.45 147 146.32 147 146L147 141.66C147.01 141.48 147.06 141.31 147.15 141.15C147.24 141 147.36 140.87 147.51 140.77Z" />
	<path id="Layer" class="shp12" d="M147.51 140.77L184.71 119.3C184.99 119.14 185.21 119.26 185.21 119.59L185.21 123.93C185.2 124.11 185.15 124.28 185.06 124.43C184.98 124.59 184.85 124.72 184.71 124.81L147.51 146.29C147.23 146.45 147 146.32 147 146L147 141.66C147.01 141.48 147.06 141.31 147.15 141.15C147.24 141 147.36 140.87 147.51 140.77Z" />
	<path id="Layer" class="shp2" d="M148.02 151.51L160.31 144.41C160.9 144.09 161.33 144.35 161.33 145L161.33 145.41C161.31 145.76 161.21 146.1 161.03 146.41C160.86 146.72 160.61 146.98 160.31 147.17L148.02 154.27C147.46 154.6 147 154.33 147 153.68L147 153.27C147.02 152.92 147.12 152.58 147.3 152.27C147.48 151.97 147.72 151.7 148.02 151.51Z" />
	<path id="Layer" class="shp11" d="M148.02 151.51L160.31 144.41C160.9 144.09 161.33 144.35 161.33 145L161.33 145.41C161.31 145.76 161.21 146.1 161.03 146.41C160.86 146.72 160.61 146.98 160.31 147.17L148.02 154.27C147.46 154.6 147 154.33 147 153.68L147 153.27C147.02 152.92 147.12 152.58 147.3 152.27C147.48 151.97 147.72 151.7 148.02 151.51Z" />
	<path id="Layer" class="shp2" d="M147.51 160.08L184.71 138.6C184.99 138.44 185.21 138.57 185.21 138.9L185.21 143.24C185.2 143.41 185.15 143.58 185.06 143.74C184.98 143.89 184.85 144.02 184.71 144.12L147.51 165.59C147.23 165.76 147 165.63 147 165.3L147 160.96C147.01 160.78 147.06 160.61 147.15 160.46C147.24 160.3 147.36 160.17 147.51 160.08Z" />
	<path id="Layer" class="shp12" d="M147.51 160.08L184.71 138.6C184.99 138.44 185.21 138.57 185.21 138.9L185.21 143.24C185.2 143.41 185.15 143.58 185.06 143.74C184.98 143.89 184.85 144.02 184.71 144.12L147.51 165.59C147.23 165.76 147 165.63 147 165.3L147 160.96C147.01 160.78 147.06 160.61 147.15 160.46C147.24 160.3 147.36 160.17 147.51 160.08Z" />
	<path id="Layer" class="shp2" d="M162.35 162.54L177.05 154.07C177.63 153.74 178.07 154 178.07 154.66L178.07 159.19C178.05 159.55 177.95 159.89 177.77 160.2C177.59 160.51 177.34 160.77 177.05 160.96L162.35 169.44C161.76 169.76 161.33 169.5 161.33 168.85L161.33 164.31C161.35 163.95 161.45 163.61 161.63 163.3C161.81 163 162.05 162.74 162.35 162.54Z" />
	<path id="Layer" class="shp11" d="M162.35 162.54L177.05 154.07C177.63 153.74 178.07 154 178.07 154.66L178.07 159.19C178.05 159.55 177.95 159.89 177.77 160.2C177.59 160.51 177.34 160.77 177.05 160.96L162.35 169.44C161.76 169.76 161.33 169.5 161.33 168.85L161.33 164.31C161.35 163.95 161.45 163.61 161.63 163.3C161.81 163 162.05 162.74 162.35 162.54Z" />
	<path id="Layer" class="shp13" d="M197.17 143.38C197.17 143.38 205.45 135.84 209.61 132.21C210.89 131.09 212.57 131.68 213.24 131.85C213.77 131.99 214.17 132.09 214.41 132.14L226.53 134.1C225.75 137.79 223.33 143.06 222.81 144.35L224.74 147.51C224.74 147.51 223.43 149.15 219.57 150.25C215.71 151.34 211 149.07 211 149.07C211 149.07 210.01 143.86 209.83 142.4C209.78 141.99 209.72 141.57 209.63 141.17C209.37 140.02 208.88 140.2 207.35 141.48C206.88 141.88 197.59 149.88 196.45 149.84C195.32 149.81 194.57 148.53 194.18 147.91C193.79 147.29 188.04 136.9 187.4 135.88C186.76 134.86 186.32 134.6 185.24 133.85C184.25 133.14 183.41 132.25 182.76 131.22C182.62 130.98 182.57 130.71 182.62 130.44C182.67 130.17 182.82 129.93 183.04 129.77C183.39 129.47 183.14 128.84 183.39 128.45C183.72 127.95 184.31 127.93 184.2 127.69C183.84 127.05 183.45 126.43 183.03 125.84C182.3 124.73 181.97 123.98 182.41 123.63C183.03 123.15 183.66 123.94 184.66 125.23C185.67 126.53 187.59 129.33 187.84 129.13C188.09 128.93 188.26 127.71 188.75 127.1C189.24 126.48 190.1 126.35 189.92 127.02C189.82 127.38 189.72 128.75 189.62 129.37C189.51 129.99 189.18 131.32 189.51 132.21C189.94 133.42 197.16 143.38 197.16 143.38" />
	<path id="Layer" class="shp7" d="M224.38 204.41C224.52 205.5 225.03 206.77 224.7 207.48C224.63 207.6 224.1 208.26 222.15 208.19C221.06 208.21 219.99 207.98 219 207.52L221.17 204.5L224.38 204.41Z" />
	<path id="Layer" class="shp7" d="M222.8 206.69C223.09 207.6 223.33 208.53 223.53 209.46C223.6 210.12 223.22 210.48 222.32 210.79C221.51 211.07 220.55 210.55 219.16 210.15C217.77 209.75 216.17 209.43 214.83 208.97C213.27 208.45 212.26 207.83 211.84 207.08C211.41 206.34 212.86 205.45 214.67 205.68C216.49 205.9 219.12 206.07 219.12 206.07L222.8 206.69Z" />
	<path id="Layer" class="shp14" d="M224.7 201.47C224.7 201.47 224.38 204.21 224.35 204.8C224.33 205.39 221.68 205.58 221.17 204.5L221.09 201.15L224.7 201.47Z" />
	<path id="Layer" class="shp13" d="M222.03 203.15L222.98 207.32C222.98 207.32 223.07 207.82 220.91 208.15C218.74 208.47 215.34 207.01 214.76 206.72C214.18 206.42 214.11 205.83 216.24 205.95C218.37 206.06 219.12 206.07 219.12 206.07L218.43 204.23L222.03 203.15Z" />
	<path id="Layer" class="shp14" d="M226.49 134.06L227.99 133.65C227.99 133.65 231.13 143.57 231.47 144.53C231.82 145.48 232.21 146.49 231.54 147.68C230.73 149.08 226.49 154.73 226.49 154.73L223.8 152.1L226.86 146.5L224.15 141.03L226.49 134.06Z" />
	<path id="Layer" class="shp7" d="M211.09 121.18C210.74 120.52 210.56 119.78 210.57 119.03C210.59 118.29 210.78 117.56 211.16 116.91C212.65 114.14 215.98 112.79 219.94 113.3C221.78 113.54 223.94 115.07 225.12 117.34C226.43 119.86 226.55 124.94 226.89 126.87L211.09 121.18Z" />
	<path id="Layer" class="shp13" d="M211 124.52C210.72 124.47 210.45 124.37 210.21 124.23C210.04 124.06 210.99 122.27 210.99 122.27L211 124.52Z" />
	<path id="Layer" class="shp13" d="M217.04 115.87C218.15 115.91 219.23 116.22 220.18 116.78C222.06 117.96 222.32 121.79 221.05 124.43C219.98 126.67 217 128.14 215.96 128.38C214.93 128.63 212.51 128.79 212.1 128.47C211.49 127.99 210.9 126.63 210.98 122.52C211.06 118.49 212.82 117.27 213.84 116.6C214.83 116.09 215.93 115.84 217.04 115.87Z" />
	<path id="Layer" class="shp2" d="M224.7 147.48C226.51 150.31 228.23 152.77 228.61 155.96C229.38 162.66 226.84 170.31 226.3 175.27C227.33 176.68 227.92 178.36 228 180.1C228 182.16 224.7 201.47 224.7 201.47C224.7 201.47 222.31 202.2 221.09 201.15L218.82 165.62L220 161.29L224.7 147.48Z" />
	<path id="Layer" class="shp3" d="M224.7 147.48C226.51 150.31 228.23 152.77 228.61 155.96C229.38 162.66 226.84 170.31 226.3 175.27C227.33 176.68 227.92 178.36 228 180.1C228 182.16 224.7 201.47 224.7 201.47C224.7 201.47 222.31 202.2 221.09 201.15L218.82 165.62L220 161.29L224.7 147.48Z" />
	<path id="Layer" class="shp7" d="M218.82 165.62L220 161.29C222.25 160.7 224.42 159.83 226.47 158.72C226.47 158.72 225.25 160.95 221.73 162.17L219.91 167.73L219.76 180.46L218.82 165.62Z" />
	<path id="Layer" class="shp15" d="M218.82 165.62L220 161.29C222.25 160.7 224.42 159.83 226.47 158.72C226.47 158.72 225.25 160.95 221.73 162.17L219.91 167.73L219.76 180.46L218.82 165.62Z" />
	<path id="Layer" class="shp2" d="M224.7 147.48C225.67 149.07 227.99 151.78 227.5 154.38C226.91 157.53 225.2 159.75 220.02 161.29L215.15 178.93C215.15 178.93 217.68 181.28 218.46 183.56C219.24 185.83 222.03 203.17 222.03 203.17C222.03 203.17 221.16 204.58 218.43 204.24C218.43 204.24 208.9 182.49 208.23 181.07C207.41 179.63 207.13 177.96 207.42 176.34C207.72 174.05 210.95 149.08 210.95 149.08L224.7 147.48Z" />
	<path id="Layer" class="shp3" d="M224.7 147.48C225.67 149.07 227.99 151.78 227.5 154.38C226.91 157.53 225.2 159.75 220.02 161.29L215.15 178.93C215.15 178.93 217.68 181.28 218.46 183.56C219.24 185.83 222.03 203.17 222.03 203.17C222.03 203.17 221.16 204.58 218.43 204.24C218.43 204.24 208.9 182.49 208.23 181.07C207.41 179.63 207.13 177.96 207.42 176.34C207.72 174.05 210.95 149.08 210.95 149.08L224.7 147.48Z" />
	<path id="Layer" class="shp2" d="M222.75 144.34L224.69 147.49C224.69 147.49 223.38 149.13 219.52 150.23C215.66 151.33 210.95 149.06 210.95 149.06C210.95 149.06 209.96 143.85 209.78 142.39C209.72 141.93 209.65 141.52 209.57 141.16C212.69 139.41 213.2 131.82 213.2 131.82C213.73 131.95 214.13 132.05 214.38 132.11L226.49 134.06C225.73 137.76 223.29 143.03 222.75 144.34Z" />
	<path id="Layer" class="shp10" d="M222.75 144.34L224.69 147.49C224.69 147.49 223.38 149.13 219.52 150.23C215.66 151.33 210.95 149.06 210.95 149.06C210.95 149.06 209.96 143.85 209.78 142.39C209.72 141.93 209.65 141.52 209.57 141.16C212.69 139.41 213.2 131.82 213.2 131.82C213.73 131.95 214.13 132.05 214.38 132.11L226.49 134.06C225.73 137.76 223.29 143.03 222.75 144.34Z" />
	<path id="Layer" class="shp16" d="M222.77 144.33C221.39 145.12 219.84 145.54 218.26 145.58C220 144.89 221.69 144.06 223.3 143.09L222.77 144.33Z" />
	<path id="Layer" class="shp7" d="M220.74 115.01C225.34 116.04 225.89 122.47 226.86 126.81C227.91 131.54 230.17 135.75 228.47 138.13C225.4 142.41 218.87 141.69 216.26 139.65C213.66 137.61 214.27 132.56 214.38 130.24C214.49 127.92 214.7 125.16 214.7 125.16C215.04 125.25 215.4 125.25 215.73 125.14C216.07 125.04 216.37 124.84 216.6 124.57C217.51 123.62 217.44 121.92 216.15 121.63C214.86 121.35 214.34 122.87 214.34 122.87C212.96 120.62 213.54 116.8 213.54 116.8C213.54 116.8 216.13 113.97 220.74 115.01Z" />
	<path id="Layer" class="shp1" d="M232.99 65.23C232.99 66.36 231.85 67.94 230.44 68.75L211.63 79.6C210.22 80.42 209.08 80.15 209.08 79.02C209.08 77.88 210.22 76.3 211.63 75.49L212.15 75.19C212.09 74.94 212.07 74.7 212.07 74.45C212.13 73.38 212.44 72.33 212.97 71.41C213.51 70.48 214.26 69.69 215.16 69.1C215.65 68.78 216.25 68.64 216.84 68.71C216.84 68.58 216.84 68.45 216.84 68.32C216.92 66.88 217.34 65.48 218.06 64.23C218.78 62.98 219.79 61.92 220.99 61.13C223.29 59.81 225.15 60.88 225.15 63.53C225.53 63.06 226 62.66 226.51 62.35C228.22 61.35 229.6 62.15 229.6 64.12C229.59 64.47 229.55 64.82 229.47 65.17L230.44 64.58C231.84 63.76 232.99 64.09 232.99 65.23Z" />
</svg>