<svg version="1.2" baseProfile="tiny-ps" xmlns="http://www.w3.org/2000/svg" viewBox="0 0 218 218" width="218" height="218">
	<title>no-address-svg</title>
	<style>
		tspan { white-space:pre }
		.shp0 { fill: #e0e0e0 } 
		.shp1 { fill: #e6e6e6 } 
		.shp2 { fill: #f5f5f5 } 
		.shp3 { fill: #f0f0f0 } 
		.shp4 { fill: #fafafa } 
		.shp5 { fill: #ebebeb } 
		.shp6 { fill: #9f5b53 } 
		.shp7 { fill: #651d32 } 
		.shp8 { opacity: 0.302;fill: #000000 } 
		.shp9 { fill: #8a4743 } 
		.shp10 { fill: #551326 } 
		.shp11 { opacity: 0.6;fill: #fafafa } 
		.shp12 { opacity: 0.4;fill: #fafafa } 
		.shp13 { fill: #3f686c } 
		.shp14 { fill: #892b29 } 
		.shp15 { fill: #263238 } 
		.shp16 { opacity: 0.2;fill: #b54163 } 
		.shp17 { opacity: 0.2;fill: #000000 } 
		.shp18 { mix-blend-mode: color-dodge;fill: #fafafa } 
	</style>
	<path id="Layer" class="shp0" d="M218 166.84L0 166.84L0 166.73L218 166.73L218 166.84Z" />
	<path id="Layer" class="shp0" d="M75.14 169.47L70.57 169.47L70.57 169.36L75.14 169.36L75.14 169.47Z" />
	<path id="Layer" class="shp0" d="M203.26 172.33L186.72 172.33L186.72 172.22L203.26 172.22L203.26 172.33Z" />
	<path id="Layer" class="shp0" d="M151.73 169.52L138.36 169.52L138.36 169.41L151.73 169.41L151.73 169.52Z" />
	<path id="Layer" class="shp0" d="M105.72 172.01L82.45 172.01L82.45 171.9L105.72 171.9L105.72 172.01Z" />
	<path id="Layer" class="shp0" d="M60.9 171.32L52.9 171.32L52.9 171.21L60.9 171.21L60.9 171.32Z" />
	<path id="Layer" class="shp0" d="M184.61 172.33L177.96 172.33L177.96 172.22L184.61 172.22L184.61 172.33Z" />
	<path id="Layer" class="shp0" d="M50.36 171.27L28.31 171.27L28.31 171.16L50.36 171.16L50.36 171.27Z" />
	<path id="Layer" fill-rule="evenodd" class="shp0" d="M103.33 147.28L19.14 147.28C18.49 147.28 17.85 147.02 17.39 146.55C16.92 146.08 16.66 145.45 16.66 144.79L16.66 26.45C16.67 25.79 16.93 25.16 17.39 24.7C17.86 24.24 18.49 23.98 19.14 23.98L103.33 23.98C103.99 23.98 104.63 24.24 105.09 24.71C105.56 25.18 105.82 25.81 105.82 26.47L105.82 144.79C105.82 145.45 105.56 146.09 105.09 146.55C104.63 147.02 103.99 147.28 103.33 147.28ZM19.14 24.07C18.51 24.07 17.91 24.32 17.46 24.77C17.02 25.21 16.77 25.82 16.77 26.45L16.77 144.79C16.77 145.42 17.02 146.03 17.46 146.47C17.91 146.92 18.51 147.17 19.14 147.17L103.33 147.17C103.96 147.17 104.57 146.92 105.01 146.47C105.46 146.03 105.71 145.42 105.71 144.79L105.71 26.45C105.71 25.82 105.46 25.21 105.01 24.77C104.57 24.32 103.96 24.07 103.33 24.07L19.14 24.07Z" />
	<path id="Layer" fill-rule="evenodd" class="shp0" d="M197.64 147.28L113.45 147.28C112.79 147.28 112.16 147.02 111.69 146.55C111.23 146.08 110.96 145.45 110.96 144.79L110.96 26.45C110.97 25.79 111.23 25.16 111.7 24.7C112.17 24.24 112.8 23.98 113.45 23.98L197.64 23.98C198.3 23.98 198.93 24.24 199.39 24.7C199.85 25.17 200.12 25.79 200.12 26.45L200.12 144.79C200.12 145.45 199.86 146.08 199.4 146.55C198.93 147.01 198.3 147.28 197.64 147.28ZM113.45 24.07C112.82 24.07 112.22 24.32 111.77 24.77C111.32 25.21 111.07 25.82 111.07 26.45L111.07 144.79C111.07 145.42 111.32 146.03 111.77 146.47C112.22 146.92 112.82 147.17 113.45 147.17L197.64 147.17C198.27 147.17 198.88 146.92 199.32 146.47C199.77 146.03 200.02 145.42 200.02 144.79L200.02 26.45C200.02 25.82 199.77 25.21 199.32 24.77C198.88 24.32 198.27 24.07 197.64 24.07L113.45 24.07Z" />
	<path id="Layer" class="shp1" d="M84.44 166.78L32.31 166.78L32.31 51.5L84.44 51.5L84.44 166.78Z" />
	<path id="Layer" class="shp2" d="M84.44 166.78L34.78 166.78L34.78 51.5L84.44 51.5L84.44 166.78Z" />
	<path id="Layer" class="shp3" d="M37.4 164.17L37.4 54.12L81.82 54.12L81.82 164.17L37.4 164.17Z" />
	<path id="Layer" class="shp1" d="M81.14 164.16L81.14 54.11L81.82 54.11L81.82 164.16L81.14 164.16Z" />
	<path id="Layer" class="shp1" d="M73.66 104.37C73.66 103.14 74.66 102.15 75.89 102.15C77.12 102.15 78.12 103.14 78.12 104.37C78.12 105.6 77.12 106.6 75.89 106.6C74.66 106.6 73.66 105.6 73.66 104.37Z" />
	<path id="Layer" class="shp4" d="M74.53 103.91C74.53 102.68 75.53 101.68 76.76 101.68C77.99 101.68 78.99 102.68 78.99 103.91C78.99 105.14 77.99 106.14 76.76 106.14C75.53 106.14 74.53 105.14 74.53 103.91Z" />
	<path id="Layer" class="shp0" d="M194.13 105.5L158.84 105.5L158.84 39.21L194.13 39.21L194.13 105.5Z" />
	<path id="Layer" class="shp2" d="M195.64 105.5L160.35 105.5L160.35 39.21L195.64 39.21L195.64 105.5Z" />
	<path id="Layer" class="shp4" d="M163.06 102.58L163.06 42.13L192.93 42.13L192.93 102.58L163.06 102.58Z" />
	<path id="Layer" class="shp0" d="M191.8 102.58L191.8 42.13L192.93 42.13L192.93 102.58L191.8 102.58Z" />
	<path id="Layer" class="shp2" d="M194.52 88.99L161.47 88.99L161.47 85.07L194.52 85.07L194.52 88.99Z" />
	<path id="Layer" class="shp0" d="M150.62 105.5L115.33 105.5L115.33 39.21L150.62 39.21L150.62 105.5Z" />
	<path id="Layer" class="shp2" d="M152.13 105.5L116.84 105.5L116.84 39.21L152.13 39.21L152.13 105.5Z" />
	<path id="Layer" class="shp4" d="M119.55 102.57L119.55 42.13L149.42 42.13L149.42 102.57L119.55 102.57Z" />
	<path id="Layer" class="shp0" d="M148.28 102.58L148.28 42.13L149.42 42.13L149.42 102.58L148.28 102.58Z" />
	<path id="Layer" class="shp2" d="M151.01 88.99L117.96 88.99L117.96 85.07L151.01 85.07L151.01 88.99Z" />
	<path id="Layer" class="shp0" d="M69.54 46.43L69.15 46.82L49.68 46.82L49.68 39.21L69.54 46.43Z" />
	<path id="Layer" class="shp2" d="M49.68 39.21L68.79 39.21L69.54 46.43L50.43 46.43L49.68 39.21Z" />
	<path id="Layer" class="shp5" d="M89.51 100.25L97.75 100.25L97.75 108.49L89.51 108.49L89.51 100.25Z" />
	<path id="Layer" class="shp0" d="M89.51 108.49L89.23 108.49L89.23 100.25L89.51 100.25L89.51 108.49Z" />
	<path id="Layer" class="shp0" d="M96.98 106.92L96.68 107.22L90.55 107.22L90.55 101.57L96.98 106.92Z" />
	<path id="Layer" class="shp4" d="M90.55 101.57L96.43 101.57L96.98 106.92L91.11 106.92L90.55 101.57Z" />
	<path id="Layer" class="shp3" d="M101.28 119.29L105.42 115.55L109.56 119.29L109.56 166.84L101.28 166.84L101.28 119.29Z" />
	<path id="Layer" class="shp3" d="M115.63 119.29L119.77 115.55L123.91 119.29L123.91 166.84L115.63 166.84L115.63 119.29Z" />
	<path id="Layer" class="shp3" d="M129.97 119.29L134.11 115.55L138.25 119.29L138.25 166.84L129.97 166.84L129.97 119.29Z" />
	<path id="Layer" class="shp3" d="M144.32 119.29L148.46 115.55L152.6 119.29L152.6 166.84L144.32 166.84L144.32 119.29Z" />
	<path id="Layer" class="shp3" d="M158.66 119.29L162.81 115.55L166.94 119.29L166.94 166.84L158.66 166.84L158.66 119.29Z" />
	<path id="Layer" class="shp3" d="M173.01 119.29L177.15 115.55L181.29 119.29L181.29 166.84L173.01 166.84L173.01 119.29Z" />
	<path id="Layer" class="shp3" d="M187.36 119.29L191.5 115.55L195.64 119.29L195.64 166.84L187.36 166.84L187.36 119.29Z" />
	<path id="Layer" class="shp3" d="M105.42 126.21L191.5 126.21L191.5 128.32L105.42 128.32L105.42 126.21Z" />
	<path id="Layer" class="shp3" d="M105.42 151.18L191.5 151.18L191.5 153.29L105.42 153.29L105.42 151.18Z" />
	<path id="Layer" class="shp2" d="M24.46 181.48C24.46 178.75 62.31 176.54 109 176.54C155.69 176.54 193.54 178.75 193.54 181.48C193.54 184.21 155.69 186.42 109 186.42C62.31 186.42 24.46 184.21 24.46 181.48Z" />
	<path id="Layer" class="shp6" d="M153.45 82.75L153.68 82.95L153.95 83.16C154.13 83.31 154.33 83.46 154.52 83.6C154.91 83.88 155.32 84.16 155.74 84.41C156.56 84.94 157.43 85.41 158.32 85.82C159.22 86.22 160.14 86.57 161.07 86.87C161.55 87 162.01 87.16 162.5 87.25L163.22 87.41L163.31 87.41C163.31 87.41 163.31 87.41 163.29 87.41C163.26 87.41 163.24 87.46 163.29 87.41C163.38 87.31 163.45 87.2 163.5 87.08C163.66 86.7 163.78 86.29 163.85 85.88C164 84.91 164.08 83.92 164.09 82.94C164.09 81.92 164.09 80.89 164.03 79.85C163.97 78.82 163.9 77.77 163.81 76.75L165.34 76.47C165.87 78.57 166.22 80.71 166.4 82.86C166.51 83.98 166.51 85.11 166.4 86.24C166.34 86.87 166.21 87.5 165.99 88.1C165.86 88.47 165.66 88.82 165.42 89.14C165.11 89.56 164.68 89.87 164.19 90.05C163.81 90.19 163.41 90.24 163.01 90.2L162.83 90.18L162.72 90.18L161.89 90.04C161.33 89.96 160.79 89.81 160.23 89.69C159.14 89.42 158.07 89.06 157.03 88.62C156 88.18 154.99 87.66 154.03 87.07C153.54 86.78 153.07 86.46 152.61 86.12C152.38 85.95 152.16 85.78 151.93 85.59C151.81 85.5 151.71 85.4 151.59 85.3C151.48 85.2 151.38 85.12 151.23 84.98L153.45 82.75Z" />
	<path id="Layer" class="shp7" d="M149.07 80.92C153.49 80.32 157.06 83.89 157.06 83.89L153.76 89.49C153.76 89.49 148.68 87.35 147.91 85.46C147.12 83.49 146.81 81.22 149.07 80.92Z" />
	<path id="Layer" class="shp8" d="M149.07 80.92C153.49 80.32 157.06 83.89 157.06 83.89L153.76 89.49C153.76 89.49 148.68 87.35 147.91 85.46C147.12 83.49 146.81 81.22 149.07 80.92Z" />
	<path id="Layer" class="shp6" d="M164.23 77.57L161.81 75.34L165.4 73.94C165.4 73.94 166.53 75.86 165.62 77.77L164.23 77.57Z" />
	<path id="Layer" class="shp6" d="M161.32 72.14L164.18 71.59L165.4 73.94L161.81 75.34L161.32 72.14Z" />
	<path id="Layer" class="shp6" d="M137.12 169.66L140.68 170.01L136.97 178.49L133.42 178.14L137.12 169.66Z" />
	<path id="Layer" class="shp6" d="M116.26 159.28L118.94 161.78L113.17 168.13L110.5 165.61L116.26 159.28Z" />
	<path id="Layer" class="shp7" d="M114.52 167.57C114.26 168.81 114.08 170.39 114.96 173.21C115.15 173.85 113.77 174.51 113.02 173.16C112.27 171.81 111.21 169.56 110.67 168.59C109.78 167 109.38 166.43 108.65 165.18C108.61 165.11 108.58 165.03 108.58 164.94C108.57 164.86 108.58 164.78 108.61 164.7C108.64 164.62 108.68 164.55 108.74 164.49C108.79 164.43 108.86 164.38 108.94 164.35L112.03 163.17C112.1 163.14 112.17 163.14 112.24 163.17C112.3 163.19 112.36 163.24 112.39 163.3L114.4 166.92C114.52 167.12 114.56 167.35 114.52 167.57Z" />
	<path id="Layer" class="shp7" d="M138.08 177.63C138.99 178.49 140.7 179.4 143.67 180.06C144.32 180.19 143.99 181.8 142.39 181.8L136.52 181.8C134.6 181.8 133.87 181.8 132.33 181.8C132.25 181.8 132.16 181.78 132.08 181.75C132.01 181.71 131.94 181.66 131.89 181.59C131.84 181.52 131.8 181.44 131.78 181.36C131.77 181.28 131.77 181.19 131.79 181.11L132.74 177.65C132.76 177.58 132.81 177.51 132.87 177.46C132.93 177.41 133.01 177.39 133.09 177.39L137.45 177.39C137.68 177.38 137.91 177.47 138.08 177.63Z" />
	<path id="Layer" class="shp9" d="M140.68 170.02L138.77 174.38L135.06 174.38L137.12 169.67L140.68 170.02Z" />
	<path id="Layer" class="shp9" d="M116.26 159.28L118.94 161.79L115.96 165.05L113.29 162.54L116.26 159.28Z" />
	<path id="Layer" class="shp7" d="M152.85 81.33C152.85 81.33 154.45 82.03 149.09 103.27L134.18 101.96C134.96 95.91 135.29 92.17 133.46 79.47C135.59 79.22 137.72 79.13 139.86 79.19C142.13 79.22 144.39 79.43 146.63 79.79C148.73 80.2 150.81 80.71 152.85 81.33Z" />
	<path id="Layer" class="shp8" d="M152.85 81.33C152.85 81.33 154.45 82.03 149.09 103.27L134.18 101.96C134.96 95.91 135.29 92.17 133.46 79.47C135.59 79.22 137.72 79.13 139.86 79.19C142.13 79.22 144.39 79.43 146.63 79.79C148.73 80.2 150.81 80.71 152.85 81.33Z" />
	<path id="Layer" class="shp4" d="M145.19 82.98C144.11 83.91 143.19 85 142.47 86.22C139.25 83.57 137.42 80.04 138.02 79.11C139.02 79.11 139.86 79.2 139.86 79.2L145.19 82.98Z" />
	<path id="Layer" class="shp4" d="M146.63 79.79C147.06 79.82 147.49 79.88 147.91 79.99C148.51 80.92 149.67 84.2 147.91 86.22C147.19 85 146.27 83.91 145.19 82.98L146.63 79.79Z" />
	<path id="Layer" class="shp4" d="M145.67 85.35C145.67 85.61 145.6 85.83 145.47 85.84C145.34 85.85 145.24 85.64 145.22 85.37C145.2 85.11 145.29 84.89 145.42 84.88C145.54 84.88 145.66 85.08 145.67 85.35Z" />
	<path id="Layer" class="shp4" d="M145.62 87.37C145.62 87.63 145.51 87.84 145.38 87.84C145.26 87.84 145.17 87.62 145.17 87.35C145.18 87.09 145.28 86.88 145.41 86.88C145.54 86.88 145.65 87.1 145.62 87.37Z" />
	<path id="Layer" class="shp6" d="M145.04 75.55C144.47 77.2 144.25 79 146.63 79.79C146.63 79.79 147.78 81.2 145.19 82.98C143.26 81.96 141.48 80.69 139.89 79.2C141.51 77.88 141.43 73.85 141.19 71.64L145.04 75.55Z" />
	<path id="Layer" class="shp9" d="M142.76 73.25L145.04 75.56C144.9 75.94 144.8 76.34 144.73 76.74C143.81 76.53 142.49 75.58 142.47 74.6C142.49 74.13 142.59 73.68 142.76 73.25Z" />
	<path id="Layer" class="shp10" d="M148.45 63.06C149.56 65.29 149.96 69.15 148.49 68.61C147.96 67.45 145.54 65.08 145.54 65.08C145.54 65.08 146.5 64.8 148.45 63.06Z" />
	<path id="Layer" class="shp6" d="M139.21 65.67C139.42 64.84 139.83 64.08 140.41 63.46C140.99 62.84 141.72 62.38 142.53 62.12C143.34 61.85 144.2 61.81 145.03 61.97C148.82 62.71 150.35 67.92 150.21 71.29C150.07 75.04 145.92 76.95 142.66 74.72C140.48 73.24 140.17 71.72 139.25 68.18C139.02 67.36 139.01 66.49 139.21 65.67Z" />
	<path id="Layer" class="shp10" d="M143.66 64.07C144.22 65.28 141.48 66.29 140.61 65.82C140.98 68.09 136.19 69.19 135.9 66.74C133.81 66.36 134.19 64.24 136.33 62.94C134.55 62.46 135.68 59.51 137.83 59.37C137.24 57.45 139.9 56.19 141.78 57.43C143.41 55.2 146.43 56.45 146.58 57.86C149.63 57.7 148.73 60.67 147.89 60.75C150.51 62.38 148.89 63.9 147.27 63.66C147.27 64.69 144.54 65.21 143.66 64.07Z" />
	<path id="Layer" class="shp10" d="M140.66 65.5C141.19 67.94 140.66 71.77 139.35 70.9C139.12 69.65 137.34 66.77 137.34 66.77C137.34 66.77 138.32 66.71 140.66 65.5Z" />
	<path id="Layer" class="shp6" d="M138.78 70.81C138.77 70.61 138.81 70.41 138.89 70.23C138.98 70.05 139.11 69.89 139.27 69.77C139.43 69.65 139.62 69.58 139.82 69.55C140.72 69.46 141.44 70.52 141.66 71.3C141.89 72.15 141.42 72.95 140.52 72.68C139.85 72.47 139.28 72 138.95 71.37C138.85 71.2 138.79 71.01 138.78 70.81Z" />
	<path id="Layer" class="shp7" d="M149.09 103.27C149.09 103.27 154.13 125.58 150.76 141.3C148.51 151.84 140.38 173.13 140.38 173.13L134.02 172.97C134.02 172.97 140.17 150.63 141.43 141.85C143.61 126.83 138.15 102.33 138.15 102.33L149.09 103.27Z" />
	<path id="Layer" class="shp11" d="M149.09 103.27C149.09 103.27 154.13 125.58 150.76 141.3C148.51 151.84 140.38 173.13 140.38 173.13L134.02 172.97C134.02 172.97 140.17 150.63 141.43 141.85C143.61 126.83 138.15 102.33 138.15 102.33L149.09 103.27Z" />
	<path id="Layer" class="shp7" d="M141.91 130.74C141.66 124.73 141.05 118.73 140.09 112.78L143.27 107.77C144.26 112.01 146.38 122.74 141.91 130.74Z" />
	<path id="Layer" class="shp12" d="M141.91 130.74C141.66 124.73 141.05 118.73 140.09 112.78L143.27 107.77C144.26 112.01 146.38 122.74 141.91 130.74Z" />
	<path id="Layer" class="shp7" d="M141.27 173.44L133.42 173.25L133.87 170.83L142.45 171.24L141.27 173.44Z" />
	<path id="Layer" class="shp8" d="M141.27 173.44L133.42 173.25L133.87 170.83L142.45 171.24L141.27 173.44Z" />
	<path id="Layer" class="shp7" d="M145.82 103.03C145.82 103.03 142.87 126.69 136.46 139.6C131.28 150.04 117.45 164.89 117.45 164.89L113.92 161.25C113.92 161.25 123.25 145.12 127.1 138.18C136.54 121.17 128.85 108.22 134.18 101.99L145.82 103.03Z" />
	<path id="Layer" class="shp11" d="M145.82 103.03C145.82 103.03 142.87 126.69 136.46 139.6C131.28 150.04 117.45 164.89 117.45 164.89L113.92 161.25C113.92 161.25 123.25 145.12 127.1 138.18C136.54 121.17 128.85 108.22 134.18 101.99L145.82 103.03Z" />
	<path id="Layer" class="shp7" d="M117.81 165.38L113.25 160.93L114.76 158.87L119.73 164.01L117.81 165.38Z" />
	<path id="Layer" class="shp8" d="M117.81 165.38L113.25 160.93L114.76 158.87L119.73 164.01L117.81 165.38Z" />
	<path id="Layer" class="shp10" d="M134.15 101.01C134.19 100.99 134.24 100.99 134.28 101L149.38 102.31C149.53 102.32 149.62 102.41 149.62 102.5L149.37 103.81C149.35 103.89 149.23 103.94 149.1 103.94L133.47 102.59C133.3 102.57 133.18 102.46 133.24 102.36L134.03 101.08C134.06 101.05 134.1 101.02 134.15 101.01Z" />
	<path id="Layer" class="shp13" d="M135.91 102.94L135.51 102.91C135.43 102.91 135.37 102.86 135.38 102.81L135.72 101.09C135.72 101.04 135.81 101 135.88 101.01L136.29 101.04C136.37 101.04 136.42 101.1 136.42 101.15L136.08 102.87C136.07 102.92 135.99 102.95 135.91 102.94Z" />
	<path id="Layer" class="shp11" d="M135.91 102.94L135.51 102.91C135.43 102.91 135.37 102.86 135.38 102.81L135.72 101.09C135.72 101.04 135.81 101 135.88 101.01L136.29 101.04C136.37 101.04 136.42 101.1 136.42 101.15L136.08 102.87C136.07 102.92 135.99 102.95 135.91 102.94Z" />
	<path id="Layer" class="shp13" d="M147.95 103.99L147.55 103.95C147.47 103.95 147.41 103.9 147.42 103.85L147.76 102.13C147.76 102.08 147.84 102.05 147.92 102.05L148.33 102.08C148.41 102.08 148.47 102.14 148.46 102.19L148.12 103.91C148.1 103.94 148.08 103.96 148.05 103.97C148.02 103.99 147.99 103.99 147.95 103.99Z" />
	<path id="Layer" class="shp11" d="M147.95 103.99L147.55 103.95C147.47 103.95 147.41 103.9 147.42 103.85L147.76 102.13C147.76 102.08 147.84 102.05 147.92 102.05L148.33 102.08C148.41 102.08 148.47 102.14 148.46 102.19L148.12 103.91C148.1 103.94 148.08 103.96 148.05 103.97C148.02 103.99 147.99 103.99 147.95 103.99Z" />
	<path id="Layer" class="shp13" d="M141.93 103.47L141.53 103.43C141.45 103.43 141.39 103.38 141.4 103.33L141.74 101.61C141.74 101.56 141.82 101.52 141.91 101.53L142.31 101.57C142.39 101.57 142.45 101.62 142.44 101.67L142.1 103.38C142.09 103.44 142.01 103.47 141.93 103.47Z" />
	<path id="Layer" class="shp11" d="M141.93 103.47L141.53 103.43C141.45 103.43 141.39 103.38 141.4 103.33L141.74 101.61C141.74 101.56 141.82 101.52 141.91 101.53L142.31 101.57C142.39 101.57 142.45 101.62 142.44 101.67L142.1 103.38C142.09 103.44 142.01 103.47 141.93 103.47Z" />
	<path id="Layer" class="shp10" d="M145.11 67.52C145.29 67.48 145.49 67.69 145.55 67.98C145.61 68.27 145.49 68.53 145.31 68.57C145.13 68.61 144.93 68.4 144.87 68.11C144.82 67.82 144.94 67.55 145.11 67.52Z" />
	<path id="Layer" class="shp10" d="M148.41 66.89C148.59 66.83 148.79 67.03 148.85 67.33C148.9 67.62 148.78 67.89 148.61 67.92C148.43 67.96 148.23 67.75 148.17 67.46C148.11 67.17 148.23 66.95 148.41 66.89Z" />
	<path id="Layer" class="shp10" d="M148.33 66.9L148.99 66.56C148.99 66.56 148.74 67.18 148.33 66.9Z" />
	<path id="Layer" class="shp14" d="M147.39 68.14C147.79 68.75 148.26 69.31 148.8 69.79C148.67 69.93 148.52 70.03 148.34 70.1C148.17 70.17 147.99 70.2 147.8 70.19L147.39 68.14Z" />
	<path id="Layer" class="shp15" d="M146.45 71.58C145.84 71.59 145.24 71.36 144.79 70.95C144.78 70.94 144.77 70.92 144.77 70.9C144.77 70.88 144.78 70.86 144.79 70.85C144.81 70.83 144.82 70.82 144.84 70.82C144.86 70.82 144.88 70.83 144.9 70.85C145.18 71.09 145.51 71.27 145.87 71.36C146.23 71.45 146.6 71.46 146.97 71.38C146.99 71.38 147.01 71.38 147.02 71.39C147.04 71.4 147.05 71.42 147.05 71.44C147.06 71.45 147.06 71.46 147.05 71.47C147.05 71.48 147.05 71.48 147.04 71.49C147.04 71.5 147.03 71.51 147.02 71.51C147.01 71.52 147.01 71.52 147 71.52C146.82 71.56 146.64 71.58 146.45 71.58Z" />
	<path id="Layer" class="shp10" d="M143.25 66.27C143.23 66.28 143.2 66.28 143.18 66.27C143.15 66.25 143.12 66.22 143.11 66.18C143.1 66.14 143.11 66.11 143.13 66.07C143.26 65.84 143.45 65.64 143.68 65.49C143.91 65.34 144.17 65.25 144.44 65.22C144.48 65.22 144.51 65.24 144.54 65.26C144.57 65.29 144.58 65.32 144.59 65.36C144.59 65.38 144.58 65.4 144.58 65.42C144.57 65.43 144.56 65.45 144.55 65.46C144.53 65.48 144.52 65.49 144.5 65.5C144.48 65.5 144.47 65.51 144.45 65.51C144.22 65.53 144.01 65.61 143.82 65.74C143.64 65.86 143.48 66.03 143.37 66.22C143.36 66.24 143.34 66.25 143.32 66.26C143.3 66.27 143.28 66.27 143.25 66.27Z" />
	<path id="Layer" class="shp10" d="M149.44 65.76C149.42 65.76 149.4 65.76 149.37 65.76C149.18 65.64 148.96 65.57 148.73 65.56C148.5 65.54 148.27 65.58 148.07 65.67C148.03 65.69 147.99 65.7 147.96 65.68C147.92 65.67 147.89 65.65 147.87 65.61C147.85 65.58 147.85 65.54 147.86 65.5C147.87 65.47 147.9 65.44 147.93 65.42C148.18 65.31 148.45 65.25 148.72 65.27C148.99 65.29 149.26 65.37 149.49 65.5C149.51 65.51 149.52 65.53 149.53 65.54C149.55 65.56 149.56 65.57 149.56 65.59C149.57 65.61 149.57 65.63 149.56 65.65C149.56 65.67 149.56 65.68 149.55 65.7C149.54 65.72 149.52 65.73 149.5 65.74C149.48 65.75 149.46 65.76 149.44 65.76Z" />
	<path id="Layer" class="shp6" d="M134.59 84.82C133.99 86.03 133.31 87.21 132.58 88.34C131.85 89.47 131.07 90.56 130.24 91.62C129.39 92.67 128.49 93.68 127.53 94.63C127.03 95.1 126.54 95.57 126.01 96.01L125.62 96.34C125.43 96.49 125.24 96.63 125.03 96.75C124.53 97.05 123.95 97.2 123.37 97.19C122.78 97.16 122.2 96.96 121.73 96.61C121.36 96.34 121.03 96.02 120.76 95.65C120.31 95.04 119.94 94.38 119.66 93.68C119.14 92.42 118.73 91.12 118.43 89.79C117.85 87.22 117.47 84.6 117.28 81.97L118.82 81.78C119.07 83.01 119.34 84.28 119.65 85.52C119.96 86.75 120.27 87.99 120.65 89.18C121 90.36 121.44 91.51 121.96 92.62C122.19 93.11 122.49 93.57 122.83 93.99C122.95 94.14 123.1 94.27 123.27 94.37C123.39 94.44 123.43 94.43 123.43 94.42C123.49 94.4 123.55 94.37 123.61 94.33C123.66 94.29 123.73 94.24 123.81 94.18L124.14 93.86C124.57 93.46 125.01 93.01 125.45 92.55C126.28 91.65 127.06 90.68 127.82 89.7C128.58 88.72 129.27 87.67 129.93 86.62C130.27 86.09 130.59 85.56 130.91 85.02C131.23 84.47 131.53 83.92 131.78 83.41L134.59 84.82Z" />
	<path id="Layer" class="shp6" d="M118.41 83.35C116.94 82.88 115.89 81.13 115.89 81.13L119.12 79.05L119.51 82.31L118.41 83.35Z" />
	<path id="Layer" class="shp6" d="M119.12 79.05L115.88 81.13L115.81 79.72L117.92 77.72L119.12 79.05Z" />
	<path id="Layer" class="shp7" d="M137.15 82.84C137.34 85.23 133.68 89.22 133.68 89.22L129.07 85.06C129.07 85.06 131.63 79.81 133.46 79.49C135.79 79.08 136.98 80.82 137.15 82.84Z" />
	<path id="Layer" class="shp8" d="M137.15 82.84C137.34 85.23 133.68 89.22 133.68 89.22L129.07 85.06C129.07 85.06 131.63 79.81 133.46 79.49C135.79 79.08 136.98 80.82 137.15 82.84Z" />
	<path id="Layer" fill-rule="evenodd" class="shp7" d="M115.1 168.87C115.06 168.87 115.01 168.86 114.96 168.84C114.53 168.7 114.24 167.89 114.09 167.41C114.09 167.4 114.09 167.39 114.1 167.38C114.1 167.36 114.11 167.35 114.12 167.34C114.13 167.33 114.14 167.33 114.16 167.33C114.17 167.33 114.19 167.33 114.2 167.34C114.33 167.41 115.5 168.03 115.54 168.5C115.54 168.55 115.53 168.6 115.51 168.64C115.49 168.69 115.45 168.73 115.41 168.75C115.33 168.82 115.22 168.86 115.1 168.87ZM114.3 167.56C114.5 168.21 114.76 168.64 115.01 168.72C115.06 168.74 115.13 168.74 115.18 168.72C115.24 168.71 115.3 168.68 115.34 168.65C115.36 168.63 115.38 168.61 115.39 168.59C115.4 168.57 115.41 168.54 115.41 168.51C115.38 168.22 114.7 167.77 114.3 167.55L114.3 167.56Z" />
	<path id="Layer" fill-rule="evenodd" class="shp7" d="M115.29 167.73C114.89 167.73 114.5 167.63 114.14 167.46C114.13 167.45 114.12 167.44 114.11 167.43C114.11 167.42 114.11 167.41 114.11 167.4C114.11 167.38 114.11 167.37 114.11 167.36C114.12 167.35 114.13 167.34 114.14 167.33C114.18 167.31 115.1 166.81 115.6 166.98C115.66 167 115.72 167.03 115.77 167.08C115.82 167.12 115.85 167.18 115.88 167.24C115.91 167.3 115.92 167.37 115.9 167.43C115.89 167.5 115.86 167.56 115.81 167.6C115.65 167.7 115.47 167.74 115.29 167.73ZM114.34 167.4C114.73 167.57 115.5 167.67 115.72 167.49C115.75 167.46 115.79 167.41 115.74 167.29C115.72 167.25 115.7 167.21 115.67 167.18C115.64 167.15 115.6 167.13 115.55 167.12C115.22 166.99 114.6 167.27 114.34 167.4Z" />
	<path id="Layer" fill-rule="evenodd" class="shp7" d="M139.39 178.09C138.99 178.08 138.59 178.03 138.19 177.94C138.18 177.94 138.17 177.93 138.16 177.92C138.15 177.91 138.14 177.89 138.14 177.88C138.14 177.86 138.14 177.85 138.15 177.84C138.15 177.82 138.16 177.81 138.18 177.81C138.36 177.72 139.95 176.99 140.36 177.26C140.39 177.28 140.42 177.31 140.44 177.35C140.46 177.4 140.47 177.44 140.46 177.48C140.46 177.56 140.44 177.64 140.4 177.71C140.36 177.78 140.31 177.84 140.24 177.89C139.99 178.05 139.69 178.12 139.39 178.09ZM138.44 177.84C138.91 177.93 139.79 178.04 140.14 177.78C140.19 177.74 140.23 177.7 140.26 177.64C140.29 177.59 140.3 177.53 140.3 177.47C140.3 177.41 140.3 177.39 140.26 177.38C140.04 177.22 139.08 177.55 138.44 177.84Z" />
	<path id="Layer" fill-rule="evenodd" class="shp7" d="M138.21 177.94C138.2 177.95 138.18 177.95 138.16 177.94C138.15 177.94 138.15 177.92 138.14 177.91C138.14 177.9 138.13 177.88 138.14 177.87C138.14 177.81 138.53 176.24 139.38 176.34C139.59 176.37 139.65 176.48 139.66 176.56C139.72 176.96 138.71 177.76 138.24 177.95L138.21 177.94ZM139.3 176.46C138.75 176.46 138.43 177.37 138.32 177.74C138.84 177.47 139.55 176.82 139.52 176.56C139.52 176.56 139.52 176.48 139.36 176.47L139.3 176.46Z" />
	<path id="Layer" class="shp15" d="M145.03 67.55L145.69 67.21C145.69 67.21 145.44 67.83 145.03 67.55Z" />
	<path id="Layer" fill-rule="evenodd" class="shp10" d="M53.86 68.45C57.72 64.58 62.32 61.5 67.38 59.41C72.43 57.31 77.85 56.24 83.33 56.24L89.23 56.24C89.23 56.24 117.06 63.53 117.06 93.34C117.06 122.48 97.79 148.28 89.23 156.85L83.34 156.85L53.86 127.37C46.05 119.56 41.66 108.96 41.66 97.91C41.66 86.86 46.05 76.27 53.86 68.45ZM83.33 117.28C87.16 117.28 90.9 116.15 94.08 114.02C97.27 111.9 99.75 108.87 101.21 105.34C102.67 101.8 103.06 97.91 102.31 94.16C101.56 90.4 99.72 86.96 97.01 84.25C94.31 81.54 90.86 79.7 87.1 78.96C83.35 78.21 79.46 78.59 75.92 80.06C72.39 81.52 69.37 84 67.24 87.19C65.12 90.37 63.98 94.11 63.98 97.94C63.99 103.06 66.04 107.97 69.66 111.59C73.29 115.22 78.21 117.25 83.33 117.25L83.33 117.28Z" />
	<path id="Layer" class="shp13" d="M119.46 67.66C117.74 65.94 115.87 64.36 113.88 62.95L114.13 62.59C116.14 64.02 118.03 65.61 119.77 67.36L119.46 67.66ZM111.28 61.24C110.25 60.63 109.19 60.04 108.12 59.5L108.31 59.11C109.39 59.64 110.47 60.23 111.5 60.85L111.28 61.24Z" />
	<path id="Layer" class="shp16" d="M119.46 67.66C117.74 65.94 115.87 64.36 113.88 62.95L114.13 62.59C116.14 64.02 118.03 65.61 119.77 67.36L119.46 67.66ZM111.28 61.24C110.25 60.63 109.19 60.04 108.12 59.5L108.31 59.11C109.39 59.64 110.47 60.23 111.5 60.85L111.28 61.24Z" />
	<path id="Layer" fill-rule="evenodd" class="shp7" d="M59.75 68.45C67.62 60.88 78.14 56.7 89.05 56.8C99.97 56.9 110.41 61.28 118.13 69C125.85 76.72 130.23 87.16 130.34 98.07C130.44 108.99 126.26 119.51 118.69 127.37L89.23 156.84L59.75 127.36C51.95 119.55 47.56 108.95 47.56 97.91C47.56 86.86 51.95 76.27 59.75 68.45ZM89.23 117.28C93.05 117.28 96.8 116.15 99.98 114.02C103.16 111.9 105.64 108.87 107.11 105.34C108.57 101.8 108.95 97.91 108.2 94.16C107.46 90.4 105.61 86.96 102.91 84.25C100.2 81.54 96.75 79.7 93 78.96C89.25 78.21 85.36 78.59 81.82 80.06C78.28 81.52 75.26 84 73.14 87.19C71.01 90.37 69.88 94.11 69.88 97.94C69.89 103.06 71.93 107.97 75.56 111.6C79.19 115.22 84.1 117.25 89.23 117.25L89.23 117.28Z" />
	<path id="Layer" fill-rule="evenodd" class="shp17" d="M59.75 68.45C67.62 60.88 78.14 56.7 89.05 56.8C99.97 56.9 110.41 61.28 118.13 69C125.85 76.72 130.23 87.16 130.34 98.07C130.44 108.99 126.26 119.51 118.69 127.37L89.23 156.84L59.75 127.36C51.95 119.55 47.56 108.95 47.56 97.91C47.56 86.86 51.95 76.27 59.75 68.45ZM89.23 117.28C93.05 117.28 96.8 116.15 99.98 114.02C103.16 111.9 105.64 108.87 107.11 105.34C108.57 101.8 108.95 97.91 108.2 94.16C107.46 90.4 105.61 86.96 102.91 84.25C100.2 81.54 96.75 79.7 93 78.96C89.25 78.21 85.36 78.59 81.82 80.06C78.28 81.52 75.26 84 73.14 87.19C71.01 90.37 69.88 94.11 69.88 97.94C69.89 103.06 71.93 107.97 75.56 111.6C79.19 115.22 84.1 117.25 89.23 117.25L89.23 117.28Z" />
	<g id="Layer" style="opacity: 0.4">
		<path id="Layer" fill-rule="evenodd" class="shp18" d="M89.23 154.48C89.22 154.48 89.2 154.48 89.19 154.47C89.18 154.46 89.16 154.46 89.15 154.44L60.91 126.2C55.31 120.61 51.5 113.47 49.96 105.71C48.41 97.94 49.21 89.89 52.24 82.58C55.27 75.26 60.4 69.01 66.98 64.61C73.57 60.22 81.31 57.87 89.22 57.87C97.14 57.87 104.88 60.22 111.46 64.61C118.05 69.01 123.18 75.26 126.21 82.58C129.24 89.89 130.03 97.94 128.49 105.71C126.94 113.47 123.13 120.61 117.54 126.2L89.31 154.43C89.3 154.44 89.29 154.46 89.27 154.46C89.26 154.47 89.25 154.48 89.23 154.48ZM89.23 58.08C81.36 58.09 73.66 60.42 67.11 64.8C60.57 69.17 55.47 75.39 52.45 82.67C49.44 89.94 48.65 97.94 50.19 105.67C51.72 113.39 55.52 120.48 61.08 126.05L89.25 154.21L117.4 126.06C122.97 120.49 126.76 113.4 128.29 105.67C129.83 97.95 129.04 89.94 126.02 82.67C123.01 75.39 117.9 69.17 111.36 64.8C104.81 60.42 97.11 58.08 89.23 58.08ZM89.23 119.12C85.04 119.12 80.94 117.88 77.45 115.55C73.96 113.22 71.25 109.91 69.64 106.03C68.04 102.16 67.62 97.9 68.44 93.78C69.26 89.67 71.28 85.89 74.24 82.93C77.21 79.96 80.98 77.94 85.1 77.13C89.21 76.31 93.47 76.73 97.35 78.33C101.22 79.94 104.53 82.66 106.86 86.14C109.19 89.63 110.44 93.73 110.43 97.93C110.42 103.54 108.18 108.93 104.21 112.9C100.23 116.87 94.85 119.1 89.23 119.1L89.23 119.12ZM89.23 76.94C85.08 76.94 81.02 78.17 77.57 80.48C74.12 82.78 71.43 86.06 69.84 89.9C68.26 93.73 67.84 97.95 68.65 102.02C69.46 106.09 71.46 109.83 74.39 112.76C77.33 115.7 81.07 117.7 85.14 118.51C89.21 119.32 93.43 118.9 97.26 117.31C101.1 115.72 104.37 113.03 106.68 109.58C108.99 106.13 110.22 102.08 110.22 97.93C110.22 92.36 108.01 87.02 104.07 83.08C100.13 79.14 94.8 76.92 89.23 76.92L89.23 76.94Z" />
	</g>
</svg>