<svg version="1.2" baseProfile="tiny-ps" xmlns="http://www.w3.org/2000/svg" viewBox="0 0 232 232" width="232" height="232">
	<title>no-booking-svg</title>
	<style>
		tspan { white-space:pre }
		.shp0 { fill: #ebebeb } 
		.shp1 { fill: #f0f0f0 } 
		.shp2 { fill: #f5f5f5 } 
		.shp3 { fill: #ffffff } 
		.shp4 { mix-blend-mode: multiply;fill: #e6e6e6 } 
		.shp5 { fill: #e6e6e6 } 
		.shp6 { fill: #fafafa } 
		.shp7 { fill: #551326 } 
		.shp8 { opacity: 0.4;fill: #000000 } 
		.shp9 { fill: #651d32 } 
		.shp10 { opacity: 0.302;fill: #651d32 } 
		.shp11 { opacity: 0.6;fill: #ffffff } 
		.shp12 { opacity: 0.502;fill: #ffffff } 
		.shp13 { fill: #861d3d } 
		.shp14 { fill: #263238 } 
		.shp15 { fill: #3f686c } 
		.shp16 { fill: #ffc3bd } 
		.shp17 { fill: #ed847e } 
		.shp18 { opacity: 0.2;fill: #000000 } 
		.shp19 { opacity: 0.8;fill: #651d32 } 
		.shp20 { opacity: 0.302;fill: #000000 } 
	</style>
	<path id="Layer" class="shp0" d="M232 177.55L0 177.55L0 177.43L232 177.43L232 177.55Z" />
	<path id="Layer" fill-rule="evenodd" class="shp0" d="M109.97 156.74L20.37 156.74C19.67 156.74 19 156.46 18.5 155.96C18.01 155.47 17.73 154.79 17.73 154.09L17.73 28.15C17.74 27.45 18.02 26.78 18.51 26.29C19.01 25.8 19.68 25.52 20.37 25.52L109.97 25.52C110.67 25.52 111.34 25.8 111.84 26.3C112.34 26.79 112.62 27.47 112.62 28.17L112.62 154.09C112.62 154.79 112.34 155.47 111.84 155.96C111.34 156.46 110.67 156.74 109.97 156.74ZM20.37 25.61C19.7 25.61 19.06 25.88 18.59 26.36C18.11 26.83 17.85 27.48 17.85 28.15L17.85 154.09C17.85 154.76 18.11 155.41 18.59 155.88C19.06 156.35 19.7 156.62 20.37 156.62L109.97 156.62C110.64 156.62 111.28 156.35 111.76 155.88C112.23 155.41 112.5 154.76 112.5 154.09L112.5 28.15C112.5 27.47 112.23 26.83 111.76 26.36C111.28 25.88 110.64 25.61 109.97 25.61L20.37 25.61Z" />
	<path id="Layer" fill-rule="evenodd" class="shp0" d="M210.34 156.74L120.74 156.74C120.03 156.74 119.36 156.46 118.86 155.96C118.37 155.47 118.09 154.79 118.09 154.09L118.09 28.15C118.09 27.45 118.38 26.78 118.87 26.29C119.37 25.8 120.04 25.52 120.74 25.52L210.34 25.52C211.03 25.52 211.7 25.8 212.19 26.29C212.69 26.78 212.97 27.45 212.98 28.15L212.98 154.09C212.98 154.79 212.7 155.46 212.2 155.96C211.71 156.46 211.04 156.74 210.34 156.74ZM120.74 25.61C120.07 25.61 119.42 25.88 118.95 26.36C118.47 26.83 118.2 27.47 118.2 28.15L118.2 154.09C118.2 154.76 118.47 155.41 118.95 155.88C119.42 156.35 120.07 156.62 120.74 156.62L210.34 156.62C211.01 156.62 211.65 156.35 212.13 155.88C212.6 155.41 212.87 154.76 212.87 154.09L212.87 28.15C212.87 27.47 212.6 26.83 212.13 26.36C211.65 25.88 211.01 25.61 210.34 25.61L120.74 25.61Z" />
	<path id="Layer" class="shp0" d="M35.86 181.97L23.79 181.97L23.79 181.85L35.86 181.85L35.86 181.97Z" />
	<path id="Layer" class="shp0" d="M88.24 180.71L67.35 180.71L67.35 180.59L88.24 180.59L88.24 180.71Z" />
	<path id="Layer" class="shp0" d="M64.53 186.28L36.32 186.28L36.32 186.16L64.53 186.16L64.53 186.28Z" />
	<path id="Layer" class="shp0" d="M208.21 185.5L199.28 185.5L199.28 185.38L208.21 185.38L208.21 185.5Z" />
	<path id="Layer" class="shp0" d="M195.15 185.5L169.5 185.5L169.5 185.38L195.15 185.38L195.15 185.5Z" />
	<path id="Layer" class="shp0" d="M153.82 183.54L119.27 183.54L119.27 183.42L153.82 183.42L153.82 183.54Z" />
	<path id="Layer" class="shp1" d="M122.9 177.43L103.39 177.43L103.39 127.37L122.9 127.37L122.9 177.43Z" />
	<path id="Layer" class="shp2" d="M33.58 127.37L103.39 127.37L103.39 177.43L33.58 177.43L33.58 127.37Z" />
	<path id="Layer" class="shp3" d="M37.85 162.36L49.5 162.36L49.5 172.56L37.85 172.56L37.85 162.36Z" />
	<path id="Layer" class="shp0" d="M37.85 148.43L49.5 148.43L49.5 158.62L37.85 158.62L37.85 148.43Z" />
	<g id="Layer" style="opacity: 0.702">
		<path id="Layer" class="shp4" d="M122.89 135.85L33.37 135.85L33.37 133.84L122.89 133.84L122.89 135.85Z" />
	</g>
	<path id="Layer" class="shp1" d="M123.98 134.51L103.39 134.51L103.39 126.4L123.98 126.4L123.98 134.51Z" />
	<path id="Layer" class="shp2" d="M32.49 126.4L103.38 126.4L103.38 134.51L32.49 134.51L32.49 126.4Z" />
	<path id="Layer" class="shp1" d="M115.5 126.53L100.34 126.53L100.34 111.1L115.5 111.1L115.5 126.53Z" />
	<path id="Layer" class="shp2" d="M47.54 111.09L100.33 111.09L100.33 126.52L47.54 126.52L47.54 111.09Z" />
	<g id="Layer" style="opacity: 0.702">
		<path id="Layer" class="shp4" d="M115.5 114.67L47.38 114.67L47.38 113.42L115.5 113.42L115.5 114.67Z" />
	</g>
	<path id="Layer" class="shp1" d="M116.34 113.95L100.34 113.95L100.34 110.34L116.34 110.34L116.34 113.95Z" />
	<path id="Layer" class="shp2" d="M46.71 110.34L100.34 110.34L100.34 113.95L46.71 113.95L46.71 110.34Z" />
	<path id="Layer" class="shp5" d="M133.36 102.32L148.2 102.32L148.2 177.43L133.36 177.43L133.36 102.32Z" />
	<path id="Layer" class="shp1" d="M136.54 177.43L133.36 177.43L133.36 172.11L139.87 172.11L136.54 177.43Z" />
	<path id="Layer" class="shp5" d="M182.88 102.32L197.72 102.32L197.72 177.43L182.88 177.43L182.88 102.32Z" />
	<path id="Layer" class="shp1" d="M133.36 102.32L185.65 102.32L185.65 176.36L133.36 176.36L133.36 102.32Z" />
	<path id="Layer" class="shp5" d="M135.83 105.61L183.18 105.61L183.18 125.91L135.83 125.91L135.83 105.61Z" />
	<path id="Layer" class="shp6" d="M162.61 115.32C162.61 115.94 162.43 116.54 162.09 117.05C161.75 117.56 161.26 117.96 160.69 118.2C160.12 118.44 159.5 118.5 158.89 118.38C158.29 118.26 157.73 117.96 157.3 117.52C156.86 117.09 156.57 116.53 156.45 115.93C156.33 115.33 156.39 114.7 156.62 114.13C156.86 113.56 157.26 113.08 157.77 112.73C158.28 112.39 158.88 112.21 159.5 112.21C159.91 112.21 160.31 112.29 160.69 112.44C161.07 112.6 161.41 112.83 161.7 113.12C161.99 113.41 162.22 113.75 162.38 114.13C162.53 114.51 162.61 114.91 162.61 115.32Z" />
	<path id="Layer" class="shp1" d="M179.14 172.11L185.65 172.11L185.65 177.43L182.47 177.43L179.14 172.11Z" />
	<path id="Layer" class="shp5" d="M183.18 173.08L135.82 173.08L135.82 129.19L183.18 129.19L183.18 173.08Z" />
	<path id="Layer" class="shp6" d="M173.53 135.73C173.53 134.01 174.92 132.62 176.64 132.62C178.36 132.62 179.75 134.01 179.75 135.73C179.75 137.45 178.36 138.84 176.64 138.84C174.92 138.84 173.53 137.45 173.53 135.73Z" />
	<path id="Layer" class="shp5" d="M40 93.96L40 33.19L192.68 33.19L192.68 93.96L40 93.96Z" />
	<path id="Layer" class="shp1" d="M39.33 93.96L39.33 33.19L192 33.19L192 93.96L39.33 93.96Z" />
	<path id="Layer" class="shp3" d="M188.12 90.08L43.21 90.08L43.21 37.07L188.12 37.07L188.12 90.08Z" />
	<path id="Layer" class="shp5" d="M65.21 67.99L55.01 67.99L60.11 59.16L65.21 67.99Z" />
	<path id="Layer" class="shp5" d="M86.56 67.73L78.23 67.73L78.23 59.41L86.56 59.41L86.56 67.73Z" />
	<path id="Layer" class="shp5" d="M110.28 62.32L108.14 68.9L101.23 68.9L99.09 62.32L104.69 58.25L110.28 62.32Z" />
	<path id="Layer" class="shp5" d="M132.86 63.57L129.92 68.67L124.03 68.67L121.08 63.57L124.03 58.48L129.92 58.48L132.86 63.57Z" />
	<path id="Layer" class="shp5" d="M153.87 60.19L155 65.18L151.82 69.17L146.71 69.17L143.52 65.18L144.66 60.19L149.26 57.98L153.87 60.19Z" />
	<path id="Layer" class="shp5" d="M176.99 61.32L176.99 65.83L173.81 69.02L169.3 69.02L166.11 65.83L166.11 61.32L169.3 58.13L173.81 58.13L176.99 61.32Z" />
	<path id="Layer" class="shp2" d="M26.03 193.13C26.03 190.23 66.31 187.88 116 187.88C165.69 187.88 205.97 190.23 205.97 193.13C205.97 196.04 165.69 198.39 116 198.39C66.31 198.39 26.03 196.04 26.03 193.13Z" />
	<path id="Layer" class="shp7" d="M111.09 60.09L187.48 60.09C187.87 60.09 188.25 60.16 188.6 60.31C188.95 60.46 189.26 60.68 189.53 60.96C189.79 61.24 189.99 61.57 190.12 61.93C190.25 62.29 190.3 62.67 190.27 63.05L184.04 163.43C183.98 164.23 183.62 164.97 183.04 165.52C182.46 166.07 181.69 166.38 180.89 166.4L104.49 166.4C104.11 166.4 103.73 166.32 103.38 166.17C103.03 166.02 102.71 165.79 102.45 165.52C102.19 165.24 101.99 164.91 101.86 164.55C101.73 164.19 101.68 163.81 101.7 163.43L107.93 63.05C107.99 62.25 108.35 61.51 108.94 60.96C109.52 60.41 110.29 60.1 111.09 60.09Z" />
	<path id="Layer" class="shp8" d="M111.09 60.09L187.48 60.09C187.87 60.09 188.25 60.16 188.6 60.31C188.95 60.46 189.26 60.68 189.53 60.96C189.79 61.24 189.99 61.57 190.12 61.93C190.25 62.29 190.3 62.67 190.27 63.05L184.04 163.43C183.98 164.23 183.62 164.97 183.04 165.52C182.46 166.07 181.69 166.38 180.89 166.4L104.49 166.4C104.11 166.4 103.73 166.32 103.38 166.17C103.03 166.02 102.71 165.79 102.45 165.52C102.19 165.24 101.99 164.91 101.86 164.55C101.73 164.19 101.68 163.81 101.7 163.43L107.93 63.05C107.99 62.25 108.35 61.51 108.94 60.96C109.52 60.41 110.29 60.1 111.09 60.09Z" />
	<path id="Layer" class="shp9" d="M109.33 60.09L185.73 60.09C186.11 60.09 186.49 60.16 186.84 60.31C187.19 60.46 187.51 60.68 187.77 60.96C188.03 61.24 188.24 61.57 188.36 61.93C188.49 62.29 188.54 62.67 188.51 63.05L182.28 163.43C182.22 164.23 181.87 164.97 181.28 165.52C180.7 166.07 179.93 166.38 179.13 166.4L102.73 166.4C102.35 166.4 101.97 166.32 101.63 166.17C101.28 166.02 100.96 165.79 100.7 165.52C100.44 165.24 100.24 164.91 100.11 164.55C99.98 164.19 99.93 163.81 99.95 163.43L106.18 63.05C106.24 62.25 106.6 61.51 107.18 60.96C107.76 60.41 108.53 60.1 109.33 60.09Z" />
	<path id="Layer" class="shp8" d="M110.07 64.65L184.49 64.65L178.46 161.87L104.09 160.97L110.07 64.65Z" />
	<path id="Layer" class="shp3" d="M107.91 63.48L183.24 63.48C182.67 101.47 181.4 121.99 177.25 159.99L101.92 159.99C106.08 121.99 107.35 101.47 107.91 63.48Z" />
	<path id="Layer" fill-rule="evenodd" class="shp10" d="M174.23 89.9L161.26 89.9C161.13 89.9 161 89.88 160.88 89.82C160.76 89.77 160.65 89.69 160.56 89.6C160.47 89.5 160.4 89.39 160.36 89.27C160.31 89.14 160.29 89.01 160.3 88.88L161.11 75.92C161.12 75.68 161.23 75.45 161.41 75.28C161.58 75.11 161.82 75.02 162.06 75.02L175.05 75.02C175.18 75.02 175.31 75.05 175.43 75.1C175.55 75.15 175.66 75.23 175.75 75.32C175.84 75.42 175.91 75.53 175.95 75.65C176 75.77 176.02 75.91 176.01 76.04L175.2 89C175.2 89.13 175.17 89.25 175.12 89.36C175.07 89.47 174.99 89.57 174.9 89.66C174.81 89.74 174.71 89.8 174.59 89.85C174.47 89.89 174.35 89.91 174.23 89.9ZM162.28 87.99L173.33 87.99L174 76.94L162.96 76.94L162.28 87.99Z" />
	<path id="Layer" fill-rule="evenodd" class="shp10" d="M173 109.65L160.03 109.65C159.9 109.65 159.77 109.63 159.66 109.57C159.53 109.52 159.43 109.45 159.34 109.35C159.25 109.26 159.18 109.14 159.13 109.02C159.09 108.9 159.07 108.77 159.08 108.64L159.88 95.67C159.9 95.42 160 95.2 160.18 95.03C160.36 94.86 160.59 94.77 160.84 94.77L173.81 94.77C173.94 94.77 174.06 94.8 174.19 94.85C174.31 94.9 174.41 94.98 174.5 95.07C174.59 95.17 174.66 95.28 174.7 95.4C174.75 95.53 174.77 95.66 174.76 95.79L173.95 108.75C173.94 109 173.83 109.22 173.66 109.39C173.48 109.56 173.24 109.65 173 109.65ZM161.05 107.74L172.1 107.74L172.78 96.68L161.74 96.68L161.05 107.74Z" />
	<path id="Layer" fill-rule="evenodd" class="shp10" d="M171.77 129.4L158.81 129.4C158.68 129.4 158.55 129.37 158.43 129.32C158.31 129.27 158.2 129.19 158.11 129.1C158.02 129 157.95 128.89 157.9 128.77C157.86 128.65 157.84 128.51 157.85 128.38L158.66 115.42C158.67 115.18 158.78 114.95 158.96 114.78C159.13 114.61 159.37 114.52 159.61 114.52L172.58 114.52C172.71 114.52 172.84 114.55 172.96 114.6C173.08 114.65 173.19 114.73 173.28 114.82C173.37 114.92 173.43 115.03 173.48 115.15C173.52 115.28 173.54 115.41 173.54 115.54L172.73 128.53C172.71 128.77 172.6 128.99 172.42 129.15C172.24 129.31 172.01 129.4 171.77 129.4ZM159.82 127.49L170.87 127.49L171.56 116.44L160.51 116.44L159.82 127.49Z" />
	<path id="Layer" fill-rule="evenodd" class="shp10" d="M170.55 149.15L157.58 149.15C157.45 149.15 157.32 149.13 157.2 149.07C157.08 149.02 156.97 148.95 156.88 148.85C156.79 148.76 156.72 148.65 156.68 148.52C156.63 148.4 156.62 148.27 156.63 148.14L157.43 135.17C157.45 134.93 157.56 134.7 157.73 134.53C157.91 134.37 158.14 134.27 158.39 134.27L171.35 134.27C171.49 134.27 171.62 134.3 171.74 134.35C171.85 134.4 171.96 134.48 172.05 134.57C172.14 134.67 172.21 134.78 172.25 134.91C172.3 135.03 172.32 135.16 172.31 135.29L171.5 148.25C171.49 148.5 171.38 148.72 171.2 148.89C171.03 149.06 170.79 149.15 170.55 149.15ZM158.6 147.24L169.65 147.24L170.33 136.18L159.29 136.18L158.6 147.24Z" />
	<path id="Layer" class="shp10" d="M119.98 80.64C119.79 80.56 119.61 80.44 119.47 80.29C119.33 80.13 119.22 79.95 119.15 79.76C119.08 79.56 119.05 79.35 119.07 79.14C119.1 78.71 119.29 78.3 119.61 78C119.93 77.7 120.35 77.53 120.79 77.53L150.15 77.53C150.36 77.52 150.57 77.56 150.76 77.65C150.95 77.73 151.12 77.85 151.27 78C151.41 78.15 151.52 78.33 151.59 78.53C151.66 78.73 151.69 78.94 151.67 79.14C151.64 79.58 151.44 79.99 151.13 80.29C150.81 80.59 150.39 80.76 149.95 80.76L120.58 80.76C120.38 80.77 120.17 80.72 119.98 80.64Z" />
	<path id="Layer" class="shp10" d="M125.14 87.27C124.95 87.19 124.78 87.07 124.64 86.92C124.5 86.77 124.39 86.59 124.32 86.39C124.25 86.2 124.22 85.99 124.24 85.78C124.27 85.34 124.46 84.93 124.78 84.63C125.1 84.33 125.52 84.16 125.96 84.16L149.73 84.16C149.94 84.15 150.14 84.2 150.34 84.28C150.53 84.36 150.7 84.48 150.84 84.63C150.99 84.79 151.1 84.97 151.16 85.16C151.23 85.36 151.26 85.57 151.25 85.78C151.21 86.22 151.02 86.62 150.7 86.92C150.38 87.22 149.96 87.39 149.52 87.4L125.74 87.4C125.54 87.4 125.33 87.36 125.14 87.27Z" />
	<path id="Layer" class="shp10" d="M119.15 103.91L148.52 103.91C148.73 103.91 148.93 103.95 149.12 104.03C149.32 104.11 149.49 104.23 149.63 104.39C149.77 104.54 149.88 104.72 149.95 104.91C150.02 105.11 150.05 105.32 150.03 105.53C150 105.96 149.81 106.37 149.49 106.67C149.17 106.97 148.75 107.14 148.31 107.15L118.95 107.15C118.74 107.15 118.53 107.11 118.34 107.03C118.15 106.94 117.97 106.82 117.83 106.67C117.69 106.52 117.58 106.34 117.51 106.14C117.44 105.94 117.41 105.74 117.43 105.53C117.46 105.09 117.66 104.68 117.98 104.38C118.3 104.08 118.71 103.92 119.15 103.91Z" />
	<path id="Layer" class="shp10" d="M125.14 97.27L148.94 97.27C149.15 97.27 149.36 97.31 149.55 97.39C149.75 97.48 149.92 97.6 150.06 97.75C150.2 97.9 150.31 98.08 150.38 98.28C150.45 98.47 150.48 98.68 150.47 98.89C150.43 99.33 150.24 99.74 149.92 100.04C149.6 100.34 149.18 100.51 148.74 100.52L124.95 100.52C124.74 100.52 124.53 100.48 124.34 100.4C124.14 100.31 123.97 100.19 123.83 100.04C123.68 99.89 123.57 99.71 123.5 99.51C123.44 99.31 123.41 99.1 123.42 98.89C123.46 98.46 123.65 98.05 123.97 97.75C124.29 97.45 124.71 97.28 125.14 97.27Z" />
	<path id="Layer" class="shp10" d="M117.52 120.15C117.33 120.07 117.15 119.95 117.01 119.79C116.86 119.64 116.75 119.46 116.68 119.26C116.61 119.06 116.58 118.85 116.6 118.64C116.63 118.21 116.83 117.8 117.15 117.5C117.46 117.2 117.88 117.03 118.32 117.03L147.7 117.03C147.91 117.02 148.12 117.06 148.31 117.15C148.5 117.23 148.67 117.35 148.82 117.5C148.96 117.65 149.07 117.83 149.14 118.03C149.21 118.23 149.24 118.44 149.22 118.64C149.19 119.08 148.99 119.49 148.68 119.79C148.36 120.09 147.94 120.26 147.5 120.26L118.13 120.26C117.92 120.27 117.72 120.23 117.52 120.15Z" />
	<path id="Layer" class="shp10" d="M134.67 126.78C134.48 126.69 134.31 126.57 134.17 126.42C134.03 126.27 133.92 126.09 133.85 125.89C133.78 125.69 133.75 125.49 133.77 125.28C133.8 124.84 134 124.44 134.31 124.14C134.63 123.83 135.05 123.66 135.49 123.66L147.29 123.66C147.5 123.65 147.7 123.7 147.9 123.78C148.09 123.86 148.26 123.98 148.41 124.13C148.55 124.29 148.66 124.47 148.73 124.67C148.8 124.86 148.82 125.07 148.81 125.28C148.78 125.72 148.58 126.12 148.26 126.42C147.94 126.72 147.53 126.89 147.09 126.9L135.28 126.9C135.07 126.9 134.86 126.86 134.67 126.78Z" />
	<path id="Layer" class="shp10" d="M122.7 126.78C122.51 126.7 122.33 126.58 122.19 126.42C122.05 126.27 121.94 126.09 121.87 125.89C121.8 125.7 121.77 125.49 121.79 125.28C121.82 124.84 122.01 124.44 122.33 124.14C122.65 123.83 123.07 123.66 123.51 123.66L129.74 123.66C129.95 123.65 130.16 123.7 130.35 123.78C130.54 123.86 130.71 123.98 130.86 124.13C131 124.29 131.11 124.47 131.18 124.67C131.25 124.86 131.28 125.07 131.26 125.28C131.23 125.72 131.03 126.12 130.71 126.42C130.4 126.72 129.98 126.89 129.54 126.9L123.31 126.9C123.1 126.9 122.89 126.86 122.7 126.78Z" />
	<path id="Layer" class="shp10" d="M116.31 139.9C116.12 139.82 115.94 139.7 115.8 139.55C115.65 139.4 115.54 139.22 115.47 139.02C115.4 138.82 115.37 138.61 115.39 138.4C115.42 137.96 115.61 137.55 115.93 137.25C116.25 136.95 116.67 136.78 117.11 136.77L146.49 136.77C146.7 136.77 146.91 136.81 147.1 136.9C147.29 136.98 147.47 137.1 147.61 137.25C147.75 137.4 147.86 137.59 147.93 137.78C148 137.98 148.03 138.19 148.02 138.4C147.98 138.83 147.79 139.24 147.47 139.54C147.15 139.84 146.73 140.01 146.29 140.02L116.93 140.02C116.72 140.02 116.51 139.98 116.31 139.9Z" />
	<path id="Layer" class="shp10" d="M121.47 146.53C121.28 146.45 121.11 146.33 120.97 146.17C120.82 146.02 120.71 145.84 120.64 145.64C120.57 145.45 120.55 145.24 120.56 145.03C120.59 144.59 120.79 144.18 121.11 143.88C121.43 143.59 121.84 143.41 122.28 143.41L146.06 143.41C146.27 143.41 146.48 143.45 146.67 143.53C146.86 143.61 147.04 143.73 147.18 143.88C147.32 144.04 147.43 144.22 147.5 144.41C147.57 144.61 147.6 144.82 147.58 145.03C147.55 145.46 147.36 145.87 147.04 146.17C146.72 146.47 146.3 146.64 145.86 146.65L122.08 146.65C121.87 146.65 121.67 146.61 121.47 146.53Z" />
	<path id="Layer" class="shp8" d="M156.44 65.67C156.4 65.62 156.37 65.55 156.37 65.48L156.35 60.4C156.35 60.31 156.38 60.23 156.44 60.17C156.5 60.11 156.59 60.08 156.67 60.08L160.6 60.08C160.64 60.08 160.68 60.08 160.71 60.1C160.75 60.11 160.78 60.13 160.81 60.16C160.83 60.19 160.85 60.22 160.87 60.25C160.88 60.29 160.89 60.32 160.89 60.36L160.89 62.95C160.89 63.32 160.81 63.69 160.66 64.04C160.52 64.38 160.31 64.69 160.04 64.95C159.77 65.21 159.46 65.42 159.11 65.56C158.77 65.7 158.4 65.77 158.02 65.76L156.63 65.76C156.56 65.76 156.49 65.73 156.44 65.67Z" />
	<path id="Layer" class="shp9" d="M135.28 55.4L158.97 55.4C159.31 55.39 159.65 55.45 159.96 55.59C160.27 55.73 160.54 55.93 160.76 56.18C160.99 56.44 161.15 56.74 161.24 57.07C161.33 57.39 161.35 57.74 161.29 58.07L160.58 63.35C160.47 64.07 160.1 64.74 159.55 65.23C158.99 65.72 158.28 66 157.55 66.02L133.84 66.02C133.51 66.03 133.17 65.96 132.86 65.83C132.55 65.69 132.28 65.49 132.05 65.23C131.83 64.98 131.67 64.67 131.58 64.35C131.49 64.02 131.47 63.68 131.53 63.35L132.24 58.07C132.36 57.34 132.72 56.67 133.28 56.18C133.83 55.7 134.54 55.42 135.28 55.4Z" />
	<path id="Layer" class="shp11" d="M135.28 55.4L158.97 55.4C159.31 55.39 159.65 55.45 159.96 55.59C160.27 55.73 160.54 55.93 160.76 56.18C160.99 56.44 161.15 56.74 161.24 57.07C161.33 57.39 161.35 57.74 161.29 58.07L160.58 63.35C160.47 64.07 160.1 64.74 159.55 65.23C158.99 65.72 158.28 66 157.55 66.02L133.84 66.02C133.51 66.03 133.17 65.96 132.86 65.83C132.55 65.69 132.28 65.49 132.05 65.23C131.83 64.98 131.67 64.67 131.58 64.35C131.49 64.02 131.47 63.68 131.53 63.35L132.24 58.07C132.36 57.34 132.72 56.67 133.28 56.18C133.83 55.7 134.54 55.42 135.28 55.4Z" />
	<path id="Layer" class="shp12" d="M158.36 57.95L147.69 57.95C147.59 57.96 147.49 57.94 147.39 57.91C147.3 57.88 147.21 57.83 147.14 57.76C147.07 57.69 147.01 57.61 146.97 57.52C146.93 57.43 146.91 57.33 146.91 57.23C146.91 57.13 146.93 57.03 146.97 56.94C147.01 56.85 147.07 56.77 147.14 56.7C147.21 56.64 147.3 56.58 147.39 56.55C147.49 56.52 147.59 56.51 147.69 56.52L158.36 56.52C158.54 56.53 158.71 56.61 158.83 56.74C158.95 56.88 159.02 57.05 159.02 57.23C159.02 57.41 158.95 57.59 158.83 57.72C158.71 57.85 158.54 57.93 158.36 57.95Z" />
	<path id="Layer" class="shp12" d="M144.14 57.95L143.01 57.95C142.91 57.96 142.82 57.94 142.72 57.91C142.63 57.88 142.54 57.83 142.47 57.76C142.4 57.69 142.34 57.61 142.3 57.52C142.26 57.43 142.24 57.33 142.24 57.23C142.24 57.13 142.26 57.03 142.3 56.94C142.34 56.85 142.4 56.77 142.47 56.7C142.54 56.64 142.63 56.58 142.72 56.55C142.82 56.52 142.91 56.51 143.01 56.52L144.14 56.52C144.24 56.51 144.34 56.52 144.43 56.55C144.52 56.58 144.61 56.64 144.68 56.7C144.76 56.77 144.81 56.85 144.85 56.94C144.89 57.03 144.91 57.13 144.91 57.23C144.91 57.33 144.89 57.43 144.85 57.52C144.81 57.61 144.76 57.69 144.68 57.76C144.61 57.83 144.52 57.88 144.43 57.91C144.34 57.94 144.24 57.96 144.14 57.95Z" />
	<path id="Layer" class="shp13" d="M87.31 109.53L94.03 110.81L83.21 161.72L78.63 160.84L87.31 109.53Z" />
	<path id="Layer" class="shp7" d="M95.48 71.51L100.59 71.67L100.21 73.66L94.73 75.47L95.48 71.51Z" />
	<path id="Layer" class="shp13" d="M94.59 74.3L100.83 72.27L94.41 108.82L87.69 107.54L94.59 74.3Z" />
	<path id="Layer" class="shp14" d="M88.46 107.6L94.62 108.79L94.24 110.78L88.08 109.59L88.46 107.6Z" />
	<path id="Layer" class="shp15" d="M79.94 166.41C80.16 166.45 80.28 166.74 80.23 167.03C80.17 167.32 79.95 167.54 79.73 167.49C79.52 167.45 79.4 167.17 79.46 166.87C79.51 166.58 79.73 166.37 79.94 166.41Z" />
	<path id="Layer" class="shp14" d="M78.63 160.84L83.21 161.72L80.5 167.17L79.14 166.91L78.63 160.84Z" />
	<path id="Layer" class="shp7" d="M87.39 98.28C87.29 98.28 87.2 98.26 87.11 98.21C87.03 98.17 86.96 98.1 86.9 98.02C86.85 97.93 86.82 97.84 86.81 97.74C86.81 97.65 86.83 97.55 86.87 97.46C89.74 91.3 92.08 78.42 92.39 75.35C92.44 74.91 92.6 74.49 92.86 74.13C93.13 73.77 93.48 73.48 93.9 73.31L95.41 72.65C95.48 72.62 95.56 72.61 95.63 72.6C95.71 72.6 95.78 72.62 95.85 72.64C95.93 72.67 95.99 72.71 96.04 72.77C96.1 72.82 96.14 72.88 96.17 72.95C96.2 73.02 96.22 73.09 96.22 73.17C96.22 73.25 96.21 73.32 96.18 73.39C96.15 73.46 96.11 73.53 96.06 73.58C96.01 73.64 95.95 73.68 95.88 73.71L94.36 74.37C94.14 74.46 93.95 74.61 93.8 74.81C93.66 75 93.57 75.23 93.55 75.47C93.22 78.69 90.9 91.57 87.92 97.95C87.88 98.05 87.8 98.14 87.71 98.2C87.61 98.26 87.5 98.29 87.39 98.28Z" />
	<path id="Layer" class="shp16" d="M66.01 73.68C64.86 75.66 63.69 77.76 62.59 79.82C62.05 80.86 61.52 81.9 61.02 82.94C60.51 83.99 60.04 85.04 59.62 86.09L59.55 86.28C59.53 86.31 59.52 86.34 59.51 86.38C59.49 86.53 59.48 86.69 59.48 86.84C59.5 87.3 59.57 87.76 59.68 88.21C59.94 89.27 60.28 90.32 60.7 91.34C61.11 92.41 61.58 93.48 62.09 94.56C62.59 95.64 63.11 96.71 63.61 97.76L61.41 99.26C59.77 97.35 58.3 95.29 57.04 93.11C56.38 91.96 55.81 90.75 55.35 89.51C55.1 88.79 54.91 88.06 54.79 87.32C54.73 86.87 54.71 86.41 54.74 85.96C54.76 85.69 54.79 85.42 54.85 85.16C54.88 85.02 54.92 84.87 54.97 84.73L55.04 84.49C55.79 82.07 56.72 79.71 57.82 77.43C58.9 75.17 60.11 72.97 61.44 70.85L66.01 73.68Z" />
	<path id="Layer" class="shp16" d="M63.27 97.09L65.34 98.71L62.18 101.32C62.18 101.32 60.73 99.93 60.96 98.22L63.27 97.09Z" />
	<path id="Layer" class="shp16" d="M66.19 101.06L64.07 103.78L62.17 101.32L65.34 98.71L66.19 101.06Z" />
	<path id="Layer" class="shp14" d="M78.18 53.79C78.37 53.76 78.56 53.95 78.62 54.23C78.68 54.51 78.57 54.8 78.39 54.8C78.21 54.8 78.01 54.62 77.95 54.34C77.92 54.06 78 53.81 78.18 53.79Z" />
	<path id="Layer" class="shp17" d="M78.2 54.82C78.71 55.61 79.33 56.33 80.03 56.95C79.87 57.13 79.67 57.27 79.44 57.36C79.22 57.45 78.98 57.49 78.74 57.48L78.2 54.82Z" />
	<path id="Layer" class="shp14" d="M76.62 52.99C76.58 52.99 76.54 52.97 76.51 52.94C76.5 52.93 76.48 52.91 76.48 52.89C76.47 52.87 76.46 52.85 76.46 52.82C76.46 52.8 76.47 52.78 76.48 52.76C76.48 52.74 76.5 52.72 76.51 52.71C76.69 52.5 76.91 52.35 77.16 52.25C77.41 52.15 77.68 52.12 77.94 52.15C77.96 52.15 77.98 52.16 78 52.17C78.02 52.18 78.04 52.2 78.05 52.22C78.06 52.23 78.07 52.25 78.08 52.28C78.08 52.3 78.08 52.32 78.08 52.34C78.08 52.36 78.07 52.38 78.06 52.4C78.04 52.42 78.03 52.44 78.01 52.45C77.99 52.46 77.97 52.47 77.95 52.48C77.93 52.48 77.91 52.48 77.89 52.48C77.68 52.46 77.46 52.49 77.27 52.57C77.07 52.65 76.9 52.78 76.76 52.94C76.74 52.96 76.72 52.97 76.7 52.98C76.67 52.99 76.65 52.99 76.62 52.99Z" />
	<path id="Layer" class="shp16" d="M74.93 62.52C74.43 64.55 74.35 66.7 77.25 67.39C77.25 67.39 80.02 70.03 74.71 70.03C69.88 70.03 69.17 67.39 69.17 67.39C70.99 65.66 70.48 60.89 69.97 58.29L74.93 62.52Z" />
	<path id="Layer" class="shp7" d="M68.14 67.59C67.75 66.66 68.6 63.87 69.46 63.61C70.43 63.31 74.1 63.48 75.96 64.25C77.26 65.56 77.64 68.3 77.64 68.3L68.14 67.59Z" />
	<path id="Layer" fill-rule="evenodd" class="shp9" d="M52.08 188.8C52.07 188.79 52.05 188.78 52.05 188.76C52.04 188.75 52.03 188.73 52.03 188.72C52.03 188.7 52.04 188.69 52.05 188.67C52.06 188.66 52.07 188.65 52.08 188.64C52.13 188.63 53.25 188.18 53.71 188.4C53.76 188.43 53.81 188.46 53.85 188.5C53.89 188.55 53.91 188.6 53.93 188.65C53.96 188.72 53.97 188.79 53.95 188.86C53.94 188.93 53.9 189 53.85 189.04C53.71 189.11 53.56 189.15 53.41 189.16C53.26 189.16 53.11 189.14 52.97 189.09C52.66 189.03 52.36 188.93 52.08 188.8ZM52.35 188.73C52.84 188.91 53.55 189.07 53.74 188.91C53.77 188.9 53.81 188.85 53.77 188.7C53.76 188.67 53.74 188.64 53.72 188.61C53.7 188.59 53.67 188.57 53.64 188.56L53.54 188.52C53.13 188.5 52.73 188.57 52.35 188.73Z" />
	<path id="Layer" fill-rule="evenodd" class="shp9" d="M52.04 188.79C52.03 188.78 52.03 188.76 52.03 188.75C52.03 188.73 52.03 188.72 52.04 188.7C52.05 188.66 52.36 187.67 52.82 187.43C52.88 187.4 52.94 187.38 53.01 187.38C53.07 187.37 53.14 187.38 53.2 187.41C53.26 187.42 53.31 187.45 53.35 187.5C53.39 187.55 53.41 187.61 53.41 187.67C53.4 188.08 52.54 188.69 52.14 188.81L52.1 188.81L52.04 188.79ZM52.9 187.58C52.59 187.84 52.37 188.19 52.26 188.58C52.67 188.37 53.24 187.9 53.24 187.66C53.24 187.64 53.24 187.59 53.14 187.55L53.1 187.55C53.03 187.54 52.96 187.55 52.9 187.58Z" />
	<path id="Layer" fill-rule="evenodd" class="shp9" d="M77.53 189.59C77.52 189.58 77.5 189.57 77.49 189.56C77.48 189.55 77.47 189.54 77.47 189.52C77.47 189.5 77.47 189.49 77.48 189.47C77.48 189.45 77.5 189.44 77.51 189.43C77.56 189.4 78.81 188.69 79.4 188.86C79.45 188.87 79.5 188.89 79.55 188.93C79.6 188.96 79.64 189 79.66 189.05C79.7 189.1 79.72 189.17 79.72 189.24C79.72 189.3 79.7 189.37 79.66 189.42C79.52 189.62 79.08 189.69 78.62 189.69C78.26 189.69 77.89 189.65 77.53 189.59ZM77.79 189.47C78.45 189.56 79.34 189.55 79.51 189.32C79.55 189.29 79.57 189.24 79.51 189.14C79.49 189.1 79.47 189.08 79.44 189.06C79.42 189.04 79.38 189.03 79.35 189.02C79.3 189 79.24 189 79.19 189C78.69 189.06 78.22 189.22 77.79 189.47Z" />
	<path id="Layer" fill-rule="evenodd" class="shp9" d="M77.5 189.58C77.49 189.57 77.48 189.56 77.47 189.55C77.46 189.53 77.46 189.52 77.46 189.51C77.47 189.47 77.55 188.51 78.02 188.14C78.08 188.08 78.15 188.04 78.23 188.02C78.31 187.99 78.4 187.98 78.48 187.99C78.71 188.02 78.8 188.13 78.8 188.23C78.86 188.63 78.01 189.4 77.58 189.59L77.55 189.59C77.53 189.59 77.51 189.59 77.5 189.58ZM78.12 188.25C77.86 188.56 77.69 188.94 77.66 189.35C78.09 189.08 78.67 188.48 78.63 188.24C78.62 188.22 78.62 188.15 78.47 188.15L78.42 188.15C78.31 188.15 78.2 188.19 78.12 188.25Z" />
	<path id="Layer" class="shp16" d="M73.99 181.28L77.55 181.28L77.2 189.51L73.64 189.51L73.99 181.28Z" />
	<path id="Layer" class="shp16" d="M50.51 180.19L54.08 180.95L51.56 188.61L47.99 187.86L50.51 180.19Z" />
	<path id="Layer" class="shp7" d="M52.49 188.6C53.17 189.55 54.24 190.58 56.79 191.74C57.36 192 56.85 193.4 55.4 193.09C53.94 192.77 51.56 192.19 50.5 191.97C48.78 191.59 48.11 191.53 46.74 191.26C46.66 191.25 46.59 191.21 46.53 191.16C46.46 191.12 46.41 191.06 46.38 190.99C46.34 190.92 46.32 190.84 46.32 190.76C46.32 190.68 46.33 190.6 46.36 190.53L47.72 187.59C47.75 187.53 47.8 187.47 47.86 187.44C47.92 187.41 48 187.4 48.07 187.42L51.97 188.26C52.18 188.31 52.36 188.43 52.49 188.6Z" />
	<path id="Layer" class="shp7" d="M78.05 189.37C80.45 190.85 80.14 190.92 82.93 191.53C83.53 191.66 83.14 193.13 81.67 193.13C79.26 193.13 80.06 193.02 78 193.02C76.24 193.02 74.21 193.1 72.82 193.13C72.74 193.13 72.66 193.11 72.59 193.08C72.52 193.05 72.46 193 72.41 192.94C72.36 192.88 72.32 192.8 72.31 192.73C72.29 192.65 72.29 192.57 72.31 192.5L73.01 189.34C73.03 189.27 73.06 189.21 73.12 189.16C73.17 189.12 73.24 189.09 73.31 189.09L77.17 189.09C77.49 189.1 77.79 189.2 78.05 189.37Z" />
	<path id="Layer" class="shp7" d="M66.96 76.02C66.37 78.48 65.15 80.75 63.41 82.59L56.73 77.49C56.73 77.49 59.47 68.97 62.8 68.21C66.21 67.41 68.11 71.53 66.96 76.02Z" />
	<path id="Layer" class="shp18" d="M67.14 75.2C67.09 75.46 67.03 75.73 66.96 75.99C66.37 78.46 65.15 80.72 63.41 82.56L63.12 82.34C63.26 79.5 63.85 76.24 65.66 74.45L67.14 75.2Z" />
	<path id="Layer" class="shp14" d="M82.72 68.38C82.72 68.38 86.5 72.65 82.93 99.1L63.9 99.1C63.77 96.18 65.61 81.93 62.79 68.19C64.89 67.79 67.02 67.52 69.15 67.39C71.85 67.23 74.55 67.23 77.24 67.39C79.09 67.58 80.92 67.91 82.72 68.38Z" />
	<path id="Layer" class="shp18" d="M77.55 181.28L77.37 185.52L73.81 185.52L73.99 181.28L77.55 181.28Z" />
	<path id="Layer" class="shp18" d="M50.51 180.19L54.08 180.95L52.78 184.9L49.21 184.15L50.51 180.19Z" />
	<path id="Layer" class="shp16" d="M68.43 53.23C68.62 52.43 69.02 51.69 69.57 51.09C70.13 50.49 70.83 50.03 71.61 49.78C72.38 49.52 73.22 49.47 74.02 49.62C77.69 50.31 79.19 55.34 79.08 58.58C78.96 62.2 75.02 64.64 71.86 62.51C69.75 61.09 69.41 59.05 68.48 55.65C68.26 54.86 68.24 54.02 68.43 53.23Z" />
	<path id="Layer" class="shp16" d="M71.88 62.12L71.83 62.12C71.28 62.12 70.74 61.99 70.25 61.74C69.76 61.49 69.34 61.13 69.02 60.69C67.95 59.2 66.45 56.61 66.28 53.63C67.63 52.2 72.72 51.26 74.99 51.77C76.88 52.2 76.61 57.58 74.82 60.49C74.51 60.99 74.07 61.4 73.56 61.68C73.04 61.97 72.47 62.12 71.88 62.12Z" />
	<path id="Layer" class="shp19" d="M71.88 62.12L71.83 62.12C71.28 62.12 70.74 61.99 70.25 61.74C69.76 61.49 69.34 61.13 69.02 60.69C67.95 59.2 66.45 56.61 66.28 53.63C67.63 52.2 72.72 51.26 74.99 51.77C76.88 52.2 76.61 57.58 74.82 60.49C74.51 60.99 74.07 61.4 73.56 61.68C73.04 61.97 72.47 62.12 71.88 62.12Z" />
	<path id="Layer" class="shp7" d="M68.34 54.84C67.73 54.82 67.14 54.63 66.65 54.27C66.15 53.92 65.77 53.43 65.56 52.86C65.16 51.65 65.58 49.1 68.01 49.03C70.44 48.96 70.69 47.57 69.94 47.29C71.53 47.41 71.02 48.52 71.02 48.52C71.45 48.52 71.85 47.38 74.27 47.47C76.7 47.56 77.88 47.04 77.57 46.5C78.72 46.73 78.4 48.13 77.43 48.5C77.43 48.5 79.72 50.24 80.27 49.29C80.65 49.98 79.89 50.82 76.99 50.44C78.15 52.06 75.41 51.69 74.24 52.43C73.08 53.16 69.94 54.96 68.34 54.84Z" />
	<path id="Layer" class="shp16" d="M75.63 53.86C76.65 54.13 77.21 55.64 77.26 56.57C77.33 57.61 76.64 58.3 75.71 57.61C75.01 57.08 74.51 56.33 74.28 55.49C74.01 54.46 74.62 53.58 75.63 53.86Z" />
	<path id="Layer" class="shp7" d="M76.18 99.1C76.18 99.1 72.15 126.26 69.93 136.43C67.51 147.57 54.51 184.44 54.51 184.44L48.14 183.05C48.14 183.05 57.24 153 59.28 137.43C60.84 125.46 63.92 99.08 63.92 99.08L76.18 99.1Z" />
	<path id="Layer" class="shp9" d="M56.03 182.32L54.84 184.64L47.69 183.09L48.29 180.94L56.03 182.32Z" />
	<path id="Layer" class="shp20" d="M74.67 108.9C73.34 117.54 71.37 129.7 70.03 136.03C69.46 127.08 68.97 109.7 73.63 108.78C73.98 108.7 74.35 108.75 74.67 108.9Z" />
	<path id="Layer" class="shp7" d="M82.93 99.1C82.93 99.1 83.42 125.67 83.03 136.51C82.63 147.78 78.69 184.7 78.69 184.7L72.66 184.7C72.66 184.7 72.44 148.44 72.17 137.37C71.88 125.31 70.42 99.1 70.42 99.1L82.93 99.1Z" />
	<path id="Layer" class="shp9" d="M79.85 182.3C79.88 182.3 79.51 184.8 79.51 184.8L72.18 184.8L71.99 182.57L79.85 182.3Z" />
	<path id="Layer" class="shp13" d="M82.81 67.91C83.73 68.29 84.63 68.98 84.9 71.28C85.16 73.48 84.66 92.8 84.05 98.97C84.05 99.18 83.96 99.38 83.82 99.54C83.67 99.69 83.48 99.79 83.27 99.82C79.47 99.98 67.7 98.39 63.73 99.09C63.26 99.17 62.86 98.66 62.89 98.2C63.2 92.19 62.75 82.49 62.01 76.33C61.55 72.31 61.55 68.1 64.9 67.39C67.4 66.86 79.18 66.39 82.81 67.91Z" />
	<path id="Layer" class="shp16" d="M84.28 73.24C84.49 74.26 84.74 75.37 84.97 76.43C85.2 77.49 85.49 78.56 85.79 79.6C86.09 80.65 86.39 81.67 86.74 82.65C87.06 83.58 87.46 84.48 87.93 85.34C88.11 85.67 88.31 85.98 88.55 86.27C88.64 86.36 88.71 86.43 88.73 86.45C88.74 86.47 88.73 86.49 88.81 86.52C89.11 86.62 89.43 86.66 89.74 86.64C90.21 86.62 90.67 86.57 91.13 86.49C93.23 86.05 95.29 85.44 97.29 84.68L98.64 87C96.72 88.54 94.57 89.77 92.27 90.64C91.63 90.87 90.97 91.05 90.29 91.17C89.48 91.33 88.64 91.34 87.83 91.21C87.3 91.12 86.79 90.95 86.32 90.7C85.89 90.46 85.5 90.17 85.14 89.84C84.57 89.31 84.07 88.72 83.65 88.07C82.34 85.91 81.32 83.59 80.63 81.17C80.28 80.02 79.96 78.88 79.7 77.72C79.44 76.56 79.18 75.44 78.98 74.21L84.28 73.24Z" />
	<path id="Layer" class="shp7" d="M85.46 71.26C86.67 74.14 87.54 77.15 88.08 80.23L80.43 84.22C80.43 84.22 73.57 77.65 76.46 71.85C78.12 68.51 83.24 66.31 85.46 71.26Z" />
	<path id="Layer" class="shp16" d="M96.58 85L99.17 83.3L100.25 87.18C100.25 87.18 99.09 88.54 96.96 87.06L96.58 85Z" />
	<path id="Layer" class="shp16" d="M101.43 84.87L101.35 85.68C101.31 86.07 101.12 86.44 100.82 86.69L100.25 87.16L99.17 83.28L99.5 83.19C99.74 83.13 100 83.13 100.24 83.19C100.49 83.24 100.71 83.36 100.9 83.52C101.09 83.69 101.24 83.9 101.33 84.13C101.42 84.36 101.46 84.62 101.43 84.87Z" />
</svg>