<svg version="1.2" baseProfile="tiny-ps" xmlns="http://www.w3.org/2000/svg" viewBox="0 0 212 212" width="212" height="212">
	<title>no-notification-svg</title>
	<style>
		tspan { white-space:pre }
		.shp0 { fill: #f5f5f5 } 
		.shp1 { fill: #e0e0e0 } 
		.shp2 { fill: #e6e6e6 } 
		.shp3 { fill: #ebebeb } 
		.shp4 { fill: #fafafa } 
		.shp5 { fill: #651d32 } 
		.shp6 { opacity: 0.4;fill: #000000 } 
		.shp7 { fill: #ffffff } 
		.shp8 { fill: #551326 } 
		.shp9 { fill: #263238 } 
		.shp10 { opacity: 0.2;fill: #000000 } 
		.shp11 { opacity: 0.302;fill: #000000 } 
		.shp12 { opacity: 0.102;fill: #000000 } 
		.shp13 { opacity: 0.502;fill: #ffffff } 
		.shp14 { opacity: 0.702;fill: #ffffff } 
		.shp15 { fill: #ffa8a7 } 
		.shp16 { fill: #b54163 } 
		.shp17 { fill: #f28f8f } 
		.shp18 { fill: #37474f } 
		.shp19 { fill: #455a64 } 
	</style>
	<path id="Layer" class="shp0" d="M11.31 150.18C11.31 119.99 53.71 95.51 106 95.51C158.29 95.51 200.69 119.99 200.69 150.18C200.69 180.38 158.29 204.85 106 204.85C53.71 204.85 11.31 180.38 11.31 150.18Z" />
	<path id="Layer" class="shp1" d="M142.98 131.93C142.91 131.81 142.87 131.67 142.87 131.53C142.88 131.4 142.91 131.26 142.98 131.14C143.05 131.02 143.15 130.92 143.27 130.85L161.03 120.65C161.43 120.42 161.88 120.3 162.34 120.3C162.81 120.3 163.26 120.42 163.66 120.65L195.55 139.01C195.67 139.08 195.77 139.18 195.84 139.3C195.91 139.42 195.94 139.56 195.94 139.69C195.94 139.83 195.91 139.97 195.84 140.09C195.77 140.21 195.67 140.31 195.55 140.38L177.8 150.63C177.4 150.86 176.95 150.99 176.48 150.99C176.02 150.99 175.56 150.86 175.16 150.63L143.26 132.22C143.15 132.15 143.05 132.05 142.98 131.93Z" />
	<path id="Layer" class="shp1" d="M118.17 125.37L41.45 169.77C40.83 170.13 40.12 170.32 39.4 170.33C38.68 170.33 37.97 170.15 37.34 169.79L17.41 158.51C17.2 158.39 17.03 158.22 16.91 158.01C16.79 157.81 16.73 157.57 16.73 157.34C16.73 157.1 16.79 156.86 16.91 156.66C17.03 156.45 17.2 156.28 17.41 156.16L93.98 111.94C94.6 111.58 95.31 111.39 96.03 111.38C96.74 111.38 97.45 111.56 98.08 111.91L118.15 123.16C118.35 123.27 118.51 123.43 118.63 123.62C118.74 123.81 118.8 124.04 118.81 124.26C118.81 124.49 118.75 124.71 118.64 124.9C118.53 125.1 118.36 125.26 118.17 125.37Z" />
	<path id="Layer" class="shp1" d="M109.4 157.78C109.4 151.06 118.82 145.62 130.45 145.62C142.07 145.62 151.5 151.06 151.5 157.78C151.5 164.49 142.07 169.93 130.45 169.93C118.82 169.93 109.4 164.49 109.4 157.78Z" />
	<path id="Layer" class="shp1" d="M168.64 160.53C168.64 158.19 171.93 156.29 175.98 156.29C180.03 156.29 183.32 158.19 183.32 160.53C183.32 162.87 180.03 164.77 175.98 164.77C171.93 164.77 168.64 162.87 168.64 160.53Z" />
	<path id="Layer" class="shp2" d="M194.35 83.3L194.35 139.2L176.23 149.68L176.22 93.72L194.35 83.3Z" />
	<path id="Layer" class="shp3" d="M145.45 76.05L176.23 93.77L176.23 149.68L145.44 131.9L145.45 76.05Z" />
	<path id="Layer" class="shp0" d="M163.57 65.58L194.35 83.3L176.23 93.77L145.44 76L163.57 65.58Z" />
	<path id="Layer" class="shp4" d="M148.45 95.85C148.31 95.6 148.24 95.31 148.24 95.02L148.24 83.21C148.24 83.09 148.27 82.98 148.33 82.87C148.39 82.77 148.47 82.69 148.57 82.63C148.68 82.57 148.79 82.54 148.91 82.54C149.03 82.54 149.15 82.57 149.25 82.62L172.6 96.08C172.86 96.23 173.07 96.43 173.22 96.69C173.37 96.94 173.45 97.23 173.45 97.52L173.45 109.39C173.45 109.5 173.42 109.62 173.36 109.72C173.3 109.83 173.21 109.91 173.11 109.97C173.01 110.03 172.89 110.06 172.78 110.06C172.66 110.06 172.54 110.03 172.44 109.97L149.05 96.46C148.8 96.31 148.59 96.1 148.45 95.85Z" />
	<path id="Layer" class="shp1" d="M162.9 93.49C162.82 93.49 162.74 93.47 162.67 93.42L158.54 91.05C158.44 90.98 158.38 90.88 158.35 90.77C158.33 90.66 158.34 90.54 158.4 90.44C158.46 90.34 158.55 90.26 158.66 90.22C158.77 90.19 158.89 90.2 159 90.24L163.13 92.62C163.21 92.68 163.27 92.75 163.31 92.85C163.34 92.94 163.35 93.04 163.32 93.13C163.3 93.23 163.24 93.31 163.16 93.37C163.09 93.43 162.99 93.47 162.9 93.47L162.9 93.49Z" />
	<path id="Layer" class="shp4" d="M148.46 112.43C148.31 112.18 148.24 111.9 148.24 111.61L148.24 99.8C148.24 99.68 148.27 99.56 148.33 99.46C148.39 99.36 148.47 99.28 148.58 99.22C148.68 99.16 148.79 99.13 148.91 99.13C149.03 99.13 149.15 99.16 149.25 99.22L172.6 112.64C172.86 112.79 173.07 113 173.22 113.25C173.37 113.5 173.45 113.79 173.45 114.08L173.45 125.95C173.45 126.07 173.42 126.19 173.36 126.29C173.3 126.39 173.21 126.47 173.11 126.53C173.01 126.59 172.89 126.62 172.78 126.62C172.66 126.62 172.54 126.59 172.44 126.53L149.05 113.03C148.8 112.88 148.6 112.67 148.46 112.43Z" />
	<path id="Layer" class="shp1" d="M162.9 110.05C162.82 110.05 162.74 110.03 162.67 109.99L158.54 107.62C158.44 107.55 158.38 107.45 158.35 107.33C158.33 107.22 158.34 107.1 158.4 107C158.46 106.9 158.55 106.83 158.66 106.79C158.77 106.75 158.89 106.76 159 106.81L163.13 109.19C163.21 109.24 163.27 109.32 163.31 109.41C163.34 109.5 163.35 109.6 163.32 109.7C163.3 109.79 163.24 109.88 163.16 109.94C163.09 110 162.99 110.03 162.9 110.04L162.9 110.05Z" />
	<path id="Layer" class="shp4" d="M148.45 128.98C148.31 128.73 148.24 128.44 148.24 128.15L148.24 116.33C148.24 116.22 148.27 116.1 148.33 116C148.39 115.9 148.47 115.81 148.58 115.75C148.68 115.69 148.79 115.66 148.91 115.66C149.03 115.66 149.15 115.69 149.25 115.75L172.6 129.21C172.86 129.35 173.07 129.56 173.22 129.81C173.37 130.07 173.45 130.35 173.45 130.65L173.45 142.52C173.45 142.64 173.42 142.75 173.36 142.85C173.3 142.96 173.21 143.04 173.11 143.1C173.01 143.16 172.89 143.19 172.78 143.19C172.66 143.19 172.54 143.16 172.44 143.1L149.05 129.59C148.8 129.45 148.59 129.24 148.45 128.98Z" />
	<path id="Layer" class="shp1" d="M162.9 126.62C162.82 126.62 162.74 126.6 162.67 126.56L158.54 124.18C158.49 124.15 158.44 124.11 158.4 124.06C158.37 124.01 158.34 123.96 158.32 123.9C158.31 123.84 158.3 123.78 158.31 123.72C158.32 123.66 158.34 123.6 158.37 123.55C158.4 123.5 158.44 123.45 158.49 123.41C158.53 123.38 158.59 123.35 158.65 123.33C158.71 123.32 158.77 123.31 158.83 123.32C158.89 123.33 158.95 123.35 159 123.38L163.13 125.76C163.18 125.79 163.23 125.83 163.27 125.88C163.3 125.92 163.33 125.98 163.34 126.04C163.36 126.1 163.37 126.16 163.36 126.22C163.35 126.28 163.33 126.34 163.3 126.39C163.26 126.46 163.2 126.52 163.13 126.56C163.06 126.6 162.98 126.62 162.9 126.62Z" />
	<path id="Layer" class="shp4" d="M177.64 44.85L177.64 59.81L164.69 52.33L164.69 37.38L177.64 44.85Z" />
	<path id="Layer" fill-rule="evenodd" class="shp1" d="M165.4 36.97L165.39 36.97L165.38 36.97L165.4 36.97ZM165.39 36.97L178.35 44.45L178.35 59.38L177.66 59.8L164.7 52.35L164.7 37.39L165.39 36.97ZM166.09 38.18L166.11 38.19L166.11 38.18L166.09 38.18ZM166.11 38.19L166.11 51.52L177.66 58.19L177.66 44.85L166.11 38.19Z" />
	<path id="Layer" fill-rule="evenodd" class="shp3" d="M164.69 37.38L177.66 44.85L177.66 59.8L164.69 52.33L164.69 37.38ZM165.38 51.92L176.94 58.59L176.94 45.25L165.38 38.58L165.38 51.92Z" />
	<path id="Layer" class="shp1" d="M169.44 46.5L171.49 49.41L173.49 47.03L176.38 54.56L166.59 48.91L169.44 46.5Z" />
	<path id="Layer" class="shp1" d="M170.88 43.69C171.14 43.86 171.36 44.09 171.51 44.36C171.67 44.63 171.76 44.93 171.78 45.24C171.78 45.81 171.37 46.04 170.88 45.76C170.62 45.59 170.4 45.36 170.25 45.09C170.09 44.82 170 44.52 169.99 44.21C169.99 43.64 170.38 43.41 170.88 43.69Z" />
	<path id="Layer" class="shp4" d="M191.83 61.43L191.83 73.35L181.52 67.39L181.52 55.48L191.83 61.43Z" />
	<path id="Layer" fill-rule="evenodd" class="shp1" d="M182.07 55.18L192.39 61.11L192.39 73.03L191.83 73.35L181.52 67.43L181.52 55.52L182.07 55.2L182.07 55.18ZM182.63 66.77L191.83 72.08L191.83 61.43L182.63 56.12L182.63 66.77Z" />
	<path id="Layer" fill-rule="evenodd" class="shp3" d="M181.52 55.5L191.83 61.44L191.83 73.35L181.52 67.39L181.52 55.5ZM182.07 67.07L191.28 72.38L191.28 61.76L182.07 56.45L182.07 67.07Z" />
	<path id="Layer" class="shp1" d="M185.3 62.74L186.93 65.07L188.53 63.17L190.83 69.17L183.03 64.66L185.3 62.74Z" />
	<path id="Layer" class="shp1" d="M186.45 60.5C186.66 60.63 186.83 60.82 186.95 61.03C187.08 61.25 187.15 61.49 187.16 61.73C187.16 62.2 186.84 62.38 186.45 62.16C186.24 62.02 186.07 61.84 185.95 61.63C185.82 61.41 185.75 61.17 185.74 60.92C185.74 60.47 186.06 60.28 186.45 60.5Z" />
	<path id="Layer" class="shp5" d="M176.41 149.72C176.41 149.72 171.9 145.32 174.47 137.94C175.91 133.81 180.68 130.77 183.38 130.48C182.48 131.55 181.76 132.76 181.26 134.06L177.84 136.33L180.98 135.35L180.31 138.04C180.31 138.04 177.39 139.81 176.96 140.19L180.11 139.37C180.11 139.37 179.88 146.98 176.41 149.72Z" />
	<path id="Layer" class="shp6" d="M176.41 149.72C176.41 149.72 171.9 145.32 174.47 137.94C175.91 133.81 180.68 130.77 183.38 130.48C182.48 131.55 181.76 132.76 181.26 134.06L177.84 136.33L180.98 135.35L180.31 138.04C180.31 138.04 177.39 139.81 176.96 140.19L180.11 139.37C180.11 139.37 179.88 146.98 176.41 149.72Z" />
	<path id="Layer" class="shp7" d="M176.41 149.72C176.41 149.72 174.08 140.5 177.53 135.13C177.53 135.13 173.48 139.87 176.41 149.72Z" />
	<path id="Layer" class="shp8" d="M179.56 160.53C178.98 161.28 177.62 161.81 176.04 161.81C174.46 161.81 173.11 161.27 172.53 160.53C170.43 157.75 170.5 150.97 170.5 150.97L176.01 150.9L176.06 150.9L181.57 150.97C181.57 150.97 181.64 157.76 179.56 160.53Z" />
	<path id="Layer" class="shp8" d="M181.57 150.97C181.57 152.61 179.09 153.94 176.03 153.94C172.96 153.94 170.48 152.6 170.48 150.97C170.48 149.34 172.97 148 176.03 148C179.09 148 181.57 149.32 181.57 150.97Z" />
	<path id="Layer" class="shp9" d="M171.94 151.64C171.79 151.44 171.72 151.21 171.71 150.97C171.71 149.8 173.65 148.85 176.03 148.85C178.41 148.85 180.34 149.79 180.34 150.97C180.34 151.21 180.26 151.44 180.12 151.64C179.55 150.79 177.94 150.18 176.03 150.18C174.12 150.18 172.5 150.79 171.94 151.64Z" />
	<path id="Layer" class="shp1" d="M180.12 151.64C179.55 152.49 177.94 153.1 176.03 153.1C174.12 153.1 172.5 152.49 171.94 151.64C172.5 150.79 174.12 150.18 176.03 150.18C177.94 150.18 179.55 150.79 180.12 151.64Z" />
	<path id="Layer" class="shp5" d="M176.1 152.01C176.1 152.01 173.98 151.93 172.13 149.09C171.37 147.92 171 147.3 171 147.3L173.97 147.08L170.63 146.23L169.06 143.82L171.83 143.61C170.68 143.21 169.5 142.96 168.29 142.88C168.29 142.88 165.75 138.36 164.99 137.72C166.93 137.84 168.82 138.34 170.56 139.21C172.3 140.07 173.85 141.28 175.11 142.75C179.3 147.72 176.72 152.13 176.1 152.01Z" />
	<path id="Layer" class="shp7" d="M176.1 152.01C176.1 152.01 177.44 143.95 168.89 139.11C168.9 139.11 177.76 143.37 176.1 152.01Z" />
	<path id="Layer" class="shp5" d="M177.87 143.74C179.15 142.54 180.66 141.6 182.3 141C183.95 140.39 185.7 140.11 187.45 140.19C186.72 140.72 183.99 144.53 183.99 144.53C182.89 144.5 181.79 144.61 180.73 144.86L183.21 145.31L181.56 147.34L178.47 147.76L181.13 148.24C181.13 148.24 180.75 148.76 179.95 149.75C178.03 152.13 176.1 152.01 176.1 152.01C175.54 152.06 173.62 147.84 177.87 143.74Z" />
	<path id="Layer" class="shp10" d="M177.87 143.74C179.15 142.54 180.66 141.6 182.3 141C183.95 140.39 185.7 140.11 187.45 140.19C186.72 140.72 183.99 144.53 183.99 144.53C182.89 144.5 181.79 144.61 180.73 144.86L183.21 145.31L181.56 147.34L178.47 147.76L181.13 148.24C181.13 148.24 180.75 148.76 179.95 149.75C178.03 152.13 176.1 152.01 176.1 152.01C175.54 152.06 173.62 147.84 177.87 143.74Z" />
	<path id="Layer" class="shp7" d="M176.1 152.01C176.1 152.01 175.65 144.62 183.8 141.05C183.8 141.05 175.41 144.05 176.1 152.01Z" />
	<path id="Layer" class="shp5" d="M91.16 49.42C91.38 49.8 91.49 50.23 91.49 50.67L91.49 111.59C91.49 112.68 91.2 113.75 90.65 114.7C90.11 115.64 89.32 116.43 88.38 116.98L22.11 155.24C21.58 155.54 20.98 155.7 20.37 155.7C19.75 155.7 19.15 155.54 18.62 155.24C18.09 154.93 17.65 154.49 17.34 153.96C17.04 153.43 16.88 152.83 16.88 152.22L16.88 94.58C16.87 92.97 17.3 91.39 18.1 90C18.9 88.61 20.06 87.46 21.45 86.66L87.65 48.45C87.97 48.26 88.33 48.15 88.69 48.12C89.06 48.08 89.43 48.13 89.77 48.26L89.79 48.26L89.99 48.34L91.92 49.12L91.16 49.42Z" />
	<path id="Layer" class="shp11" d="M91.16 49.42C91.38 49.8 91.49 50.23 91.49 50.67L91.49 111.59C91.49 112.68 91.2 113.75 90.65 114.7C90.11 115.64 89.32 116.43 88.38 116.98L22.11 155.24C21.58 155.54 20.98 155.7 20.37 155.7C19.75 155.7 19.15 155.54 18.62 155.24C18.09 154.93 17.65 154.49 17.34 153.96C17.04 153.43 16.88 152.83 16.88 152.22L16.88 94.58C16.87 92.97 17.3 91.39 18.1 90C18.9 88.61 20.06 87.46 21.45 86.66L87.65 48.45C87.97 48.26 88.33 48.15 88.69 48.12C89.06 48.08 89.43 48.13 89.77 48.26L89.79 48.26L89.99 48.34L91.92 49.12L91.16 49.42Z" />
	<path id="Layer" class="shp5" d="M93.24 51.36L93.24 112.31C93.24 113.4 92.96 114.47 92.41 115.42C91.86 116.36 91.08 117.14 90.13 117.69L23.86 155.95C23.33 156.26 22.73 156.42 22.12 156.42C21.51 156.42 20.9 156.25 20.37 155.95C19.84 155.64 19.4 155.2 19.1 154.67C18.79 154.14 18.63 153.54 18.63 152.93L18.63 95.26C18.63 93.68 19.04 92.13 19.82 90.76C20.41 89.74 21.26 88.9 22.29 88.32L90.74 48.8C91.4 48.82 92.03 49.09 92.5 49.57C92.96 50.04 93.23 50.68 93.23 51.34L93.24 51.36Z" />
	<path id="Layer" class="shp12" d="M93.24 51.36L93.24 112.31C93.24 113.4 92.96 114.47 92.41 115.42C91.86 116.36 91.08 117.14 90.13 117.69L23.86 155.95C23.33 156.26 22.73 156.42 22.12 156.42C21.51 156.42 20.9 156.25 20.37 155.95C19.84 155.64 19.4 155.2 19.1 154.67C18.79 154.14 18.63 153.54 18.63 152.93L18.63 95.26C18.63 93.68 19.04 92.13 19.82 90.76C20.41 89.74 21.26 88.9 22.29 88.32L90.74 48.8C91.4 48.82 92.03 49.09 92.5 49.57C92.96 50.04 93.23 50.68 93.23 51.34L93.24 51.36Z" />
	<path id="Layer" class="shp5" d="M90.13 117.69L23.86 155.95C23.35 156.25 22.77 156.41 22.17 156.42C21.58 156.43 20.99 156.29 20.47 156.01L60.04 96.46L93.24 112.3C93.24 113.39 92.95 114.47 92.41 115.41C91.86 116.36 91.08 117.14 90.13 117.69Z" />
	<path id="Layer" class="shp10" d="M90.13 117.69L23.86 155.95C23.35 156.25 22.77 156.41 22.17 156.42C21.58 156.43 20.99 156.29 20.47 156.01L60.04 96.46L93.24 112.3C93.24 113.39 92.95 114.47 92.41 115.41C91.86 116.36 91.08 117.14 90.13 117.69Z" />
	<path id="Layer" class="shp5" d="M92.13 49.25L65.11 105.78C64.57 106.89 63.82 107.87 62.89 108.68C61.95 109.48 60.87 110.09 59.69 110.45C58.51 110.82 57.27 110.94 56.05 110.8C54.83 110.66 53.64 110.28 52.58 109.66L19.82 90.77C20.38 89.78 21.19 88.95 22.18 88.38L90.74 48.8C91.23 48.81 91.72 48.97 92.13 49.25Z" />
	<path id="Layer" class="shp5" d="M26.62 64.27C26.62 62.44 27.11 60.64 28.04 59.06C28.98 57.48 30.32 56.18 31.92 55.29L46.03 47.52L46.03 61.41L26.62 72.62L26.62 64.27Z" />
	<path id="Layer" class="shp13" d="M26.62 64.27C26.62 62.44 27.11 60.64 28.04 59.06C28.98 57.48 30.32 56.18 31.92 55.29L46.03 47.52L46.03 61.41L26.62 72.62L26.62 64.27Z" />
	<path id="Layer" class="shp5" d="M113.97 25.95C115.67 28.91 116.57 32.27 116.57 35.68L116.57 115.33C116.57 117.67 115.96 119.98 114.79 122.01C113.62 124.05 111.93 125.74 109.9 126.92L52.74 160.08L45.63 164.41L49.42 154.8L49.42 72.31C49.42 69.51 48.68 66.76 47.29 64.32C45.89 61.89 43.89 59.87 41.47 58.45L39.14 57.09C37.88 56.35 36.44 55.96 34.98 55.95C33.51 55.94 32.07 56.32 30.8 57.05C29.53 57.78 28.47 58.83 27.74 60.1C27.01 61.37 26.62 62.8 26.62 64.27C26.62 61.42 27.37 58.62 28.79 56.14C30.21 53.67 32.25 51.62 34.72 50.18L90.23 17.84C92.48 16.52 95.04 15.83 97.65 15.82C100.25 15.82 102.81 16.5 105.07 17.81L106.85 18.81C109.8 20.53 112.26 22.99 113.97 25.95Z" />
	<path id="Layer" class="shp14" d="M113.97 25.95C115.67 28.91 116.57 32.27 116.57 35.68L116.57 115.33C116.57 117.67 115.96 119.98 114.79 122.01C113.62 124.05 111.93 125.74 109.9 126.92L52.74 160.08L45.63 164.41L49.42 154.8L49.42 72.31C49.42 69.51 48.68 66.76 47.29 64.32C45.89 61.89 43.89 59.87 41.47 58.45L39.14 57.09C37.88 56.35 36.44 55.96 34.98 55.95C33.51 55.94 32.07 56.32 30.8 57.05C29.53 57.78 28.47 58.83 27.74 60.1C27.01 61.37 26.62 62.8 26.62 64.27C26.62 61.42 27.37 58.62 28.79 56.14C30.21 53.67 32.25 51.62 34.72 50.18L90.23 17.84C92.48 16.52 95.04 15.83 97.65 15.82C100.25 15.82 102.81 16.5 105.07 17.81L106.85 18.81C109.8 20.53 112.26 22.99 113.97 25.95Z" />
	<path id="Layer" class="shp5" d="M49.42 145.18L49.42 156.13C49.42 162.18 46.18 166.74 39.3 164.66C32.9 162.74 28.92 156.91 28.92 156.91L49.42 145.18Z" />
	<path id="Layer" class="shp13" d="M49.42 145.18L49.42 156.13C49.42 162.18 46.18 166.74 39.3 164.66C32.9 162.74 28.92 156.91 28.92 156.91L49.42 145.18Z" />
	<path id="Layer" class="shp7" d="M61.79 98.37C61.65 98.37 61.51 98.32 61.41 98.23C61.3 98.15 61.22 98.03 61.18 97.9C61.15 97.77 61.16 97.63 61.21 97.5C61.26 97.37 61.35 97.26 61.47 97.19L103.87 72.7C104.02 72.62 104.19 72.6 104.35 72.64C104.51 72.68 104.65 72.79 104.73 72.93C104.81 73.08 104.84 73.25 104.79 73.41C104.75 73.57 104.64 73.71 104.5 73.79L62.1 98.28C62 98.34 61.9 98.37 61.79 98.37Z" />
	<path id="Layer" class="shp7" d="M61.79 107.76C61.65 107.76 61.51 107.71 61.4 107.63C61.29 107.55 61.22 107.43 61.18 107.29C61.14 107.16 61.15 107.02 61.21 106.89C61.26 106.76 61.35 106.66 61.47 106.59L103.87 82.09C104.02 82.01 104.19 81.99 104.35 82.03C104.51 82.08 104.65 82.18 104.73 82.33C104.81 82.47 104.84 82.64 104.79 82.8C104.75 82.96 104.64 83.1 104.5 83.18L62.1 107.69C62 107.74 61.89 107.76 61.79 107.76Z" />
	<path id="Layer" class="shp7" d="M61.79 117.15C61.65 117.15 61.51 117.1 61.4 117.02C61.29 116.93 61.22 116.81 61.18 116.68C61.14 116.55 61.15 116.41 61.21 116.28C61.26 116.15 61.35 116.05 61.47 115.98L103.87 91.49C104.02 91.41 104.18 91.4 104.34 91.44C104.49 91.49 104.62 91.59 104.7 91.73C104.78 91.87 104.81 92.03 104.77 92.19C104.73 92.35 104.64 92.48 104.5 92.57L62.1 117.06C62 117.12 61.9 117.15 61.79 117.15Z" />
	<path id="Layer" class="shp7" d="M61.79 126.53C61.65 126.53 61.51 126.49 61.4 126.4C61.29 126.32 61.22 126.2 61.18 126.07C61.14 125.94 61.15 125.8 61.21 125.67C61.26 125.54 61.35 125.43 61.47 125.36L103.87 100.87C104.02 100.8 104.18 100.78 104.34 100.83C104.49 100.87 104.62 100.98 104.7 101.12C104.78 101.26 104.81 101.42 104.77 101.58C104.73 101.74 104.64 101.87 104.5 101.96L62.1 126.45C62 126.51 61.9 126.53 61.79 126.53Z" />
	<path id="Layer" class="shp7" d="M61.79 135.92C61.65 135.92 61.51 135.88 61.4 135.79C61.29 135.71 61.22 135.59 61.18 135.46C61.14 135.32 61.15 135.18 61.21 135.05C61.26 134.93 61.35 134.82 61.47 134.75L103.87 110.26C104.02 110.19 104.18 110.17 104.34 110.22C104.49 110.26 104.62 110.36 104.7 110.5C104.78 110.64 104.81 110.81 104.77 110.97C104.73 111.12 104.64 111.26 104.5 111.35L62.1 135.84C62 135.89 61.9 135.92 61.79 135.92Z" />
	<path id="Layer" class="shp7" d="M89.63 129.23C89.52 129.23 89.41 129.2 89.32 129.15C89.22 129.09 89.14 129.01 89.09 128.92C89.01 128.77 88.99 128.6 89.03 128.45C89.07 128.29 89.17 128.15 89.32 128.07L103.88 119.65C104.02 119.57 104.19 119.56 104.34 119.6C104.5 119.65 104.63 119.75 104.71 119.89C104.79 120.03 104.82 120.2 104.78 120.35C104.74 120.51 104.64 120.65 104.51 120.73L89.94 129.15C89.85 129.2 89.74 129.23 89.63 129.23Z" />
	<path id="Layer" class="shp5" d="M91.31 63.02L79.09 70.08L79.09 64.06C79.09 59.87 81.64 55.01 84.78 53.19L85.63 52.71C88.76 50.89 91.31 52.82 91.31 57L91.31 63.02Z" />
	<path id="Layer" class="shp5" d="M94.16 65.02L76.25 75.36L79.09 68.77L91.31 61.72L94.16 65.02Z" />
	<path id="Layer" class="shp5" d="M85.22 54.94C84.69 55.24 84.27 55 84.27 54.39L84.27 52.04C84.28 51.71 84.38 51.39 84.55 51.1C84.71 50.81 84.95 50.57 85.22 50.38C85.75 50.08 86.18 50.32 86.18 50.93L86.18 53.28C86.16 53.61 86.06 53.94 85.9 54.22C85.73 54.51 85.5 54.76 85.22 54.94Z" />
	<path id="Layer" class="shp5" d="M87.23 69.92C87.17 70.6 86.96 71.26 86.61 71.85C86.26 72.44 85.78 72.94 85.2 73.31C84.11 73.95 83.22 73.47 83.17 72.25L87.23 69.92Z" />
	<path id="Layer" class="shp5" d="M136.52 45C136.52 40.07 140.52 36.08 145.44 36.08C150.37 36.08 154.36 40.07 154.36 45C154.36 49.92 150.37 53.92 145.44 53.92C140.52 53.92 136.52 49.92 136.52 45Z" />
	<path id="Layer" class="shp5" d="M146.66 52.17C146.39 56.89 141.42 57.39 141.42 57.39C144.65 54.76 143.85 51.93 143.85 51.93L146.66 52.17Z" />
	<path id="Layer" class="shp7" d="M146.32 45.82L144.4 45.82L143.92 41.22L146.8 41.22L146.32 45.82ZM145.36 48.79C145.18 48.8 145.01 48.78 144.84 48.72C144.67 48.66 144.52 48.57 144.39 48.45C144.26 48.33 144.15 48.19 144.08 48.03C144 47.87 143.96 47.69 143.96 47.52C144 47.17 144.16 46.85 144.42 46.62C144.68 46.39 145.01 46.26 145.36 46.26C145.71 46.26 146.04 46.39 146.3 46.62C146.56 46.85 146.72 47.17 146.76 47.52C146.76 47.69 146.72 47.87 146.64 48.03C146.57 48.19 146.46 48.33 146.33 48.45C146.2 48.56 146.04 48.65 145.88 48.71C145.71 48.77 145.54 48.79 145.36 48.78L145.36 48.79Z" />
	<path id="Layer" class="shp15" d="M124.46 89.1C124.46 89.1 119.44 96.91 116.4 96.91C113.36 96.91 109.05 86.35 109.05 86.35C109.05 86.35 105.75 84.48 104.41 83.38C103.07 82.28 103.95 77.35 104.41 76.89C104.87 76.43 105.9 78.09 106.7 79.04C107.5 79.99 109.25 80.8 109.25 80.8C108.27 79.7 108.23 78.04 108.7 77.5C109.16 76.96 109.53 77.49 109.59 78.02C109.65 78.54 110.21 79.19 110.95 79.88C111.69 80.57 111.82 81.26 111.92 82.27C111.98 82.98 112.09 83.69 112.24 84.39C112.24 84.39 113.26 85.49 114.36 86.79C115.45 88.09 117.12 89.95 117.12 89.95C117.12 89.95 121.11 84.07 123 81.59C123.57 80.86 124.31 80.29 125.15 79.92C126 79.55 126.92 79.4 127.84 79.47L124.46 89.1Z" />
	<path id="Layer" class="shp15" d="M129.76 133.56C129.45 136.01 128.38 140.25 127.83 143.14C127.49 145.03 127.33 146.94 127.35 148.86L125.86 150.48C124.23 150.48 123.38 148.96 123.38 148.96L122.45 134.63L129.76 133.56Z" />
	<path id="Layer" class="shp8" d="M132.63 102.14L132.63 112.83L129.72 124.5C129.38 125.8 129.35 127.16 129.63 128.48C130.09 130.56 129.76 133.56 129.76 133.56C127.08 136.66 122.45 134.63 122.45 134.63L121.66 124.15C121.62 123.64 121.61 123.13 121.62 122.63C121.69 120.68 121.88 115.49 122.18 111.75C122.54 107.06 123.29 102.24 123.29 102.24L132.63 102.14Z" />
	<path id="Layer" class="shp5" d="M133.29 106.24L133.29 111.13L130.74 120.38L129.01 109.82C128.16 109.6 127.39 109.15 126.78 108.52C126.17 107.89 125.74 107.1 125.54 106.24L133.29 106.24Z" />
	<path id="Layer" class="shp15" d="M141.79 135.59C141.85 139.31 140.65 152.92 140.65 152.92L137.49 152.92L134.56 136.76L141.79 135.59Z" />
	<path id="Layer" class="shp8" d="M138.55 100.58L141.34 104.24C141.76 107.2 140.9 120.56 140.59 125.11C140.53 125.99 140.65 126.88 140.94 127.71C142.06 130.93 141.79 135.59 141.79 135.59C139.08 139.71 134.56 136.76 134.56 136.76L132.63 127.5L129.73 108.92C124.15 108.37 124.77 102.14 124.77 102.14L138.55 100.58Z" />
	<path id="Layer" class="shp16" d="M134.93 80.14L137.76 80.14L139.66 89.6L138.41 93.64C138.15 94.48 138.21 95.39 138.58 96.19C139.43 98.04 141 101.65 141.34 104.25C140.55 104.3 139.76 104.14 139.05 103.79C138.34 103.43 137.74 102.89 137.31 102.21C137.31 102.21 134.93 105.35 129.15 105.35C126.34 105.35 124.06 103.28 123.29 102.25L124.33 97.56C124.42 97.18 124.45 96.79 124.42 96.4C124.37 95.43 124.26 93.43 124.29 91.91C124.29 91.91 121.6 90.84 122.29 87.53C122.98 84.23 127.84 79.48 127.84 79.48L129.92 79.56L134.93 80.14Z" />
	<path id="Layer" class="shp8" d="M138 63.38C138 63.38 140.44 62.71 140.41 67.35C140.39 71.37 144.03 71.19 144.03 71.19C143.49 73.05 141.21 73.11 141.21 73.11C142.02 76.84 139.14 78 139.14 78C139.28 77.64 139.31 77.26 139.23 76.88C139.16 76.51 138.98 76.16 138.72 75.88C136.84 80.75 127.09 78.58 127.09 78.58C127.69 78.28 127.69 77.88 127.69 77.88L126 70.68C123.99 74.23 121.7 72.33 121.7 72.33C125.57 71.16 122.98 67.74 123.83 64.23C124.66 60.71 128.1 61.9 128.1 61.9C135.01 58.94 138 63.38 138 63.38Z" />
	<path id="Layer" class="shp15" d="M134.93 73.58L134.93 80.14C134.93 80.14 132.97 83.69 129.84 83.4C126.71 83.12 129.92 79.55 129.92 79.55L129.92 76.45L134.93 73.58Z" />
	<path id="Layer" class="shp17" d="M134.87 72.55L134.87 72.72C133.76 77.13 130.85 78.09 129.92 78.32L129.88 71.49L134.73 71.47L134.87 72.55Z" />
	<path id="Layer" class="shp15" d="M136.14 69.41C135.88 75.77 130.23 78.05 127.7 77.89C125.17 77.74 124.42 74.02 124.48 69.14C124.53 64.26 128.38 62.9 130.24 62.75C132.04 62.58 136.41 63.05 136.14 69.41Z" />
	<path id="Layer" class="shp17" d="M127.89 71.08L127.94 73.94L126.25 73.45L127.89 71.08Z" />
	<path id="Layer" class="shp5" d="M130.41 71C130.41 71.11 130.38 71.23 130.32 71.33C130.25 71.42 130.16 71.5 130.06 71.55C129.95 71.59 129.83 71.61 129.72 71.59C129.61 71.57 129.5 71.51 129.42 71.43C129.33 71.35 129.28 71.25 129.25 71.13C129.23 71.02 129.24 70.9 129.28 70.79C129.32 70.69 129.4 70.59 129.5 70.53C129.59 70.46 129.7 70.43 129.82 70.43C129.9 70.42 129.97 70.44 130.04 70.47C130.12 70.49 130.18 70.54 130.24 70.59C130.29 70.64 130.33 70.71 130.36 70.78C130.39 70.85 130.41 70.92 130.41 71Z" />
	<path id="Layer" class="shp5" d="M126.56 70.65C126.57 70.72 126.55 70.8 126.52 70.87C126.5 70.94 126.45 71.01 126.4 71.06C126.35 71.12 126.28 71.16 126.21 71.19C126.14 71.22 126.07 71.24 125.99 71.24C125.88 71.24 125.76 71.21 125.66 71.15C125.57 71.09 125.49 71 125.44 70.89C125.4 70.78 125.38 70.67 125.4 70.55C125.42 70.44 125.48 70.33 125.56 70.25C125.64 70.17 125.74 70.11 125.86 70.08C125.97 70.06 126.09 70.07 126.19 70.11C126.3 70.15 126.39 70.23 126.46 70.32C126.53 70.42 126.56 70.53 126.56 70.65Z" />
	<path id="Layer" class="shp17" d="M129.47 74.87C128.83 75.03 128.21 75.23 127.59 75.46C127.59 75.46 127.42 74.47 128.25 74.24C128.49 74.19 128.75 74.22 128.97 74.34C129.19 74.45 129.37 74.64 129.47 74.87Z" />
	<path id="Layer" class="shp5" d="M126.36 68.96C126.31 69.11 126.22 69.25 126.09 69.35C125.64 69.63 125.22 69.18 125.22 69.18L126.35 68.49C126.4 68.64 126.4 68.81 126.36 68.96Z" />
	<path id="Layer" class="shp8" d="M126.25 63.52C133.34 59.89 136.67 64.48 136.67 68.87L136.67 72.79L134.35 72.79C133.17 72.79 133.21 70.98 133.21 70.98C125.83 69.63 126.25 63.52 126.25 63.52Z" />
	<path id="Layer" fill-rule="evenodd" class="shp5" d="M125.4 72.69C124.3 72.69 123.4 71.93 123.4 70.99C123.4 70.06 124.3 69.3 125.4 69.3C126.5 69.3 127.4 70.06 127.4 70.99C127.4 71.93 126.5 72.69 125.4 72.69ZM125.4 69.62C124.49 69.62 123.74 70.24 123.74 70.98C123.74 71.73 124.49 72.34 125.4 72.34C126.31 72.34 127.05 71.73 127.05 70.98C127.05 70.23 126.31 69.62 125.4 69.62Z" />
	<path id="Layer" fill-rule="evenodd" class="shp5" d="M130.32 72.7C129.09 72.7 128.08 71.93 128.08 70.98C128.08 70.03 129.09 69.29 130.32 69.29C131.55 69.29 132.56 70.06 132.56 70.98C132.56 71.91 131.56 72.7 130.32 72.7ZM130.32 69.63C129.29 69.63 128.45 70.24 128.45 70.98C128.45 71.72 129.29 72.33 130.32 72.33C131.35 72.33 132.19 71.73 132.19 70.98C132.19 70.24 131.35 69.63 130.32 69.63Z" />
	<path id="Layer" class="shp5" d="M128.26 71.17L127.22 71.17L127.22 70.8L128.26 70.8L128.26 71.17Z" />
	<path id="Layer" class="shp5" d="M135.06 71.17L132.38 71.17L132.38 70.8L135.06 70.8L135.06 71.17Z" />
	<path id="Layer" class="shp15" d="M134.34 72.55C134.33 72.1 134.42 71.66 134.6 71.25C134.69 70.99 134.85 70.77 135.06 70.61C135.28 70.44 135.53 70.34 135.8 70.33C137.19 70.3 137.35 71.64 137.33 72.11C137.27 73.35 136.25 74.68 134.37 74.71L134.34 72.55Z" />
	<path id="Layer" class="shp15" d="M146.11 74.38L141.34 67.26C139.29 67.35 139.17 65.28 138.53 64.13C138.29 63.71 137.94 63.36 137.53 63.11C137.11 62.86 136.64 62.72 136.15 62.71C135.61 62.71 132.41 60.07 134.53 59.95C136.05 59.86 138.86 60.4 140.35 60.71C140.66 60.78 140.96 60.91 141.21 61.1C141.47 61.28 141.68 61.52 141.84 61.8L143.26 64.32C143.26 64.32 146.12 66.84 148.96 69.45C151.81 72.06 154.75 74.84 152.45 76.72C150.16 78.61 140.78 87.2 140.78 87.2L139.66 89.6C134.53 87.86 137.76 80.14 137.76 80.14L146.11 74.38Z" />
	<path id="Layer" class="shp17" d="M146.11 74.38L147.76 76.49L145.19 75.02L146.11 74.38Z" />
	<path id="Layer" class="shp17" d="M117.74 89.05L118.59 91.65L117.12 89.95L117.74 89.05Z" />
	<path id="Layer" class="shp10" d="M129.83 92.06C129.83 92.06 134.07 92.41 135.38 88.38C135.38 88.38 135.43 93.51 129.83 92.06Z" />
	<path id="Layer" class="shp8" d="M122.98 149.58C122.98 149.58 122.39 147.74 123.3 147.64C124.22 147.54 125.83 148.02 125.99 148.51C126.09 148.83 126.13 149.16 126.11 149.49C126.55 149.34 126.97 149.13 127.36 148.86L127.36 148.18C127.36 148.18 128.31 148.27 128.38 148.99C128.45 149.7 128.46 150.57 128.49 151.38C128.55 153.01 128.79 154.11 126.93 154.59C125.6 154.92 124.4 155.64 123.49 156.66C122.85 157.33 122.06 157.84 121.18 158.13C120.3 158.42 119.36 158.49 118.45 158.34C115.65 157.94 115.81 155.58 116.8 154.82C117.75 154.12 118.76 153.52 119.83 153.01L122.98 149.58Z" />
	<path id="Layer" class="shp4" d="M121.98 154.81C121.94 154.81 121.9 154.8 121.86 154.78C121.83 154.76 121.8 154.73 121.78 154.69C121.33 153.96 120.61 153.44 119.78 153.24C119.75 153.24 119.73 153.22 119.7 153.21C119.67 153.19 119.65 153.17 119.64 153.14C119.62 153.11 119.61 153.09 119.6 153.05C119.6 153.02 119.6 152.99 119.61 152.96C119.61 152.93 119.63 152.91 119.64 152.88C119.66 152.85 119.68 152.83 119.71 152.82C119.73 152.8 119.76 152.79 119.79 152.79C119.82 152.78 119.85 152.78 119.88 152.79C120.36 152.9 120.81 153.11 121.2 153.41C121.6 153.7 121.93 154.06 122.18 154.49C122.2 154.52 122.21 154.56 122.21 154.6C122.21 154.64 122.2 154.68 122.18 154.71C122.16 154.75 122.13 154.78 122.09 154.79C122.06 154.81 122.02 154.82 121.98 154.82L121.98 154.81Z" />
	<path id="Layer" class="shp4" d="M123.05 153.67C123.01 153.67 122.97 153.66 122.93 153.63C122.9 153.61 122.87 153.58 122.85 153.54C122.4 152.82 121.69 152.3 120.86 152.1C120.8 152.08 120.75 152.05 120.71 152C120.68 151.94 120.67 151.88 120.68 151.82C120.69 151.79 120.7 151.76 120.71 151.74C120.73 151.71 120.75 151.69 120.78 151.67C120.81 151.66 120.83 151.65 120.86 151.64C120.89 151.64 120.92 151.64 120.95 151.64C121.43 151.76 121.88 151.97 122.28 152.26C122.67 152.55 123.01 152.92 123.26 153.34C123.28 153.39 123.29 153.46 123.27 153.51C123.26 153.57 123.22 153.62 123.16 153.65C123.13 153.66 123.09 153.67 123.05 153.67Z" />
	<path id="Layer" class="shp4" d="M124.13 152.52C124.08 152.52 124.04 152.51 124.01 152.49C123.97 152.47 123.94 152.44 123.92 152.4C123.47 151.68 122.76 151.16 121.93 150.95C121.87 150.94 121.82 150.9 121.79 150.85C121.75 150.8 121.74 150.74 121.76 150.68C121.76 150.65 121.77 150.62 121.79 150.59C121.81 150.57 121.83 150.55 121.85 150.53C121.88 150.51 121.91 150.5 121.94 150.5C121.97 150.49 122 150.49 122.03 150.5C122.5 150.61 122.95 150.82 123.35 151.11C123.75 151.41 124.08 151.77 124.33 152.19C124.36 152.25 124.37 152.31 124.35 152.37C124.33 152.43 124.29 152.48 124.24 152.51C124.2 152.52 124.16 152.53 124.13 152.52Z" />
	<path id="Layer" class="shp8" d="M137.49 152.93C137.45 152.74 137.46 152.56 137.51 152.38C137.56 152.2 137.65 152.04 137.77 151.9C137.89 151.76 138.05 151.66 138.22 151.59C138.39 151.52 138.57 151.49 138.76 151.51C140.24 151.51 141.3 151.55 141.17 152.65L141.17 153.44C141.17 153.44 141.17 157.37 141.47 158.64C141.76 159.92 142.49 163.94 139.47 164.53C136.44 165.12 135.34 162.54 135.89 160.09C136.23 158.72 136.44 157.31 136.51 155.89C136.57 154.99 136.23 151.72 137.22 151.51L137.49 152.93Z" />
	<path id="Layer" class="shp4" d="M140.26 157.79C140.22 157.79 140.18 157.78 140.15 157.76C139.38 157.39 138.5 157.34 137.69 157.61C137.66 157.62 137.63 157.63 137.6 157.62C137.57 157.62 137.54 157.62 137.51 157.6C137.49 157.59 137.46 157.57 137.44 157.55C137.42 157.53 137.4 157.5 137.39 157.47C137.38 157.44 137.38 157.41 137.38 157.38C137.38 157.35 137.39 157.32 137.4 157.29C137.41 157.27 137.43 157.24 137.45 157.22C137.47 157.2 137.5 157.18 137.53 157.17C137.99 157.01 138.48 156.95 138.97 156.98C139.46 157.01 139.94 157.14 140.38 157.35C140.43 157.39 140.47 157.44 140.49 157.5C140.5 157.56 140.49 157.62 140.46 157.67C140.44 157.71 140.41 157.74 140.38 157.76C140.34 157.78 140.3 157.79 140.26 157.79Z" />
	<path id="Layer" class="shp4" d="M140.42 156.03C140.38 156.03 140.34 156.02 140.31 156C139.54 155.63 138.66 155.58 137.85 155.85C137.82 155.87 137.79 155.88 137.76 155.88C137.72 155.88 137.69 155.88 137.66 155.86C137.63 155.85 137.6 155.84 137.58 155.81C137.56 155.79 137.54 155.76 137.53 155.73C137.51 155.7 137.51 155.67 137.51 155.63C137.51 155.6 137.52 155.57 137.54 155.54C137.55 155.51 137.58 155.49 137.6 155.47C137.63 155.45 137.66 155.43 137.69 155.43C138.15 155.26 138.64 155.2 139.13 155.23C139.62 155.26 140.1 155.39 140.53 155.61C140.56 155.62 140.59 155.64 140.6 155.67C140.62 155.69 140.64 155.72 140.65 155.75C140.65 155.78 140.66 155.81 140.65 155.84C140.65 155.87 140.64 155.9 140.62 155.92C140.6 155.96 140.57 155.99 140.54 156C140.5 156.02 140.46 156.03 140.42 156.03Z" />
	<path id="Layer" class="shp4" d="M140.58 154.3C140.54 154.3 140.5 154.29 140.47 154.27C139.7 153.9 138.82 153.84 138.01 154.12C137.98 154.13 137.95 154.14 137.91 154.14C137.88 154.15 137.85 154.14 137.82 154.13C137.78 154.12 137.76 154.1 137.73 154.08C137.71 154.06 137.69 154.03 137.68 154C137.67 153.96 137.66 153.93 137.67 153.9C137.67 153.87 137.68 153.83 137.69 153.8C137.71 153.78 137.73 153.75 137.76 153.73C137.79 153.71 137.82 153.7 137.85 153.69C138.31 153.53 138.8 153.46 139.29 153.49C139.78 153.53 140.26 153.65 140.7 153.87C140.72 153.89 140.75 153.91 140.76 153.93C140.78 153.96 140.8 153.98 140.81 154.01C140.81 154.04 140.82 154.07 140.81 154.1C140.81 154.13 140.8 154.16 140.78 154.19C140.76 154.22 140.73 154.25 140.7 154.27C140.66 154.29 140.62 154.3 140.58 154.3Z" />
	<path id="Layer" class="shp7" d="M120.88 155.3C121.43 156.04 121.78 156.91 121.92 157.83C120.84 158.36 119.63 158.54 118.45 158.34C115.65 157.95 115.81 155.59 116.8 154.83C117.42 154.36 118.08 153.93 118.77 153.56C119.61 153.95 120.33 154.55 120.88 155.3Z" />
	<path id="Layer" class="shp18" d="M128.53 152.34C128.56 153.45 128.4 154.21 126.93 154.59C125.6 154.92 124.4 155.64 123.49 156.66C122.85 157.33 122.06 157.84 121.18 158.13C120.3 158.42 119.36 158.49 118.45 158.33C116.66 158.08 116.08 157.02 116.16 156.09C116.24 156.92 116.88 157.76 118.45 157.97C119.36 158.13 120.3 158.06 121.18 157.77C122.06 157.47 122.85 156.97 123.49 156.3C124.4 155.28 125.6 154.56 126.93 154.23C128.23 153.91 128.5 153.25 128.53 152.34Z" />
	<path id="Layer" class="shp0" d="M139.48 164.53C136.45 165.12 135.35 162.54 135.9 160.09C136.69 159.34 137.75 158.93 138.84 158.95C139.93 158.96 140.97 159.41 141.74 160.19C141.9 161.88 141.68 164.09 139.48 164.53Z" />
	<path id="Layer" class="shp19" d="M141.79 160.77C141.84 162.34 141.45 164.15 139.5 164.53C136.86 165.05 135.68 163.16 135.79 161.04C135.88 162.95 137.06 164.53 139.5 164.05C141.23 163.71 141.73 162.21 141.79 160.77Z" />
</svg>