<svg width="12" height="14" viewBox="0 0 12 14" fill="none" xmlns="http://www.w3.org/2000/svg">
<path d="M7.75008 12.25C7.75008 13.1822 6.93808 14 6.017 14C5.09592 14 4.25008 13.1822 4.25008 12.25H7.75008ZM7.83 2.30125C7.45433 2.08308 7.22217 1.67708 7.22275 1.23958V1.23783C7.22333 0.554167 6.67558 0 6.00008 0C5.32458 0 4.77683 0.554167 4.77683 1.23783V1.23958C4.77741 1.67767 4.54583 2.08308 4.16958 2.30125C1.44658 3.8815 3.01166 9.135 0.166748 10.0631V11.0833H11.8334V10.0631C8.9885 9.135 10.5542 3.88092 7.83 2.30125ZM6.00008 0.583333C6.32208 0.583333 6.58342 0.84525 6.58342 1.16667C6.58342 1.48867 6.32208 1.75 6.00008 1.75C5.67808 1.75 5.41675 1.48867 5.41675 1.16667C5.41675 0.84525 5.67808 0.583333 6.00008 0.583333ZM2.237 9.91667C2.93058 8.94425 3.17325 7.64692 3.38266 6.52458C3.64341 5.13042 3.88958 3.81325 4.75583 3.311C5.56083 2.84375 6.48017 2.86767 7.24492 3.311C8.11117 3.81325 8.35733 5.13042 8.61808 6.52458C8.8275 7.64692 9.07016 8.94425 9.76375 9.91667H2.237Z" fill="white"/>
</svg>
