<svg version="1.2" baseProfile="tiny-ps" xmlns="http://www.w3.org/2000/svg" viewBox="0 0 262 262" width="262" height="262">
	<title>otp-svg</title>
	<style>
		tspan { white-space:pre }
		.shp0 { fill: #f5f5f5 } 
		.shp1 { fill: #e6e6e6 } 
		.shp2 { fill: #e0e0e0 } 
		.shp3 { fill: #ebebeb } 
		.shp4 { opacity: 0.8;fill: #e0e0e0 } 
		.shp5 { fill: #ffffff } 
		.shp6 { fill: #f0f0f0 } 
		.shp7 { opacity: 0.102;fill: #ffffff } 
		.shp8 { fill: #551326 } 
		.shp9 { fill: #651d32 } 
		.shp10 { opacity: 0.6;fill: #ffffff } 
		.shp11 { fill: #263238 } 
		.shp12 { opacity: 0.302;fill: #ffffff } 
		.shp13 { fill: #3f686c } 
		.shp14 { opacity: 0.502;fill: #ffffff } 
		.shp15 { opacity: 0.8;fill: #ffffff } 
		.shp16 { fill: #ffb573 } 
		.shp17 { fill: #b54163 } 
		.shp18 { fill: #ed893e } 
		.shp19 { opacity: 0.2;fill: #000000 } 
		.shp20 { opacity: 0.4;fill: #b54163 } 
	</style>
	<path id="Layer" class="shp0" d="M29.4 225.99C29.4 222.71 74.89 220.05 131 220.05C187.11 220.05 232.6 222.71 232.6 225.99C232.6 229.26 187.11 231.92 131 231.92C74.89 231.92 29.4 229.26 29.4 225.99Z" />
	<path id="Layer" fill-rule="evenodd" class="shp1" d="M124.92 178.96L23.74 178.96C22.95 178.96 22.19 178.65 21.63 178.08C21.07 177.52 20.75 176.76 20.75 175.97L20.75 33.74C20.76 32.95 21.08 32.2 21.64 31.64C22.2 31.09 22.95 30.78 23.74 30.77L124.92 30.77C125.71 30.78 126.47 31.09 127.03 31.65C127.59 32.21 127.91 32.97 127.91 33.77L127.91 175.97C127.91 176.76 127.59 177.52 127.03 178.08C126.47 178.64 125.71 178.96 124.92 178.96ZM23.74 30.88C22.98 30.88 22.26 31.18 21.72 31.72C21.18 32.26 20.88 32.98 20.88 33.74L20.88 175.97C20.88 176.73 21.18 177.46 21.72 177.99C22.26 178.53 22.98 178.83 23.74 178.83L124.92 178.83C125.68 178.83 126.41 178.53 126.94 177.99C127.48 177.45 127.78 176.73 127.78 175.97L127.78 33.74C127.78 32.98 127.48 32.26 126.94 31.72C126.41 31.18 125.68 30.88 124.92 30.88L23.74 30.88Z" />
	<path id="Layer" fill-rule="evenodd" class="shp1" d="M238.26 178.96L137.08 178.96C136.29 178.96 135.53 178.64 134.97 178.08C134.41 177.52 134.09 176.76 134.09 175.97L134.09 33.74C134.1 32.95 134.42 32.2 134.97 31.64C135.53 31.09 136.29 30.78 137.08 30.77L238.26 30.77C239.05 30.78 239.81 31.09 240.37 31.64C240.93 32.2 241.24 32.95 241.25 33.74L241.25 175.97C241.25 176.76 240.94 177.52 240.38 178.08C239.81 178.64 239.06 178.96 238.26 178.96ZM137.08 30.88C136.32 30.88 135.59 31.18 135.06 31.72C134.52 32.26 134.22 32.98 134.22 33.74L134.22 175.97C134.22 176.73 134.52 177.45 135.06 177.99C135.59 178.53 136.32 178.83 137.08 178.83L238.26 178.83C239.02 178.83 239.75 178.53 240.29 177.99C240.82 177.46 241.13 176.73 241.13 175.97L241.13 33.74C241.13 32.98 240.82 32.25 240.29 31.72C239.75 31.18 239.02 30.88 238.26 30.88L137.08 30.88Z" />
	<path id="Layer" class="shp2" d="M45.03 205.65L23.44 205.65L23.44 205.52L45.03 205.52L45.03 205.65Z" />
	<path id="Layer" class="shp2" d="M89.05 204.6L67.39 204.6L67.39 204.47L89.05 204.47L89.05 204.6Z" />
	<path id="Layer" class="shp2" d="M117.23 204.6L111.99 204.6L111.99 204.47L117.23 204.47L117.23 204.6Z" />
	<path id="Layer" class="shp2" d="M64.86 209.08L40.62 209.08L40.62 208.94L64.86 208.94L64.86 209.08Z" />
	<path id="Layer" class="shp2" d="M148.68 205.58L137.36 205.58L137.36 205.45L148.68 205.45L148.68 205.58Z" />
	<path id="Layer" class="shp2" d="M167.98 205.58L153.34 205.58L153.34 205.45L167.98 205.45L167.98 205.58Z" />
	<path id="Layer" class="shp2" d="M238.56 207.8L205.84 207.8L205.84 207.67L238.56 207.67L238.56 207.8Z" />
	<path id="Layer" class="shp3" d="M262 200.51L0 200.51L0 200.38L262 200.38L262 200.51Z" />
	<path id="Layer" class="shp4" d="M175.45 41.65L174.15 59.61C174.1 60.22 173.84 60.79 173.42 61.23C173.18 61.49 172.88 61.7 172.56 61.84C172.23 61.98 171.88 62.05 171.53 62.06L157.12 62.06C156.81 62.06 156.5 62 156.21 61.87C155.92 61.75 155.66 61.57 155.44 61.34C155.23 61.11 155.06 60.83 154.96 60.54C154.86 60.24 154.82 59.92 154.84 59.61L156.15 41.65C156.21 40.99 156.5 40.37 156.99 39.92C157.47 39.46 158.11 39.21 158.77 39.2L173.18 39.2C173.49 39.2 173.8 39.26 174.09 39.38C174.38 39.5 174.64 39.69 174.86 39.92C175.07 40.15 175.24 40.42 175.34 40.72C175.44 41.02 175.48 41.33 175.45 41.65Z" />
	<path id="Layer" class="shp5" d="M164.28 54.51C162.16 54.06 160.89 51.59 161.44 48.98C161.98 46.37 164.14 44.61 166.26 45.05C168.38 45.49 169.65 47.97 169.1 50.58C168.55 53.19 166.4 54.95 164.28 54.51Z" />
	<path id="Layer" class="shp5" d="M171.02 60.82L157.84 60.82C157 60.82 156.42 60.42 156.4 59.86C156.37 59.04 160.65 55.5 164.7 55.81L164.8 55.81C167.29 55.9 169.68 56.82 171.58 58.43C173.54 59.97 171.69 60.82 171.02 60.82Z" />
	<path id="Layer" fill-rule="evenodd" class="shp2" d="M101.13 61.4C99.75 61.4 98.43 60.88 97.41 59.95C96.39 59.02 95.76 57.75 95.62 56.38C95.56 55.73 95.64 55.07 95.85 54.45C96.05 53.83 96.39 53.26 96.82 52.77C97.26 52.29 97.8 51.9 98.4 51.63C98.99 51.36 99.64 51.22 100.29 51.22C101.67 51.23 103 51.74 104.02 52.67C105.03 53.6 105.67 54.87 105.8 56.25C105.86 56.9 105.79 57.55 105.58 58.18C105.37 58.8 105.04 59.37 104.6 59.85C104.16 60.34 103.63 60.73 103.03 60.99C102.43 61.26 101.79 61.4 101.13 61.4ZM100.52 53.92C100.21 53.92 99.91 53.99 99.63 54.11C99.35 54.24 99.09 54.42 98.89 54.65C98.68 54.87 98.53 55.14 98.43 55.43C98.33 55.73 98.3 56.03 98.33 56.34C98.39 56.98 98.69 57.58 99.17 58.01C99.65 58.45 100.27 58.69 100.91 58.7C101.22 58.7 101.52 58.63 101.8 58.51C102.08 58.38 102.33 58.2 102.54 57.97C102.75 57.75 102.9 57.48 103 57.19C103.09 56.9 103.13 56.59 103.1 56.28C103.03 55.64 102.74 55.05 102.26 54.61C101.79 54.18 101.17 53.93 100.53 53.92L100.52 53.92Z" />
	<path id="Layer" class="shp2" d="M101.39 53.53L99.47 53.56L98.44 41.13L100.37 41.11L101.39 53.53Z" />
	<path id="Layer" class="shp2" d="M102.2 41.66L98.57 41.71L98.42 39.78L102.04 39.73L102.2 41.66Z" />
	<path id="Layer" class="shp2" d="M102.41 44.15L99 44.19L98.84 42.26L102.25 42.21L102.41 44.15Z" />
	<path id="Layer" class="shp2" d="M102.7 47.65L99.73 47.68L99.57 45.76L102.54 45.72L102.7 47.65Z" />
	<path id="Layer" class="shp6" d="M41.77 165.4C41.95 164.87 42.24 164.39 42.62 163.98C43 163.57 43.46 163.25 43.97 163.03C44.48 162.81 45.03 162.71 45.59 162.71L89.86 162.71C90.48 162.72 91.09 162.85 91.66 163.1C92.23 163.34 92.75 163.7 93.18 164.15C93.61 164.59 93.95 165.12 94.18 165.7C94.41 166.28 94.52 166.9 94.51 167.52C94.48 168.57 94.04 169.56 93.28 170.29C92.53 171.01 91.51 171.41 90.46 171.4L46.19 171.4C45.02 171.38 43.9 170.93 43.05 170.12C42.3 169.43 41.8 168.51 41.62 167.5C41.59 167.35 41.57 167.19 41.56 167.03C41.51 166.48 41.58 165.92 41.77 165.4Z" />
	<path id="Layer" class="shp2" d="M94.52 167.5C94.52 167.64 94.51 167.78 94.48 167.92C94.35 166.78 93.81 165.72 92.96 164.95C92.11 164.18 91 163.74 89.85 163.73L42.77 163.8C43.53 163.07 44.55 162.67 45.6 162.68L89.87 162.68C90.5 162.68 91.12 162.8 91.69 163.04C92.27 163.28 92.79 163.64 93.23 164.09C93.66 164.54 94 165.07 94.22 165.65C94.45 166.24 94.55 166.86 94.52 167.49L94.52 167.5Z" />
	<path id="Layer" class="shp5" d="M86.95 164.79L87.09 166.88L89.08 166.15L89.53 167.19L87.51 167.88L88.92 169.66L88.03 170.33L86.65 168.49L85.55 170.33L84.57 169.66L85.72 167.88L83.63 167.22L83.92 166.17L86.02 166.88L85.87 164.79L86.95 164.79Z" />
	<path id="Layer" class="shp5" d="M74.84 164.79L74.99 166.88L76.97 166.15L77.42 167.19L75.39 167.86L76.81 169.63L75.9 170.31L74.52 168.46L73.42 170.31L72.44 169.63L73.59 167.86L71.49 167.19L71.79 166.15L73.89 166.86L73.74 164.76L74.84 164.79Z" />
	<path id="Layer" class="shp5" d="M62.73 164.79L62.88 166.88L64.87 166.15L65.32 167.19L63.29 167.86L64.7 169.63L63.79 170.31L62.41 168.46L61.31 170.31L60.33 169.63L61.48 167.86L59.38 167.19L59.68 166.15L61.78 166.86L61.63 164.76L62.73 164.79Z" />
	<path id="Layer" class="shp5" d="M50.62 164.79L50.77 166.88L52.76 166.15L53.21 167.19L51.18 167.86L52.59 169.63L51.68 170.31L50.3 168.49L49.2 170.33L48.21 169.66L49.36 167.88L47.26 167.22L47.57 166.17L49.66 166.88L49.52 164.79L50.62 164.79Z" />
	<path id="Layer" class="shp2" d="M80.04 161.17L77.97 161.17L77.98 160.64L80.04 160.64L80.04 161.17Z" />
	<path id="Layer" class="shp2" d="M88.91 161.17L82.17 161.17L82.18 160.64L88.92 160.64L88.91 161.17Z" />
	<g id="Layer" style="opacity: 0.8">
		<path id="Layer" class="shp4" d="M145.48 156.02L150.44 164.01L176.69 143.43C176.72 143.41 176.75 143.39 176.78 143.38C176.81 143.36 176.85 143.36 176.88 143.36C176.92 143.36 176.96 143.37 176.99 143.39C177.02 143.4 177.05 143.43 177.07 143.45C177.1 143.48 177.12 143.51 177.13 143.54C177.14 143.58 177.14 143.62 177.14 143.65C177.14 143.69 177.13 143.72 177.11 143.75C177.1 143.78 177.08 143.81 177.05 143.84L149.51 171.38L141.16 158.53L145.48 156.02Z" />
	</g>
	<path id="Layer" class="shp7" d="M142.6 67.05L123.04 141.01L116.39 141.01L136.17 67.05L142.6 67.05Z" />
	<path id="Layer" class="shp7" d="M159.41 67.05L139.85 141.01L126.66 141.01L146.43 67.05L159.41 67.05Z" />
	<path id="Layer" class="shp8" d="M216.4 136.3C215.69 136.96 214.76 137.33 213.79 137.34L110.22 137.43C109.76 137.44 109.31 137.35 108.88 137.17C108.46 136.99 108.08 136.73 107.77 136.39C107.46 136.06 107.22 135.66 107.07 135.23C106.92 134.8 106.86 134.34 106.9 133.88L111.06 74.51C111.14 73.55 111.58 72.65 112.29 72C112.99 71.34 113.92 70.97 114.88 70.95L218.5 70.87C218.96 70.86 219.41 70.95 219.83 71.12C220.25 71.3 220.63 71.57 220.94 71.9C221.26 72.24 221.5 72.63 221.65 73.07C221.8 73.5 221.85 73.96 221.81 74.41L217.62 133.78C217.54 134.75 217.1 135.65 216.4 136.3Z" />
	<path id="Layer" class="shp9" d="M215.07 135C214.36 135.66 213.44 136.03 212.47 136.05L108.86 136.13C108.4 136.14 107.95 136.06 107.53 135.88C107.11 135.7 106.73 135.43 106.41 135.1C106.1 134.76 105.86 134.37 105.71 133.94C105.56 133.5 105.5 133.04 105.54 132.59L109.74 73.21C109.82 72.25 110.25 71.36 110.96 70.7C111.66 70.04 112.59 69.67 113.55 69.66L217.17 69.57C217.63 69.56 218.08 69.65 218.5 69.83C218.92 70.01 219.3 70.27 219.62 70.61C219.93 70.94 220.17 71.34 220.32 71.77C220.47 72.2 220.52 72.66 220.48 73.12L216.29 132.49C216.21 133.45 215.78 134.35 215.07 135Z" />
	<path id="Layer" class="shp10" d="M213.55 133.37C213.33 133.56 213.05 133.67 212.76 133.67L109.15 133.76C108.98 133.76 108.82 133.72 108.67 133.66C108.51 133.59 108.38 133.49 108.26 133.37C108.15 133.25 108.06 133.11 108.01 132.95C107.95 132.79 107.92 132.63 107.93 132.46L112.13 73.09C112.14 72.8 112.27 72.53 112.48 72.34C112.69 72.14 112.97 72.03 113.26 72.03L216.88 71.95C217.04 71.95 217.21 71.98 217.36 72.05C217.51 72.12 217.65 72.21 217.76 72.34C217.88 72.46 217.97 72.6 218.02 72.76C218.08 72.91 218.1 73.08 218.09 73.24L213.9 132.61C213.88 132.9 213.76 133.17 213.55 133.37Z" />
	<path id="Layer" class="shp5" d="M179.51 100.82C179.65 100.88 179.77 100.97 179.87 101.08C179.97 101.19 180.04 101.32 180.09 101.46C180.13 101.6 180.15 101.75 180.13 101.9L179.57 107.22C179.54 107.53 179.38 107.83 179.14 108.05C178.91 108.26 178.6 108.38 178.28 108.39L141.9 108.39C141.76 108.39 141.61 108.36 141.47 108.3C141.34 108.24 141.21 108.15 141.12 108.04C141.02 107.93 140.94 107.8 140.9 107.66C140.85 107.51 140.84 107.36 140.86 107.22L141.42 101.9C141.46 101.58 141.61 101.28 141.84 101.07C142.08 100.86 142.39 100.73 142.71 100.73L179.08 100.73C179.23 100.73 179.38 100.76 179.51 100.82Z" />
	<path id="Layer" class="shp5" d="M147.47 122.54C147.61 122.6 147.73 122.69 147.83 122.8C147.93 122.91 148 123.04 148.05 123.18C148.09 123.32 148.1 123.47 148.09 123.62L147.53 128.94C147.49 129.26 147.34 129.55 147.1 129.77C146.86 129.98 146.55 130.1 146.23 130.11L140.56 130.11C140.41 130.11 140.26 130.08 140.13 130.02C139.99 129.96 139.87 129.87 139.77 129.76C139.67 129.65 139.6 129.52 139.55 129.38C139.51 129.24 139.49 129.09 139.51 128.94L140.06 123.62C140.1 123.3 140.26 123.01 140.5 122.79C140.73 122.58 141.04 122.45 141.37 122.45L147.04 122.45C147.19 122.45 147.34 122.48 147.47 122.54Z" />
	<path id="Layer" class="shp5" d="M157.27 122.54C157.41 122.6 157.53 122.69 157.63 122.8C157.73 122.91 157.8 123.04 157.85 123.18C157.89 123.32 157.9 123.47 157.89 123.62L157.33 128.94C157.29 129.26 157.14 129.55 156.9 129.77C156.66 129.98 156.35 130.1 156.03 130.11L150.36 130.11C150.21 130.11 150.06 130.08 149.93 130.02C149.79 129.96 149.67 129.87 149.57 129.76C149.47 129.65 149.4 129.52 149.35 129.38C149.31 129.24 149.29 129.09 149.31 128.94L149.86 123.62C149.9 123.3 150.06 123.01 150.29 122.79C150.53 122.58 150.84 122.45 151.16 122.45L156.84 122.45C156.99 122.45 157.13 122.48 157.27 122.54Z" />
	<path id="Layer" class="shp5" d="M167.06 122.54C167.2 122.6 167.32 122.69 167.42 122.8C167.52 122.91 167.59 123.04 167.64 123.18C167.68 123.32 167.7 123.47 167.68 123.62L167.13 128.94C167.09 129.26 166.94 129.55 166.7 129.77C166.46 129.98 166.15 130.1 165.83 130.11L160.16 130.11C160.01 130.11 159.86 130.08 159.72 130.02C159.59 129.96 159.47 129.87 159.37 129.76C159.27 129.65 159.19 129.52 159.15 129.38C159.1 129.24 159.09 129.09 159.11 128.94L159.66 123.62C159.7 123.3 159.85 123.01 160.09 122.79C160.33 122.58 160.64 122.45 160.96 122.45L166.63 122.45C166.78 122.45 166.93 122.48 167.06 122.54Z" />
	<path id="Layer" class="shp5" d="M176.87 122.54C177 122.6 177.13 122.69 177.22 122.8C177.32 122.91 177.4 123.04 177.44 123.18C177.49 123.32 177.5 123.47 177.48 123.62L176.93 128.94C176.89 129.26 176.74 129.55 176.5 129.77C176.26 129.98 175.95 130.1 175.63 130.11L169.95 130.11C169.81 130.11 169.66 130.08 169.52 130.02C169.39 129.96 169.27 129.87 169.17 129.76C169.07 129.65 168.99 129.52 168.95 129.38C168.9 129.24 168.89 129.09 168.91 128.94L169.46 123.62C169.5 123.3 169.65 123.01 169.89 122.79C170.13 122.58 170.44 122.45 170.76 122.45L176.44 122.45C176.59 122.45 176.73 122.48 176.87 122.54Z" />
	<path id="Layer" fill-rule="evenodd" class="shp9" d="M170.02 119.09L147.28 119.09C146.98 119.1 146.69 119.04 146.43 118.92C146.16 118.81 145.92 118.64 145.72 118.42C145.53 118.2 145.38 117.95 145.3 117.67C145.21 117.39 145.18 117.1 145.22 116.81L145.49 114.19C145.57 113.58 145.86 113.02 146.31 112.61C146.77 112.21 147.36 111.97 147.97 111.96L170.71 111.96C171.01 111.96 171.29 112.01 171.56 112.13C171.83 112.25 172.07 112.42 172.26 112.64C172.46 112.85 172.61 113.11 172.69 113.39C172.78 113.67 172.81 113.96 172.77 114.25L172.5 116.87C172.42 117.47 172.13 118.03 171.67 118.44C171.22 118.85 170.63 119.08 170.02 119.09ZM147.97 112.49C147.49 112.5 147.02 112.69 146.66 113.01C146.31 113.33 146.07 113.77 146.01 114.25L145.74 116.87C145.71 117.09 145.73 117.31 145.79 117.52C145.86 117.73 145.97 117.92 146.11 118.08C146.26 118.24 146.44 118.37 146.64 118.46C146.84 118.54 147.06 118.58 147.28 118.58L170.02 118.58C170.5 118.57 170.97 118.38 171.33 118.06C171.68 117.74 171.92 117.3 171.98 116.82L172.25 114.2C172.28 113.98 172.26 113.76 172.2 113.56C172.13 113.35 172.02 113.16 171.88 112.99C171.73 112.83 171.55 112.7 171.35 112.62C171.15 112.53 170.93 112.49 170.71 112.5L147.97 112.49Z" />
	<path id="Layer" class="shp5" d="M180.82 89.74C180.96 89.8 181.08 89.89 181.18 90C181.28 90.11 181.35 90.24 181.4 90.39C181.44 90.53 181.45 90.68 181.44 90.82L180.88 96.14C180.84 96.46 180.69 96.76 180.45 96.97C180.21 97.18 179.9 97.31 179.58 97.31L143.21 97.31C143.07 97.31 142.92 97.28 142.78 97.22C142.65 97.16 142.53 97.07 142.43 96.96C142.33 96.85 142.25 96.72 142.21 96.58C142.16 96.44 142.15 96.29 142.17 96.14L142.73 90.82C142.77 90.51 142.92 90.21 143.16 90C143.39 89.78 143.7 89.66 144.02 89.65L180.39 89.65C180.54 89.65 180.69 89.68 180.82 89.74Z" />
	<path id="Layer" class="shp9" d="M146.66 105.47C146.39 105.71 146.05 105.85 145.7 105.85C145.53 105.86 145.37 105.83 145.22 105.76C145.06 105.69 144.93 105.6 144.82 105.47C144.71 105.35 144.62 105.2 144.57 105.05C144.53 104.89 144.51 104.72 144.53 104.56C144.57 104.21 144.75 103.88 145.01 103.64C145.27 103.4 145.62 103.27 145.97 103.26C146.14 103.26 146.3 103.29 146.45 103.35C146.6 103.42 146.74 103.52 146.85 103.64C146.96 103.77 147.04 103.91 147.09 104.07C147.14 104.23 147.16 104.39 147.13 104.56C147.09 104.91 146.92 105.24 146.66 105.47Z" />
	<path id="Layer" class="shp9" d="M150.66 105.47C150.39 105.71 150.05 105.85 149.7 105.85C149.53 105.86 149.37 105.83 149.22 105.76C149.06 105.69 148.93 105.6 148.82 105.47C148.71 105.35 148.62 105.2 148.57 105.05C148.53 104.89 148.51 104.72 148.53 104.56C148.58 104.21 148.74 103.88 149.01 103.64C149.27 103.4 149.61 103.27 149.97 103.26C150.13 103.26 150.3 103.29 150.45 103.35C150.6 103.42 150.74 103.52 150.85 103.64C150.96 103.77 151.04 103.91 151.09 104.07C151.14 104.23 151.16 104.39 151.14 104.56C151.09 104.91 150.92 105.24 150.66 105.47Z" />
	<path id="Layer" class="shp9" d="M154.66 105.47C154.4 105.71 154.06 105.85 153.7 105.85C153.53 105.86 153.37 105.83 153.22 105.76C153.07 105.69 152.93 105.6 152.82 105.47C152.71 105.35 152.63 105.2 152.58 105.05C152.53 104.89 152.51 104.72 152.53 104.56C152.57 104.21 152.74 103.88 153.01 103.64C153.27 103.4 153.61 103.27 153.97 103.26C154.13 103.26 154.3 103.29 154.45 103.35C154.6 103.42 154.74 103.52 154.85 103.64C154.96 103.77 155.04 103.91 155.09 104.07C155.14 104.23 155.16 104.39 155.13 104.56C155.09 104.91 154.92 105.24 154.66 105.47Z" />
	<path id="Layer" class="shp9" d="M158.66 105.46C158.41 105.7 158.07 105.83 157.72 105.85C157.56 105.86 157.39 105.83 157.24 105.77C157.08 105.7 156.94 105.61 156.83 105.48C156.71 105.36 156.63 105.21 156.58 105.05C156.53 104.89 156.51 104.72 156.53 104.56C156.58 104.21 156.75 103.88 157.01 103.64C157.27 103.4 157.62 103.27 157.97 103.26C158.14 103.26 158.3 103.29 158.45 103.35C158.6 103.42 158.74 103.52 158.85 103.64C158.96 103.77 159.04 103.91 159.09 104.07C159.14 104.23 159.16 104.39 159.13 104.56C159.09 104.91 158.92 105.23 158.66 105.46Z" />
	<path id="Layer" class="shp9" d="M162.74 105.47C162.47 105.71 162.13 105.85 161.78 105.85C161.61 105.86 161.44 105.83 161.29 105.76C161.14 105.69 161.01 105.6 160.9 105.47C160.78 105.35 160.7 105.2 160.65 105.05C160.6 104.89 160.59 104.72 160.61 104.56C160.65 104.21 160.82 103.88 161.09 103.64C161.35 103.4 161.69 103.27 162.05 103.26C162.21 103.26 162.38 103.29 162.53 103.35C162.68 103.42 162.82 103.52 162.93 103.64C163.04 103.77 163.12 103.91 163.17 104.07C163.22 104.23 163.24 104.39 163.22 104.56C163.17 104.91 163 105.24 162.74 105.47Z" />
	<path id="Layer" class="shp9" d="M147.97 94.4C147.7 94.64 147.36 94.77 147.01 94.78C146.84 94.78 146.68 94.75 146.53 94.68C146.37 94.62 146.24 94.52 146.13 94.4C146.02 94.27 145.93 94.13 145.88 93.97C145.84 93.81 145.82 93.65 145.84 93.48C145.89 93.13 146.06 92.8 146.32 92.57C146.59 92.33 146.93 92.19 147.28 92.19C147.45 92.18 147.61 92.21 147.76 92.28C147.91 92.34 148.05 92.44 148.16 92.57C148.27 92.69 148.35 92.83 148.4 92.99C148.45 93.15 148.47 93.32 148.44 93.48C148.4 93.83 148.23 94.16 147.97 94.4Z" />
	<path id="Layer" class="shp9" d="M151.98 94.39C151.72 94.63 151.38 94.76 151.03 94.78C150.86 94.78 150.7 94.75 150.55 94.68C150.4 94.62 150.26 94.52 150.15 94.4C150.04 94.27 149.96 94.13 149.91 93.97C149.86 93.81 149.84 93.65 149.86 93.48C149.91 93.13 150.07 92.81 150.33 92.57C150.59 92.34 150.93 92.2 151.28 92.19C151.44 92.18 151.61 92.22 151.76 92.28C151.91 92.35 152.05 92.44 152.16 92.57C152.27 92.69 152.35 92.84 152.4 92.99C152.45 93.15 152.47 93.32 152.45 93.48C152.4 93.83 152.24 94.15 151.98 94.39Z" />
	<path id="Layer" class="shp9" d="M155.97 94.4C155.71 94.64 155.37 94.77 155.01 94.78C154.84 94.78 154.68 94.75 154.53 94.68C154.38 94.62 154.24 94.52 154.13 94.4C154.02 94.27 153.93 94.13 153.88 93.97C153.84 93.81 153.82 93.65 153.84 93.48C153.89 93.13 154.06 92.8 154.32 92.57C154.59 92.33 154.93 92.19 155.28 92.19C155.45 92.18 155.61 92.22 155.76 92.28C155.91 92.35 156.05 92.44 156.16 92.57C156.27 92.69 156.35 92.84 156.4 92.99C156.45 93.15 156.47 93.32 156.45 93.48C156.4 93.83 156.23 94.16 155.97 94.4Z" />
	<path id="Layer" class="shp9" d="M159.97 94.4C159.7 94.64 159.36 94.77 159.01 94.78C158.84 94.78 158.68 94.75 158.53 94.68C158.37 94.62 158.24 94.52 158.13 94.4C158.02 94.27 157.93 94.13 157.88 93.97C157.84 93.81 157.82 93.65 157.84 93.48C157.89 93.13 158.06 92.8 158.32 92.57C158.59 92.33 158.93 92.19 159.28 92.19C159.45 92.18 159.61 92.21 159.76 92.28C159.91 92.34 160.05 92.44 160.16 92.57C160.27 92.69 160.35 92.83 160.4 92.99C160.45 93.15 160.47 93.32 160.44 93.48C160.4 93.83 160.23 94.16 159.97 94.4Z" />
	<path id="Layer" class="shp9" d="M163.97 94.4C163.71 94.64 163.37 94.77 163.01 94.78C162.85 94.78 162.68 94.75 162.53 94.68C162.38 94.62 162.24 94.52 162.13 94.4C162.02 94.27 161.94 94.13 161.88 93.97C161.84 93.81 161.82 93.65 161.84 93.48C161.89 93.13 162.06 92.8 162.32 92.57C162.58 92.33 162.92 92.19 163.28 92.19C163.44 92.18 163.61 92.22 163.76 92.28C163.91 92.35 164.05 92.44 164.16 92.57C164.27 92.69 164.35 92.84 164.4 92.99C164.45 93.15 164.47 93.32 164.45 93.48C164.4 93.83 164.24 94.16 163.97 94.4Z" />
	<path id="Layer" class="shp9" d="M167.97 94.4C167.71 94.64 167.36 94.77 167.01 94.78C166.84 94.78 166.68 94.75 166.53 94.68C166.37 94.62 166.24 94.52 166.13 94.4C166.02 94.27 165.93 94.13 165.88 93.97C165.83 93.81 165.82 93.65 165.84 93.48C165.89 93.13 166.06 92.8 166.32 92.57C166.59 92.33 166.93 92.19 167.28 92.19C167.45 92.18 167.61 92.22 167.76 92.28C167.91 92.35 168.05 92.44 168.16 92.57C168.27 92.69 168.35 92.84 168.4 92.99C168.45 93.15 168.47 93.32 168.44 93.48C168.4 93.83 168.23 94.16 167.97 94.4Z" />
	<path id="Layer" class="shp9" d="M165.06 77.92L164.78 80.61C164.76 80.73 164.7 80.84 164.61 80.91C164.52 80.99 164.41 81.04 164.29 81.05C164.23 81.05 164.18 81.04 164.13 81.02C164.07 81 164.03 80.96 163.99 80.92C163.95 80.88 163.93 80.83 163.91 80.78C163.89 80.72 163.89 80.67 163.9 80.61L164.18 77.92C164.21 77.72 164.19 77.52 164.13 77.33C164.07 77.14 163.97 76.96 163.83 76.81C163.7 76.67 163.53 76.55 163.35 76.47C163.16 76.39 162.97 76.35 162.76 76.35L161.8 76.35C161.37 76.36 160.95 76.53 160.63 76.81C160.31 77.1 160.11 77.5 160.05 77.92L159.8 80.42L158.92 80.42L159.17 77.92C159.25 77.26 159.57 76.64 160.07 76.19C160.57 75.74 161.22 75.49 161.89 75.48L162.85 75.48C163.17 75.47 163.48 75.53 163.76 75.65C164.05 75.78 164.31 75.96 164.52 76.19C164.73 76.43 164.89 76.7 164.98 77C165.07 77.3 165.1 77.61 165.06 77.92Z" />
	<path id="Layer" class="shp9" d="M165.06 80.51L164.51 85.75C164.49 85.92 164.41 86.06 164.29 86.17C164.17 86.28 164.01 86.35 163.84 86.35L158.6 86.35C158.53 86.35 158.45 86.34 158.38 86.3C158.32 86.27 158.25 86.23 158.21 86.17C158.16 86.11 158.12 86.05 158.1 85.98C158.07 85.9 158.07 85.83 158.08 85.75L158.63 80.51C158.64 80.4 158.68 80.3 158.74 80.21C158.79 80.12 158.87 80.04 158.97 79.99C159.07 79.93 159.18 79.9 159.3 79.9L164.54 79.9C164.64 79.9 164.75 79.93 164.84 79.98C164.92 80.04 164.99 80.12 165.03 80.22C165.07 80.31 165.08 80.41 165.06 80.51Z" />
	<path id="Layer" class="shp11" d="M193.29 69.56C193.22 69.56 193.15 69.53 193.1 69.48C193.05 69.44 193.03 69.37 193.03 69.3C193.03 69.23 193.05 69.16 193.1 69.11C193.15 69.06 193.22 69.04 193.29 69.04L206.09 68.96C206.16 68.96 206.23 68.99 206.28 69.04C206.33 69.09 206.36 69.16 206.36 69.23C206.36 69.3 206.33 69.36 206.28 69.41C206.23 69.46 206.16 69.49 206.09 69.49L193.29 69.56L193.29 69.56Z" />
	<path id="Layer" class="shp11" d="M208.55 69.47C208.48 69.47 208.42 69.44 208.37 69.4C208.32 69.35 208.29 69.28 208.29 69.21C208.29 69.14 208.32 69.07 208.37 69.02C208.42 68.98 208.48 68.95 208.55 68.95L213.08 68.95C213.15 68.95 213.22 68.98 213.26 69.02C213.31 69.07 213.34 69.14 213.34 69.21C213.34 69.28 213.31 69.35 213.26 69.4C213.22 69.44 213.15 69.47 213.08 69.47L208.55 69.47Z" />
	<g id="Layer" style="opacity: 0.302">
		<path id="Layer" class="shp12" d="M123.19 72.02L137.86 72.02L122.95 133.76L111.12 133.76C110.78 133.75 110.44 133.67 110.14 133.52C109.83 133.36 109.57 133.14 109.36 132.87C109.16 132.6 109.01 132.28 108.94 131.95C108.88 131.61 108.89 131.27 108.97 130.94L123.19 72.02Z" />
		<path id="Layer" class="shp12" d="M144.36 72.02L150.58 72.02L135.68 133.76L129.46 133.76L144.36 72.02Z" />
	</g>
	<path id="Layer" class="shp9" d="M45.4 52.75L48.38 52.75C47.68 52.74 46.99 52.87 46.35 53.15C45.71 53.42 45.13 53.83 44.66 54.34C44.18 54.85 43.82 55.45 43.59 56.11C43.37 56.77 43.28 57.47 43.34 58.16L49.65 148.45C49.77 149.91 50.43 151.28 51.51 152.28C52.58 153.28 53.98 153.85 55.45 153.87L52.48 153.87C51.01 153.85 49.6 153.28 48.53 152.28C47.46 151.28 46.8 149.91 46.68 148.45L40.35 58.16C40.29 57.47 40.37 56.77 40.6 56.11C40.83 55.45 41.19 54.84 41.67 54.33C42.15 53.82 42.73 53.41 43.37 53.14C44.01 52.87 44.71 52.73 45.4 52.75Z" />
	<path id="Layer" class="shp8" d="M45.4 52.75L48.38 52.75C47.68 52.74 46.99 52.87 46.35 53.15C45.71 53.42 45.13 53.83 44.66 54.34C44.18 54.85 43.82 55.45 43.59 56.11C43.37 56.77 43.28 57.47 43.34 58.16L49.65 148.45C49.77 149.91 50.43 151.28 51.51 152.28C52.58 153.28 53.98 153.85 55.45 153.87L52.48 153.87C49.49 153.87 46.47 151.44 46.26 148.45L39.94 58.16C39.73 55.17 42.41 52.75 45.4 52.75Z" />
	<path id="Layer" class="shp9" d="M49.4 152.29C48.33 151.28 47.66 149.92 47.54 148.45L41.25 58.16C41.19 57.47 41.28 56.77 41.51 56.11C41.73 55.45 42.09 54.84 42.57 54.33C43.05 53.82 43.62 53.42 44.26 53.14C44.91 52.87 45.6 52.73 46.3 52.74L82.71 52.74C84.18 52.76 85.58 53.33 86.66 54.33C87.73 55.33 88.39 56.7 88.51 58.16L94.84 148.45C94.9 149.15 94.82 149.85 94.59 150.51C94.36 151.17 94 151.78 93.52 152.29C93.04 152.8 92.46 153.21 91.82 153.48C91.17 153.75 90.48 153.89 89.78 153.87L53.36 153.87C51.89 153.86 50.48 153.29 49.4 152.29Z" />
	<g id="Layer" style="opacity: 0.6">
		<path id="Layer" class="shp10" d="M82.61 54.5C83.63 54.51 84.61 54.91 85.36 55.6C86.1 56.3 86.56 57.25 86.64 58.27L92.96 148.55C93 149.01 92.95 149.48 92.8 149.92C92.65 150.36 92.41 150.76 92.09 151.1C91.78 151.44 91.39 151.7 90.97 151.88C90.54 152.06 90.08 152.15 89.62 152.14L53.21 152.14C52.19 152.13 51.21 151.73 50.46 151.03C49.72 150.34 49.26 149.39 49.17 148.37L42.88 58.09C42.84 57.63 42.9 57.16 43.04 56.73C43.19 56.29 43.43 55.89 43.74 55.55C44.05 55.21 44.43 54.95 44.86 54.76C45.28 54.58 45.74 54.49 46.2 54.5L82.61 54.5Z" />
	</g>
	<g id="Layer" style="opacity: 0.302">
		<path id="Layer" class="shp12" d="M72.31 152.13L57.8 152.13L69.78 54.5L81.47 54.5C81.98 54.49 82.48 54.6 82.94 54.8C83.4 55 83.82 55.29 84.16 55.66L72.31 152.13Z" />
		<path id="Layer" class="shp12" d="M55.2 152.13L51.93 152.13L63.91 54.49L67.18 54.49L55.2 152.13Z" />
	</g>
	<path id="Layer" class="shp5" d="M80.44 97.41L54.07 97.41C54 97.41 53.93 97.38 53.88 97.33C53.83 97.29 53.8 97.22 53.8 97.15C53.8 97.08 53.83 97.01 53.88 96.96C53.93 96.92 54 96.89 54.07 96.89L80.44 96.89C80.51 96.89 80.58 96.92 80.63 96.97C80.68 97.01 80.7 97.08 80.71 97.15C80.71 97.22 80.68 97.29 80.63 97.33C80.58 97.38 80.51 97.41 80.44 97.41Z" />
	<path id="Layer" class="shp5" d="M78.13 101.31L57.47 101.31C57.4 101.31 57.33 101.29 57.28 101.24C57.23 101.19 57.21 101.12 57.21 101.05C57.21 100.98 57.23 100.92 57.28 100.87C57.33 100.82 57.4 100.79 57.47 100.79L78.13 100.79C78.2 100.79 78.26 100.82 78.31 100.87C78.36 100.92 78.39 100.98 78.39 101.05C78.39 101.12 78.36 101.19 78.31 101.24C78.26 101.29 78.2 101.31 78.13 101.31Z" />
	<path id="Layer" class="shp9" d="M54.85 79.17L54.89 80.21L54.21 80.21L54.18 79.17L52.98 77.28L53.69 77.28L54.52 78.58L55.26 77.28L55.92 77.28L54.85 79.17Z" />
	<path id="Layer" fill-rule="evenodd" class="shp9" d="M55.95 78.74C55.94 78.53 55.97 78.32 56.05 78.13C56.13 77.94 56.24 77.77 56.39 77.63C56.54 77.48 56.72 77.37 56.91 77.31C57.11 77.24 57.31 77.21 57.52 77.23C57.73 77.22 57.94 77.25 58.13 77.32C58.33 77.39 58.51 77.5 58.66 77.64C58.81 77.78 58.94 77.95 59.03 78.14C59.11 78.32 59.16 78.53 59.17 78.74C59.18 78.94 59.15 79.15 59.07 79.34C58.99 79.53 58.88 79.71 58.73 79.85C58.58 79.99 58.4 80.1 58.21 80.17C58.01 80.24 57.8 80.27 57.6 80.25C57.39 80.26 57.18 80.23 56.99 80.16C56.79 80.09 56.61 79.98 56.46 79.84C56.3 79.7 56.18 79.53 56.09 79.34C56 79.15 55.95 78.94 55.95 78.74ZM58.46 78.74C58.46 78.61 58.44 78.49 58.39 78.37C58.34 78.26 58.27 78.16 58.19 78.07C58.1 77.98 57.99 77.91 57.88 77.87C57.76 77.82 57.64 77.8 57.51 77.8C57.39 77.8 57.27 77.82 57.16 77.87C57.05 77.91 56.94 77.98 56.86 78.07C56.78 78.16 56.71 78.26 56.67 78.38C56.64 78.49 56.62 78.62 56.63 78.74C56.63 78.86 56.66 78.98 56.7 79.1C56.75 79.21 56.82 79.32 56.91 79.41C57 79.49 57.1 79.56 57.22 79.61C57.33 79.65 57.46 79.68 57.58 79.67C57.7 79.68 57.82 79.66 57.94 79.61C58.05 79.56 58.15 79.49 58.23 79.4C58.32 79.31 58.38 79.21 58.42 79.09C58.46 78.98 58.47 78.86 58.46 78.74Z" />
	<path id="Layer" class="shp9" d="M59.64 78.91L59.58 77.27L60.26 77.27L60.31 78.89C60.31 79.44 60.58 79.67 60.99 79.67C61.4 79.67 61.63 79.44 61.62 78.89L61.56 77.27L62.22 77.27L62.28 78.91C62.31 79.09 62.3 79.27 62.24 79.44C62.19 79.61 62.1 79.77 61.98 79.9C61.85 80.03 61.7 80.12 61.53 80.19C61.37 80.25 61.19 80.27 61.01 80.25C60.83 80.27 60.65 80.24 60.47 80.18C60.3 80.12 60.15 80.02 60.02 79.9C59.89 79.77 59.78 79.62 59.72 79.45C59.65 79.28 59.63 79.1 59.64 78.91Z" />
	<path id="Layer" fill-rule="evenodd" class="shp9" d="M64.86 80.2L64.27 79.39L63.65 79.39L63.68 80.2L63 80.2L62.9 77.27L64.16 77.27C64.94 77.27 65.45 77.68 65.47 78.32C65.49 78.52 65.44 78.71 65.34 78.88C65.23 79.04 65.08 79.17 64.9 79.24L65.59 80.19L64.86 80.2ZM64.14 77.83L63.62 77.83L63.66 78.85L64.18 78.85C64.59 78.85 64.79 78.66 64.78 78.32C64.77 77.99 64.56 77.83 64.14 77.83Z" />
	<path id="Layer" class="shp9" d="M67.02 78.74C67.01 78.53 67.04 78.33 67.11 78.14C67.19 77.95 67.3 77.78 67.45 77.64C67.59 77.49 67.76 77.38 67.95 77.31C68.14 77.24 68.35 77.21 68.55 77.23C68.78 77.22 69.01 77.26 69.22 77.35C69.43 77.44 69.62 77.58 69.77 77.75L69.35 78.15C69.26 78.04 69.14 77.96 69.01 77.9C68.88 77.84 68.74 77.81 68.6 77.81C68.48 77.8 68.36 77.82 68.24 77.87C68.13 77.91 68.02 77.98 67.94 78.07C67.85 78.16 67.79 78.26 67.75 78.38C67.71 78.5 67.69 78.62 67.7 78.74C67.7 78.87 67.72 78.99 67.77 79.11C67.82 79.22 67.89 79.33 67.98 79.42C68.08 79.51 68.18 79.57 68.3 79.62C68.42 79.66 68.54 79.68 68.67 79.68C68.81 79.68 68.95 79.65 69.07 79.59C69.2 79.53 69.31 79.44 69.39 79.33L69.84 79.73C69.7 79.91 69.51 80.04 69.31 80.14C69.1 80.23 68.88 80.27 68.65 80.26C68.45 80.26 68.24 80.23 68.05 80.16C67.85 80.09 67.67 79.98 67.52 79.84C67.37 79.7 67.25 79.53 67.16 79.34C67.07 79.15 67.03 78.94 67.02 78.74Z" />
	<path id="Layer" fill-rule="evenodd" class="shp9" d="M70.02 78.74C70.01 78.53 70.04 78.33 70.12 78.14C70.19 77.95 70.31 77.78 70.45 77.64C70.6 77.49 70.77 77.38 70.96 77.31C71.16 77.24 71.36 77.21 71.56 77.23C71.77 77.22 71.98 77.25 72.17 77.32C72.37 77.39 72.55 77.5 72.7 77.64C72.86 77.78 72.98 77.95 73.07 78.14C73.16 78.32 73.21 78.53 73.21 78.74C73.22 78.94 73.19 79.14 73.11 79.33C73.04 79.52 72.92 79.7 72.78 79.84C72.63 79.98 72.46 80.09 72.27 80.16C72.08 80.23 71.87 80.26 71.67 80.25C71.46 80.26 71.25 80.23 71.06 80.16C70.86 80.09 70.68 79.98 70.53 79.84C70.37 79.7 70.25 79.53 70.16 79.34C70.07 79.15 70.02 78.94 70.02 78.74ZM72.53 78.74C72.53 78.61 72.5 78.49 72.46 78.38C72.41 78.26 72.34 78.16 72.25 78.07C72.17 77.98 72.06 77.91 71.95 77.87C71.83 77.82 71.71 77.8 71.58 77.8C71.46 77.8 71.34 77.82 71.23 77.87C71.12 77.91 71.01 77.98 70.93 78.07C70.85 78.16 70.78 78.26 70.74 78.38C70.71 78.49 70.69 78.62 70.7 78.74C70.7 78.86 70.72 78.98 70.77 79.1C70.82 79.21 70.89 79.32 70.98 79.41C71.06 79.49 71.17 79.56 71.28 79.61C71.4 79.65 71.52 79.68 71.65 79.67C71.77 79.68 71.89 79.66 72 79.61C72.11 79.56 72.22 79.49 72.3 79.41C72.38 79.32 72.45 79.21 72.49 79.1C72.52 78.98 72.54 78.86 72.53 78.74Z" />
	<path id="Layer" fill-rule="evenodd" class="shp9" d="M73.67 77.27L75 77.27C75.21 77.25 75.42 77.28 75.61 77.34C75.81 77.4 75.99 77.51 76.15 77.64C76.3 77.78 76.43 77.95 76.52 78.14C76.61 78.33 76.65 78.53 76.66 78.74C76.67 78.94 76.64 79.15 76.56 79.34C76.49 79.53 76.37 79.7 76.22 79.84C76.07 79.98 75.89 80.08 75.69 80.15C75.5 80.21 75.29 80.23 75.09 80.2L73.76 80.2L73.67 77.27ZM75.05 79.65C75.18 79.66 75.3 79.65 75.42 79.61C75.54 79.56 75.64 79.5 75.73 79.41C75.82 79.32 75.89 79.22 75.93 79.1C75.97 78.98 75.99 78.86 75.98 78.74C75.98 78.61 75.95 78.49 75.9 78.37C75.85 78.25 75.78 78.15 75.68 78.07C75.59 77.98 75.48 77.92 75.36 77.87C75.24 77.83 75.12 77.82 74.99 77.83L74.37 77.83L74.43 79.65L75.05 79.65Z" />
	<path id="Layer" class="shp9" d="M79.47 79.65L79.47 80.17L77.21 80.17L77.1 77.24L79.31 77.24L79.31 77.77L77.81 77.77L77.81 78.4L79.17 78.4L79.17 78.92L77.81 78.92L77.81 79.6L79.47 79.65Z" />
	<path id="Layer" class="shp9" d="M59.94 91.08L59.94 92.25L54.44 92.25L54.44 91.32L57.36 88.5C58.08 87.8 58.2 87.37 58.19 86.93C58.19 86.25 57.7 85.85 56.78 85.85C56.45 85.83 56.12 85.89 55.82 86.03C55.51 86.16 55.25 86.37 55.04 86.63L54.06 85.88C54.39 85.46 54.83 85.14 55.32 84.92C55.81 84.71 56.34 84.61 56.88 84.64C58.5 84.64 59.56 85.46 59.58 86.79C59.58 87.51 59.41 88.18 58.39 89.15L56.42 91.06L59.94 91.08Z" />
	<path id="Layer" class="shp9" d="M66.02 90.01C66.02 91.27 65.11 92.36 63.11 92.36C62.09 92.37 61.1 92.07 60.28 91.49L60.86 90.41C61.49 90.9 62.27 91.16 63.06 91.15C64.05 91.15 64.64 90.71 64.64 90.02C64.64 89.33 64.11 88.9 62.99 88.9L62.31 88.9L62.31 87.95L63.93 85.94L60.53 85.94L60.53 84.77L65.63 84.77L65.63 85.71L63.85 87.86C65.28 88.03 66.02 88.88 66.02 90.01Z" />
	<path id="Layer" fill-rule="evenodd" class="shp9" d="M73.01 90.13C73.01 91.52 71.85 92.38 69.99 92.38C68.13 92.38 66.92 91.52 66.9 90.13C66.88 89.75 66.99 89.37 67.2 89.05C67.4 88.73 67.71 88.48 68.06 88.34C67.77 88.19 67.53 87.97 67.36 87.69C67.19 87.41 67.1 87.09 67.1 86.77C67.1 85.49 68.19 84.67 69.85 84.67C71.5 84.67 72.66 85.47 72.68 86.77C72.7 87.09 72.62 87.41 72.46 87.69C72.29 87.97 72.05 88.2 71.76 88.34C72.13 88.48 72.44 88.72 72.66 89.04C72.89 89.36 73.01 89.74 73.01 90.13ZM71.61 90.09C71.61 89.35 70.95 88.89 69.92 88.89C68.9 88.89 68.28 89.35 68.3 90.09C68.31 90.82 68.94 91.29 69.96 91.29C70.99 91.29 71.63 90.82 71.61 90.06L71.61 90.09ZM68.47 86.84C68.47 87.48 68.99 87.89 69.9 87.89C70.8 87.89 71.32 87.48 71.31 86.84C71.29 86.2 70.71 85.79 69.85 85.79C69 85.79 68.47 86.14 68.48 86.81L68.47 86.84Z" />
	<path id="Layer" fill-rule="evenodd" class="shp9" d="M79.98 90.13C79.98 91.52 78.81 92.38 76.95 92.38C75.09 92.38 73.88 91.49 73.88 90.13C73.87 89.75 73.97 89.37 74.18 89.05C74.39 88.73 74.69 88.48 75.05 88.34C74.76 88.19 74.51 87.97 74.34 87.69C74.18 87.41 74.09 87.09 74.09 86.77C74.07 85.49 75.18 84.67 76.83 84.67C78.49 84.67 79.65 85.47 79.67 86.77C79.69 87.09 79.61 87.41 79.44 87.69C79.28 87.97 79.04 88.2 78.75 88.34C79.11 88.48 79.42 88.73 79.64 89.04C79.86 89.36 79.98 89.74 79.98 90.13ZM78.58 90.09C78.58 89.35 77.92 88.89 76.89 88.89C75.86 88.89 75.25 89.35 75.27 90.09C75.28 90.82 75.91 91.29 76.93 91.29C77.96 91.29 78.6 90.82 78.6 90.06L78.58 90.09ZM75.44 86.84C75.44 87.48 75.99 87.89 76.87 87.89C77.75 87.89 78.29 87.48 78.28 86.84C78.27 86.2 77.68 85.79 76.83 85.79C75.97 85.79 75.46 86.14 75.46 86.81L75.44 86.84Z" />
	<path id="Layer" class="shp13" d="M41.13 78.76C41.06 78.76 41 78.74 40.95 78.69C40.9 78.65 40.87 78.58 40.87 78.52L39.94 65.85C39.93 65.78 39.96 65.71 40 65.66C40.05 65.61 40.11 65.58 40.18 65.57C40.25 65.57 40.32 65.59 40.37 65.64C40.42 65.68 40.46 65.75 40.46 65.81L41.4 78.48C41.4 78.51 41.39 78.55 41.38 78.58C41.37 78.61 41.36 78.64 41.33 78.67C41.31 78.7 41.28 78.72 41.25 78.73C41.22 78.75 41.19 78.76 41.15 78.76L41.13 78.76Z" />
	<path id="Layer" class="shp13" d="M40.02 63.67C39.96 63.67 39.89 63.64 39.84 63.6C39.8 63.55 39.77 63.49 39.76 63.42L39.51 60.08C39.51 60.05 39.52 60.01 39.53 59.98C39.54 59.95 39.56 59.92 39.58 59.89C39.62 59.84 39.69 59.81 39.76 59.8C39.83 59.8 39.9 59.82 39.95 59.87C40 59.91 40.03 59.98 40.04 60.05L40.29 63.39C40.29 63.46 40.27 63.52 40.22 63.58C40.18 63.63 40.11 63.66 40.04 63.67L40.02 63.67Z" />
	<path id="Layer" class="shp9" d="M64.65 47.73C64.58 47.73 64.51 47.7 64.46 47.65C64.41 47.61 64.38 47.54 64.38 47.47L64.38 39.76C64.38 39.69 64.41 39.63 64.46 39.58C64.51 39.53 64.58 39.5 64.65 39.5C64.72 39.5 64.78 39.53 64.83 39.58C64.88 39.63 64.91 39.69 64.91 39.76L64.91 47.47C64.91 47.54 64.88 47.61 64.83 47.65C64.78 47.7 64.72 47.73 64.65 47.73Z" />
	<path id="Layer" class="shp9" d="M58.54 49.37C58.5 49.37 58.45 49.35 58.41 49.33C58.37 49.31 58.34 49.27 58.32 49.24L54.46 42.56C54.42 42.5 54.42 42.43 54.43 42.36C54.45 42.29 54.5 42.24 54.56 42.2C54.62 42.17 54.69 42.16 54.76 42.17C54.82 42.19 54.88 42.24 54.92 42.3L58.77 48.97C58.78 49 58.8 49.04 58.8 49.07C58.81 49.1 58.8 49.14 58.79 49.17C58.79 49.2 58.77 49.24 58.75 49.26C58.73 49.29 58.7 49.31 58.67 49.33C58.63 49.35 58.59 49.36 58.54 49.37Z" />
	<path id="Layer" class="shp9" d="M70.74 49.37C70.69 49.37 70.65 49.36 70.61 49.33C70.55 49.3 70.51 49.24 70.49 49.17C70.47 49.11 70.48 49.03 70.51 48.97L74.37 42.3C74.4 42.24 74.46 42.19 74.53 42.17C74.59 42.16 74.66 42.17 74.72 42.2C74.79 42.24 74.83 42.29 74.85 42.36C74.87 42.43 74.86 42.5 74.82 42.56L70.98 49.26C70.95 49.29 70.91 49.32 70.87 49.34C70.83 49.36 70.79 49.37 70.74 49.37Z" />
	<path id="Layer" class="shp9" d="M161.04 216.87C160.49 205.9 161.56 194.91 164.23 184.26L164.75 184.38C162.1 194.99 161.03 205.93 161.57 216.84L161.04 216.87Z" />
	<path id="Layer" class="shp9" d="M162.15 183.19C162.23 182.97 162.36 182.78 162.52 182.61C162.68 182.44 162.87 182.3 163.08 182.21C163.3 182.11 163.53 182.06 163.76 182.06C163.99 182.05 164.22 182.09 164.44 182.17C164.66 182.26 164.85 182.38 165.02 182.54C165.19 182.7 165.33 182.9 165.42 183.11C165.52 183.32 165.57 183.55 165.57 183.78C165.6 184.76 164.89 188.26 163.91 188.28C162.93 188.31 162.03 184.85 162.03 183.87C162.03 183.64 162.06 183.41 162.15 183.19Z" />
	<path id="Layer" class="shp9" d="M165.72 195.55C165.64 195.77 165.51 195.97 165.35 196.13C165.19 196.3 165 196.44 164.79 196.53C164.57 196.63 164.34 196.68 164.11 196.68C163.88 196.69 163.65 196.65 163.43 196.56C163.21 196.48 163.01 196.35 162.85 196.19C162.68 196.03 162.54 195.84 162.45 195.63C162.35 195.42 162.3 195.19 162.3 194.95C162.28 193.97 162.99 190.47 163.97 190.45C164.94 190.43 165.84 193.89 165.84 194.87C165.85 195.1 165.81 195.33 165.72 195.55Z" />
	<path id="Layer" class="shp9" d="M157.76 191.14C157.54 191.06 157.34 190.93 157.17 190.77C157 190.61 156.87 190.42 156.77 190.21C156.68 189.99 156.63 189.76 156.62 189.53C156.62 189.3 156.66 189.07 156.74 188.85C156.83 188.63 156.95 188.44 157.11 188.27C157.27 188.1 157.47 187.96 157.68 187.87C157.89 187.78 158.12 187.72 158.35 187.72C159.33 187.69 162.82 188.4 162.85 189.38C162.88 190.36 159.42 191.26 158.44 191.26C158.2 191.26 157.97 191.22 157.76 191.14Z" />
	<path id="Layer" class="shp9" d="M170.12 187.58C170.33 187.67 170.53 187.79 170.7 187.95C170.87 188.11 171 188.31 171.1 188.52C171.19 188.73 171.25 188.96 171.25 189.19C171.26 189.43 171.22 189.66 171.13 189.87C171.05 190.09 170.92 190.29 170.76 190.46C170.6 190.63 170.41 190.76 170.2 190.86C169.99 190.95 169.76 191 169.53 191.01C168.54 191.03 165.05 190.32 165.02 189.34C165 188.37 168.46 187.47 169.44 187.47C169.67 187.46 169.9 187.5 170.12 187.58Z" />
	<path id="Layer" class="shp9" d="M158.15 185.59C158.14 185.12 158.32 184.66 158.64 184.32C158.97 183.98 159.41 183.78 159.88 183.78C160.35 183.76 160.81 183.94 161.15 184.26C161.85 184.95 163.83 187.91 163.15 188.62C162.48 189.33 159.41 187.5 158.7 186.83C158.36 186.5 158.16 186.06 158.15 185.59Z" />
	<path id="Layer" class="shp9" d="M169.57 192.48C169.67 192.69 169.72 192.92 169.72 193.15C169.73 193.38 169.69 193.62 169.6 193.83C169.52 194.05 169.39 194.25 169.23 194.42C169.07 194.59 168.88 194.72 168.67 194.81C168.46 194.91 168.22 194.96 167.99 194.97C167.76 194.97 167.53 194.93 167.31 194.85C167.09 194.76 166.9 194.64 166.73 194.48C166.02 193.79 164.05 190.82 164.72 190.12C165.4 189.41 168.47 191.23 169.17 191.91C169.34 192.07 169.48 192.26 169.57 192.48Z" />
	<path id="Layer" class="shp9" d="M160.15 195.16C159.68 195.17 159.22 194.99 158.88 194.67C158.54 194.34 158.35 193.9 158.34 193.43C158.32 192.96 158.5 192.5 158.82 192.16C159.52 191.45 162.48 189.48 163.18 190.15C163.89 190.83 162.07 193.9 161.39 194.61C161.07 194.95 160.62 195.15 160.15 195.16Z" />
	<path id="Layer" class="shp9" d="M167.05 183.74C167.26 183.64 167.49 183.59 167.72 183.59C167.95 183.58 168.18 183.62 168.4 183.71C168.62 183.79 168.82 183.91 168.99 184.08C169.15 184.24 169.29 184.43 169.38 184.64C169.48 184.85 169.53 185.08 169.53 185.32C169.54 185.55 169.5 185.78 169.41 186C169.33 186.21 169.2 186.41 169.04 186.58C168.36 187.29 165.4 189.26 164.69 188.58C163.97 187.91 165.8 184.84 166.48 184.13C166.64 183.97 166.83 183.83 167.05 183.74Z" />
	<path id="Layer" class="shp5" d="M161.98 188.61C162.08 188.36 162.23 188.12 162.42 187.92C162.61 187.72 162.83 187.56 163.09 187.45C163.34 187.34 163.61 187.28 163.89 187.27C164.3 187.26 164.71 187.38 165.06 187.6C165.41 187.82 165.68 188.14 165.85 188.52C166.02 188.9 166.07 189.32 166 189.73C165.93 190.14 165.74 190.51 165.45 190.81C165.16 191.11 164.79 191.32 164.39 191.41C163.99 191.5 163.56 191.47 163.18 191.32C162.79 191.17 162.46 190.91 162.22 190.57C161.98 190.24 161.85 189.84 161.84 189.42C161.83 189.15 161.88 188.87 161.98 188.61Z" />
	<path id="Layer" class="shp9" d="M161.54 205.01C161.54 205.01 161.9 199.66 164.84 198.82C167.78 197.98 168.85 196.82 168.85 196.82C168.85 196.82 168.56 205.12 161.54 205.01Z" />
	<path id="Layer" class="shp14" d="M161.54 205.01C161.54 205.01 161.9 199.66 164.84 198.82C167.78 197.98 168.85 196.82 168.85 196.82C168.85 196.82 168.56 205.12 161.54 205.01Z" />
	<path id="Layer" class="shp9" d="M153.84 200.92C153.84 200.92 154.91 202.06 157.85 202.91C160.79 203.76 161.15 209.11 161.15 209.11C154.13 209.22 153.84 200.92 153.84 200.92Z" />
	<path id="Layer" class="shp14" d="M153.84 200.92C153.84 200.92 154.91 202.06 157.85 202.91C160.79 203.76 161.15 209.11 161.15 209.11C154.13 209.22 153.84 200.92 153.84 200.92Z" />
	<path id="Layer" class="shp9" d="M172.24 220.26C172.24 224.45 167.27 227.81 161.13 227.81C155 227.81 150.03 224.43 150.03 220.26C150.03 218.16 151.31 216.23 153.36 214.87C154.66 214.02 156.1 213.42 157.62 213.09L164.65 213.09C166.21 213.43 167.68 214.05 169.01 214.93C171.01 216.3 172.24 218.18 172.24 220.26Z" />
	<path id="Layer" class="shp15" d="M164.65 213.09C166.21 213.43 167.68 214.05 169.01 214.93C171.01 216.3 172.24 218.18 172.24 220.26C172.24 224.45 167.27 227.81 161.13 227.81C155 227.81 150.03 224.43 150.03 220.26C150.03 218.16 151.31 216.23 153.36 214.87C154.66 214.02 156.1 213.42 157.62 213.09L164.65 213.09Z" />
	<path id="Layer" class="shp9" d="M161.43 217.51L160.91 217.51L160.91 213.78L161.43 213.78L161.43 217.51Z" />
	<path id="Layer" class="shp9" d="M169.49 212.98L168.91 214.81L168.9 214.84L153.37 214.84L153.34 214.74L152.78 212.98L169.49 212.98Z" />
	<path id="Layer" class="shp8" d="M170.93 221.78C169.82 223.32 168.35 224.58 166.66 225.45C164 226.86 152.78 227.22 151.49 220.86C151.49 220.77 151.45 220.68 151.43 220.59C151.38 220.2 151.41 219.8 151.53 219.42C151.65 219.04 151.86 218.69 152.14 218.41C152.41 218.12 152.75 217.9 153.12 217.76C153.5 217.63 153.9 217.58 154.29 217.62C155.35 217.69 156.42 217.63 157.47 217.44C161.5 216.83 165.61 217.05 169.55 218.08C169.92 218.18 170.27 218.37 170.55 218.63C170.84 218.89 171.06 219.21 171.19 219.57C171.33 219.94 171.38 220.32 171.33 220.71C171.28 221.09 171.15 221.46 170.93 221.78Z" />
	<path id="Layer" fill-rule="evenodd" class="shp9" d="M89.47 219.55C89.1 219.39 88.75 219.18 88.42 218.94C88.41 218.93 88.4 218.91 88.39 218.89C88.38 218.87 88.38 218.85 88.38 218.83C88.39 218.81 88.4 218.79 88.41 218.78C88.43 218.76 88.45 218.76 88.47 218.75C88.66 218.72 90.3 218.42 90.7 218.84C90.74 218.88 90.78 218.94 90.79 219.01C90.81 219.07 90.8 219.14 90.78 219.2C90.76 219.3 90.72 219.4 90.65 219.48C90.58 219.56 90.49 219.62 90.4 219.66C90.08 219.73 89.76 219.69 89.47 219.55ZM88.75 218.93C89.45 219.36 90.02 219.57 90.32 219.46C90.39 219.43 90.44 219.39 90.49 219.34C90.53 219.28 90.56 219.22 90.57 219.15C90.58 219.12 90.59 219.09 90.58 219.06C90.57 219.03 90.56 219.01 90.54 218.99C90.33 218.76 89.43 218.82 88.75 218.93Z" />
	<path id="Layer" fill-rule="evenodd" class="shp9" d="M88.44 218.96C88.42 218.95 88.4 218.94 88.39 218.92C88.38 218.91 88.38 218.89 88.38 218.87C88.38 218.85 88.38 218.83 88.39 218.82C88.41 218.76 88.92 217.56 89.55 217.34C89.63 217.31 89.72 217.3 89.8 217.31C89.88 217.32 89.97 217.34 90.04 217.38C90.12 217.41 90.18 217.47 90.22 217.55C90.26 217.62 90.28 217.71 90.26 217.79C90.16 218.31 89.03 218.9 88.5 218.96L88.44 218.96ZM89.89 217.54C89.8 217.51 89.71 217.51 89.63 217.54C89.25 217.66 88.87 218.31 88.68 218.71C89.22 218.56 89.99 218.07 90.05 217.75C90.06 217.71 90.05 217.64 89.93 217.57L89.89 217.54Z" />
	<path id="Layer" class="shp16" d="M87.25 207L91.52 208.72L87.8 218.58L83.53 216.85L87.25 207Z" />
	<path id="Layer" class="shp8" d="M88.95 218.78C89.71 220.16 89.81 221.35 92.86 223.41C93.54 223.87 92.71 225.58 90.92 224.85C89.14 224.12 87.3 223.22 86 222.7C83.89 221.85 83.05 221.62 81.36 220.97C81.27 220.93 81.18 220.88 81.11 220.8C81.03 220.73 80.98 220.64 80.94 220.54C80.91 220.45 80.89 220.34 80.9 220.24C80.91 220.14 80.94 220.04 80.99 219.95L83.09 216.44C83.13 216.36 83.2 216.31 83.29 216.28C83.37 216.25 83.47 216.26 83.55 216.29L88.34 218.22C88.6 218.33 88.82 218.53 88.95 218.78Z" />
	<path id="Layer" class="shp9" d="M91.46 213.56L84.05 210.56L84.74 207.84L92.69 210.75L91.46 213.56Z" />
	<path id="Layer" class="shp16" d="M98.88 99.47C97.38 103.83 92.93 114.08 89.5 109.8C88.88 109.05 88.38 108.21 88 107.31C86.55 103.72 86.19 97.9 86 96.63L84.84 92.64C84.81 92.58 84.8 92.5 84.8 92.43L84.8 90.15C84.8 89.23 85.55 88.68 86.55 88.77C86.55 88.77 88.18 88.58 88.18 89.55L88.49 92.97C88.66 94.16 88.18 95.81 88.46 96.9C89.51 101.01 90.95 101.19 91.86 105.43C93.12 102.37 95.38 97.09 95.38 97.09C96.88 97.28 99.38 98.04 98.88 99.47Z" />
	<path id="Layer" class="shp17" d="M93.51 111.37C93.27 111.73 92.95 112.04 92.57 112.25C92.19 112.47 91.77 112.59 91.33 112.61C90.89 112.62 90.46 112.53 90.06 112.34C89.67 112.15 89.33 111.87 89.07 111.52C88.45 110.69 87.96 109.78 87.62 108.8C86.26 104.33 85.42 101.56 85.3 96.89C85.78 96.41 86.39 96.06 87.06 95.9C87.73 95.75 88.43 95.78 89.08 96L91.31 103.56C91.31 103.56 95.86 92.27 97.69 91.86C99.86 91.39 100.76 93.32 101.68 95.7C102.34 97.41 96.47 106.8 93.51 111.37Z" />
	<path id="Layer" class="shp16" d="M111.86 80.56C111.34 83.18 110.2 88.9 112.03 90.65C112.03 90.65 111.31 93.31 106.44 93.31C101.08 93.31 103.88 90.65 103.88 90.65C106.81 89.96 106.73 87.79 106.22 85.75L111.86 80.56Z" />
	<path id="Layer" class="shp11" d="M103.57 74.39C103.53 74.37 103.5 74.34 103.48 74.31C103.37 74.08 103.21 73.87 103 73.7C102.8 73.54 102.55 73.43 102.3 73.38C102.27 73.38 102.24 73.37 102.22 73.36C102.19 73.34 102.17 73.33 102.16 73.3C102.14 73.28 102.13 73.26 102.12 73.23C102.11 73.21 102.11 73.18 102.11 73.15C102.11 73.12 102.12 73.1 102.14 73.07C102.15 73.05 102.17 73.03 102.19 73.01C102.21 72.99 102.23 72.98 102.26 72.97C102.29 72.97 102.31 72.96 102.34 72.97C102.67 73.02 102.98 73.16 103.24 73.36C103.51 73.56 103.72 73.82 103.86 74.13C103.88 74.17 103.89 74.23 103.87 74.28C103.85 74.34 103.82 74.38 103.77 74.41C103.74 74.41 103.7 74.41 103.67 74.41C103.64 74.41 103.6 74.4 103.57 74.39Z" />
	<path id="Layer" class="shp18" d="M101.77 79.16C101.55 79.19 101.32 79.17 101.11 79.1C100.89 79.03 100.7 78.92 100.53 78.77C101.14 78.14 101.66 77.44 102.08 76.67L101.77 79.16Z" />
	<path id="Layer" class="shp11" d="M102.5 75.91C102.57 76.25 102.45 76.58 102.22 76.62C102 76.67 101.75 76.43 101.67 76.1C101.6 75.77 101.72 75.43 101.95 75.38C102.18 75.33 102.42 75.56 102.5 75.91Z" />
	<path id="Layer" class="shp11" d="M102.05 75.36L101.16 75.3C101.16 75.3 101.73 75.86 102.05 75.36Z" />
	<path id="Layer" class="shp19" d="M98.7 97.24C99.62 96.38 100.27 96.64 100.68 97.32C101.1 99.28 98.58 103.39 97.59 104.94L98.7 97.24Z" />
	<path id="Layer" class="shp17" d="M120.15 99.82C120.03 101.98 119.83 104.7 119.5 108.12C119.15 111.73 118.66 116.12 117.98 121.45C110.86 121.45 103.41 121.34 99.94 121.34C100.24 114.26 100.34 107.08 97.17 93C97.13 92.82 97.12 92.64 97.15 92.47C97.18 92.29 97.25 92.12 97.35 91.97C97.45 91.82 97.57 91.69 97.72 91.59C97.87 91.49 98.04 91.42 98.21 91.39C100.28 91.02 102.38 90.77 104.47 90.65C107.19 90.46 109.91 90.46 112.62 90.65C116.12 90.97 120.09 91.78 120.09 91.78C120.09 91.78 120.52 93.08 120.15 99.82Z" />
	<path id="Layer" class="shp19" d="M120.15 99.82C120.03 101.98 119.83 104.7 119.5 108.12C117.58 105.9 115.77 98.25 116.35 95.64C117.78 96.69 119.04 97.97 120.08 99.41C120.11 99.54 120.14 99.68 120.15 99.82Z" />
	<path id="Layer" class="shp16" d="M138.65 109.41L142.31 107.36L143 111.09C143 111.09 139.9 112.28 138.28 111.45L138.65 109.41Z" />
	<path id="Layer" class="shp16" d="M144.74 107.78L145 109C145.03 109.19 145.02 109.38 144.94 109.56C144.87 109.74 144.75 109.89 144.59 110L142.98 111.09L142.3 107.35L143.56 107.04C143.69 107.01 143.82 107 143.95 107.02C144.08 107.04 144.2 107.09 144.31 107.16C144.42 107.23 144.51 107.32 144.59 107.42C144.66 107.53 144.71 107.65 144.74 107.78Z" />
	<path id="Layer" class="shp16" d="M120.71 94.11C121.86 96.3 125.68 105.04 127.12 106.85L127.4 107.17L127.54 107.34C127.57 107.38 127.61 107.43 127.65 107.47C127.77 107.6 127.9 107.72 128.04 107.82C128.42 108.08 128.83 108.29 129.26 108.43C130.33 108.78 131.44 109 132.56 109.08C133.77 109.19 134.99 109.23 136.2 109.19C137.43 109.17 138.7 109.1 139.91 108.99L140.34 111.17C137.77 111.95 135.11 112.41 132.43 112.51C130.99 112.57 129.55 112.44 128.14 112.11C127.34 111.91 126.57 111.6 125.86 111.19C125.46 110.95 125.09 110.67 124.75 110.34C124.65 110.25 124.6 110.2 124.53 110.13L124.35 109.94L123.98 109.55C122.1 107.48 117.81 98.49 116.64 96.11L120.71 94.11Z" />
	<path id="Layer" class="shp17" d="M138.59 113.13C135.57 114.74 132.03 115.08 128.76 114.08C125.64 113.08 123.01 110.95 121.38 108.1C119.49 105.32 114.45 97.45 115.09 95.42C115.84 92.98 117.43 91.47 120.1 92.13C121.97 92.58 125.53 101.67 127.26 105.3C127.94 106.31 129.24 107.92 130.69 108.41C133.25 109.3 135.14 108.93 137.82 108.53C138.31 108.82 138.28 109.28 138.53 109.79C138.79 110.3 138.93 110.87 138.94 111.45C138.95 112.03 138.83 112.61 138.59 113.13Z" />
	<path id="Layer" class="shp16" d="M114.5 76.36C113.7 80.67 113.46 82.51 110.98 84.47C107.27 87.41 102.15 85.49 101.66 81.02C101.2 77 102.59 70.63 107.06 69.43C108.04 69.16 109.08 69.15 110.07 69.39C111.06 69.63 111.97 70.13 112.72 70.82C113.46 71.51 114.02 72.39 114.33 73.36C114.64 74.33 114.7 75.36 114.5 76.36Z" />
	<path id="Layer" class="shp8" d="M129.79 100.21C128.97 101.15 128.72 101.69 127.57 102.2C126.42 102.71 123.94 102.26 123.14 101.29C123.4 102.05 124.9 103.39 125.69 103.51C124.8 104 123.77 104.17 122.78 103.99C121.78 103.82 120.87 103.31 120.21 102.55C120.31 103.02 120.54 103.46 120.87 103.81C121.2 104.17 121.61 104.44 122.07 104.6C112.03 104.86 116.26 100.13 109.97 93.41C103.01 85.97 104.52 79.82 104.52 79.82C104.54 78.28 104.06 76.79 103.16 75.55C102.15 74.26 102.44 72.52 102.76 71.55C103.23 70.12 104.65 69.61 106.01 69.53C106.25 68.12 109.16 68.38 109.51 68.61C109.86 68.85 109.9 68.8 110.22 68.61C110.93 68.16 112.71 67.69 114.61 69.23C115.78 70.17 117.03 71.85 117.07 75.45C117.11 79.19 115.32 83.63 121.5 89.3C125.15 92.63 123.4 99.82 129.79 100.21Z" />
	<path id="Layer" class="shp16" d="M106.05 76.64C106.62 77.55 105.94 78.83 105.16 79.54C104.38 80.25 103.31 80.17 103.13 79.07C103 78.23 103.21 77.38 103.69 76.69C104.3 75.85 105.47 75.72 106.05 76.64Z" />
	<path id="Layer" class="shp8" d="M113.42 121.44C113.42 121.44 111.28 151.53 108.87 171.36C108.14 177.32 106.33 183.09 103.51 188.38L91.7 210.69L85.64 208.3C85.64 208.3 89.83 187.1 98 175.54C98 175.54 91.89 141 99.89 121.34L113.42 121.44Z" />
	<path id="Layer" class="shp19" d="M105.18 128.73C105.18 128.73 106.98 142.35 107.97 150.46C104.28 145.59 101.41 138.79 105.18 128.73Z" />
	<path id="Layer" fill-rule="evenodd" class="shp9" d="M127.87 222.81C127.46 222.84 127.04 222.82 126.64 222.76C126.61 222.75 126.6 222.75 126.58 222.73C126.56 222.72 126.55 222.7 126.55 222.68C126.54 222.66 126.54 222.64 126.55 222.62C126.56 222.6 126.57 222.58 126.58 222.57C126.73 222.45 128.03 221.43 128.59 221.62C128.66 221.64 128.71 221.68 128.76 221.72C128.8 221.77 128.83 221.83 128.84 221.9C128.87 222 128.88 222.11 128.86 222.21C128.84 222.31 128.79 222.41 128.72 222.49C128.48 222.69 128.18 222.8 127.87 222.81ZM126.93 222.57C127.75 222.66 128.34 222.57 128.55 222.34C128.6 222.29 128.63 222.22 128.64 222.15C128.66 222.09 128.65 222.02 128.63 221.95C128.62 221.92 128.61 221.89 128.59 221.87C128.57 221.85 128.55 221.83 128.52 221.82C128.23 221.72 127.46 222.18 126.93 222.57Z" />
	<path id="Layer" fill-rule="evenodd" class="shp9" d="M126.66 222.75C126.64 222.76 126.62 222.76 126.6 222.75C126.59 222.74 126.57 222.73 126.56 222.72C126.55 222.7 126.54 222.68 126.54 222.66C126.53 222.61 126.42 221.31 126.87 220.82C126.93 220.76 127 220.71 127.07 220.68C127.15 220.65 127.23 220.63 127.32 220.63C127.4 220.63 127.49 220.65 127.56 220.7C127.63 220.75 127.68 220.82 127.71 220.9C127.87 221.4 127.13 222.45 126.71 222.74C126.7 222.75 126.68 222.75 126.66 222.75ZM127.26 220.86C127.17 220.86 127.09 220.91 127.03 220.97C126.78 221.42 126.68 221.93 126.75 222.43C127.15 222.05 127.59 221.27 127.5 220.96C127.49 220.91 127.45 220.85 127.31 220.85L127.26 220.86Z" />
	<path id="Layer" class="shp16" d="M119.91 212.74L124.5 212.3L125.91 222.73L121.32 223.17L119.91 212.74Z" />
	<path id="Layer" class="shp8" d="M127.04 222.38C128.35 223.27 129.03 224.26 132.69 224.68C133.48 224.77 133.57 226.66 131.65 226.84C129.72 227.02 127.66 227.07 126.27 227.21C123.97 227.43 123.14 227.62 121.35 227.82C121.25 227.83 121.15 227.82 121.05 227.79C120.95 227.76 120.86 227.71 120.78 227.64C120.7 227.57 120.64 227.49 120.6 227.39C120.56 227.3 120.54 227.19 120.54 227.09L120.72 223.02C120.73 222.93 120.76 222.85 120.83 222.78C120.89 222.72 120.97 222.68 121.06 222.67L126.22 222.18C126.51 222.15 126.8 222.22 127.04 222.38Z" />
	<path id="Layer" class="shp8" d="M117.96 121.44C117.96 121.44 123.83 157.34 124.96 178.6L125.17 216.69L120.42 217.62C120.42 217.62 113.54 193.32 112.74 179.27C110.65 142 98.51 141.94 105.81 121.37L117.96 121.44Z" />
	<path id="Layer" class="shp9" d="M126.75 216.85L118.89 217.93L118.08 214.91L126.49 213.81L126.75 216.85Z" />
	<path id="Layer" class="shp13" d="M84.36 82.92L84.66 82.92C84.59 82.92 84.52 82.94 84.46 82.97C84.39 82.99 84.33 83.03 84.28 83.09C84.23 83.14 84.2 83.2 84.17 83.26C84.15 83.33 84.14 83.4 84.14 83.47L84.62 92.6C84.64 92.74 84.7 92.87 84.81 92.97C84.91 93.07 85.05 93.12 85.2 93.12L84.89 93.12C84.74 93.12 84.61 93.06 84.5 92.97C84.39 92.87 84.33 92.74 84.31 92.6L83.84 83.47C83.84 83.4 83.85 83.33 83.87 83.26C83.9 83.2 83.93 83.14 83.98 83.09C84.03 83.03 84.09 82.99 84.16 82.97C84.22 82.94 84.29 82.92 84.36 82.92Z" />
	<path id="Layer" class="shp7" d="M84.36 82.92L84.66 82.92C84.59 82.92 84.52 82.94 84.46 82.97C84.39 82.99 84.33 83.03 84.28 83.09C84.23 83.14 84.2 83.2 84.17 83.26C84.15 83.33 84.14 83.4 84.14 83.47L84.62 92.6C84.64 92.74 84.7 92.87 84.81 92.97C84.91 93.07 85.05 93.12 85.2 93.12L84.89 93.12C84.74 93.12 84.61 93.06 84.5 92.97C84.39 92.87 84.33 92.74 84.31 92.6L83.84 83.47C83.84 83.4 83.85 83.33 83.87 83.26C83.9 83.2 83.93 83.14 83.98 83.09C84.03 83.03 84.09 82.99 84.16 82.97C84.22 82.94 84.29 82.92 84.36 82.92Z" />
	<path id="Layer" class="shp13" d="M84.58 92.99C84.47 92.9 84.41 92.77 84.39 92.62L83.91 83.5C83.91 83.43 83.92 83.36 83.95 83.29C83.97 83.22 84.01 83.16 84.06 83.11C84.11 83.06 84.17 83.02 84.23 82.99C84.3 82.96 84.37 82.95 84.44 82.95L88.11 82.95C88.25 82.95 88.39 83.01 88.5 83.11C88.61 83.21 88.67 83.35 88.68 83.5L89.16 92.62C89.16 92.76 89.1 92.89 89.01 92.99C88.91 93.09 88.77 93.15 88.63 93.15L84.97 93.15C84.82 93.14 84.69 93.09 84.58 92.99Z" />
	<path id="Layer" class="shp20" d="M84.58 92.99C84.47 92.9 84.41 92.77 84.39 92.62L83.91 83.5C83.91 83.43 83.92 83.36 83.95 83.29C83.97 83.22 84.01 83.16 84.06 83.11C84.11 83.06 84.17 83.02 84.23 82.99C84.3 82.96 84.37 82.95 84.44 82.95L88.11 82.95C88.25 82.95 88.39 83.01 88.5 83.11C88.61 83.21 88.67 83.35 88.68 83.5L89.16 92.62C89.16 92.76 89.1 92.89 89.01 92.99C88.91 93.09 88.77 93.15 88.63 93.15L84.97 93.15C84.82 93.14 84.69 93.09 84.58 92.99Z" />
	<path id="Layer" class="shp8" d="M88.94 92.41C88.94 92.45 88.94 92.5 88.92 92.54C88.9 92.59 88.88 92.63 88.85 92.66C88.78 92.72 88.7 92.76 88.6 92.76L85.03 92.76C84.94 92.76 84.84 92.72 84.77 92.65C84.7 92.58 84.65 92.49 84.65 92.39L84.18 83.54C84.18 83.49 84.18 83.45 84.2 83.4C84.21 83.36 84.24 83.32 84.27 83.29C84.3 83.26 84.34 83.23 84.38 83.21C84.42 83.19 84.47 83.18 84.52 83.19L88.08 83.19C88.18 83.19 88.28 83.23 88.35 83.29C88.42 83.36 88.47 83.46 88.47 83.56L88.5 84.19L88.94 92.41Z" />
	<g id="Layer" style="opacity: 0.102">
		<path id="Layer" class="shp7" d="M88.5 84.19L87.32 92.75L85.9 92.75L87.24 83.17L88.08 83.17C88.18 83.18 88.28 83.21 88.35 83.28C88.42 83.35 88.47 83.45 88.47 83.55L88.5 84.19Z" />
		<path id="Layer" class="shp7" d="M85.39 92.76L85.07 92.76L86.41 83.18L86.73 83.18L85.39 92.76Z" />
	</g>
	<path id="Layer" class="shp17" d="M118.21 122.24C120.07 126.49 121.64 134.99 121.99 139.59C111.8 138.23 103.5 146.32 94.59 139.41C94.68 133.51 96.12 127.72 98.78 122.46C105.15 121.85 111.46 122.53 118.21 122.24Z" />
	<path id="Layer" class="shp5" d="M99.84 120.5C99.9 120.48 99.95 120.47 100 120.48L118.06 120.48C118.23 120.48 118.37 120.57 118.37 120.68L118.2 122.25C118.19 122.36 118.06 122.44 117.9 122.44L99.19 122.44C98.99 122.44 99.71 120.59 99.71 120.59C99.75 120.55 99.79 120.52 99.84 120.5Z" />
	<path id="Layer" class="shp13" d="M102.35 122.62L101.87 122.62C101.77 122.62 101.69 122.56 101.7 122.5L101.93 120.41C101.93 120.34 102.02 120.3 102.11 120.3L102.6 120.3C102.69 120.3 102.77 120.34 102.76 120.41L102.54 122.5C102.52 122.54 102.5 122.57 102.46 122.59C102.43 122.61 102.39 122.62 102.35 122.62Z" />
	<path id="Layer" class="shp13" d="M114.06 122.62L113.58 122.62C113.49 122.62 113.42 122.56 113.42 122.5L113.64 120.41C113.64 120.34 113.73 120.3 113.83 120.3L114.32 120.3C114.41 120.3 114.48 120.34 114.48 120.41L114.25 122.5C114.23 122.54 114.16 122.62 114.06 122.62Z" />
</svg>