<svg width="16" height="20" viewBox="0 0 16 20" fill="none" xmlns="http://www.w3.org/2000/svg">
<path d="M3.14674 1.10167L5.51674 0L8.88424 6.575L6.61424 7.6925C6.1659 8.74167 8.4134 12.9333 9.36174 13.0025C9.43674 12.9542 11.5876 11.8958 11.5876 11.8958L15.0126 18.5058C15.0126 18.5058 12.7092 19.6342 12.6342 19.6692C6.08257 22.6617 -3.28493 4.45417 3.14674 1.10167ZM4.75424 2.16333L3.90174 2.58333C-0.509928 4.885 7.38257 20.2375 11.9417 18.155L12.7509 17.76L10.8584 14.1075L10.0034 14.5242C7.36757 15.8133 3.11841 7.675 5.7909 6.2425L6.63007 5.82833L4.75424 2.16333Z" fill="#3F686C"/>
</svg>
