<svg width="8" height="16" viewBox="0 0 8 16" fill="none" xmlns="http://www.w3.org/2000/svg">
<path d="M8 10.1091C8 7.42787 5.44914 6.68162 3.49371 5.67662C2.30628 5.00162 2.456 3.39037 4.15771 3.28162C5.10171 3.21912 6.072 3.52537 6.94971 3.86287L7.36343 1.80412C6.32685 1.45912 5.39885 1.30162 4.57143 1.27787V0.00537109H3.42857V1.33912C1.20571 1.67287 0.0182853 3.19787 0.0182853 4.90162C0.0182853 7.94912 3.272 8.41412 4.336 8.95537C5.78743 9.66537 5.51886 11.1429 4.20571 11.4691C3.06628 11.7516 1.61257 11.2591 0.52 10.7941L0 12.8491C1.02171 13.4266 2.24571 13.7341 3.42857 13.7579V15.0054H4.57143V13.6891C6.46514 13.3991 8.00228 12.2566 8 10.1091Z" fill="#807F7F"/>
</svg>
