<svg width="32" height="32" viewBox="0 0 32 32" fill="none" xmlns="http://www.w3.org/2000/svg">
<path d="M9.99993 18C9.79029 18.0005 9.58577 17.9352 9.4153 17.8132C9.24483 17.6911 9.11702 17.5186 9.04993 17.32C9.00757 17.1953 8.99028 17.0634 8.99904 16.9319C9.0078 16.8005 9.04245 16.6721 9.10099 16.5541C9.15953 16.4361 9.24082 16.3308 9.34017 16.2443C9.43952 16.1578 9.55499 16.0918 9.67993 16.05L15.6799 14.05C15.9319 13.9651 16.2072 13.9838 16.4454 14.102C16.6836 14.2201 16.8651 14.4281 16.9499 14.68C17.0348 14.932 17.0161 15.2073 16.898 15.4455C16.7798 15.6837 16.5719 15.8651 16.3199 15.95L10.3199 17.95C10.2159 17.9805 10.1083 17.9973 9.99993 18Z" fill="#3F686C"/>
<path d="M22 18C21.8916 17.9973 21.7841 17.9805 21.68 17.95L15.68 15.95C15.5552 15.908 15.44 15.8418 15.3408 15.7552C15.2416 15.6687 15.1605 15.5634 15.102 15.4455C15.0435 15.3276 15.0088 15.1993 14.9999 15.0679C14.9909 14.9366 15.008 14.8048 15.05 14.68C15.092 14.5553 15.1582 14.44 15.2448 14.3408C15.3313 14.2416 15.4366 14.1605 15.5545 14.102C15.7927 13.9838 16.068 13.9651 16.32 14.05L22.32 16.05C22.4494 16.0865 22.5702 16.1488 22.675 16.233C22.7798 16.3173 22.8666 16.4218 22.9301 16.5404C22.9935 16.659 23.0325 16.7891 23.0445 16.9231C23.0565 17.057 23.0414 17.192 23 17.32C22.9304 17.527 22.795 17.7055 22.6144 17.8283C22.4339 17.9511 22.2181 18.0114 22 18Z" fill="#3F686C"/>
<path d="M16 30C12.08 30 9 24.29 9 17C9 16.7348 9.10536 16.4804 9.29289 16.2929C9.48043 16.1054 9.73478 16 10 16C10.2652 16 10.5196 16.1054 10.7071 16.2929C10.8946 16.4804 11 16.7348 11 17C11 23.48 13.63 28 16 28C16.2652 28 16.5196 28.1054 16.7071 28.2929C16.8946 28.4804 17 28.7348 17 29C17 29.2652 16.8946 29.5196 16.7071 29.7071C16.5196 29.8946 16.2652 30 16 30Z" fill="#3F686C"/>
<path d="M16 30C15.7348 30 15.4804 29.8946 15.2929 29.7071C15.1054 29.5196 15 29.2652 15 29C15 28.7348 15.1054 28.4804 15.2929 28.2929C15.4804 28.1054 15.7348 28 16 28C18.37 28 21 23.48 21 17C21 16.7348 21.1054 16.4804 21.2929 16.2929C21.4804 16.1054 21.7348 16 22 16C22.2652 16 22.5196 16.1054 22.7071 16.2929C22.8946 16.4804 23 16.7348 23 17C23 24.29 19.92 30 16 30Z" fill="#3F686C"/>
<path d="M7 25C5.14348 25 3.36301 24.2625 2.05025 22.9497C0.737498 21.637 0 19.8565 0 18C0 16.1435 0.737498 14.363 2.05025 13.0503C3.36301 11.7375 5.14348 11 7 11C7.26522 11 7.51957 11.1054 7.70711 11.2929C7.89464 11.4804 8 11.7348 8 12C8 12.2652 7.89464 12.5196 7.70711 12.7071C7.51957 12.8946 7.26522 13 7 13C5.67392 13 4.40215 13.5268 3.46447 14.4645C2.52678 15.4021 2 16.6739 2 18C2 19.3261 2.52678 20.5979 3.46447 21.5355C4.40215 22.4732 5.67392 23 7 23C7.26522 23 7.51957 23.1054 7.70711 23.2929C7.89464 23.4804 8 23.7348 8 24C8 24.2652 7.89464 24.5196 7.70711 24.7071C7.51957 24.8946 7.26522 25 7 25Z" fill="#3F686C"/>
<path d="M25 25C24.7348 25 24.4804 24.8946 24.2929 24.7071C24.1054 24.5196 24 24.2652 24 24C24 23.7348 24.1054 23.4804 24.2929 23.2929C24.4804 23.1054 24.7348 23 25 23C26.3261 23 27.5979 22.4732 28.5355 21.5355C29.4732 20.5979 30 19.3261 30 18C30 16.6739 29.4732 15.4021 28.5355 14.4645C27.5979 13.5268 26.3261 13 25 13C24.7348 13 24.4804 12.8946 24.2929 12.7071C24.1054 12.5196 24 12.2652 24 12C24 11.7348 24.1054 11.4804 24.2929 11.2929C24.4804 11.1054 24.7348 11 25 11C26.8565 11 28.637 11.7375 29.9497 13.0503C31.2625 14.363 32 16.1435 32 18C32 19.8565 31.2625 21.637 29.9497 22.9497C28.637 24.2625 26.8565 25 25 25Z" fill="#3F686C"/>
<path d="M25 13C24.7348 13 24.4804 12.8946 24.2929 12.7071C24.1054 12.5196 24 12.2652 24 12C24 9.87827 23.1571 7.84344 21.6569 6.34315C20.1566 4.84285 18.1217 4 16 4C13.8783 4 11.8434 4.84285 10.3431 6.34315C8.84285 7.84344 8 9.87827 8 12C8 12.2652 7.89464 12.5196 7.70711 12.7071C7.51957 12.8946 7.26522 13 7 13C6.73478 13 6.48043 12.8946 6.29289 12.7071C6.10536 12.5196 6 12.2652 6 12C6 9.34784 7.05357 6.8043 8.92893 4.92893C10.8043 3.05357 13.3478 2 16 2C18.6522 2 21.1957 3.05357 23.0711 4.92893C24.9464 6.8043 26 9.34784 26 12C26 12.2652 25.8946 12.5196 25.7071 12.7071C25.5196 12.8946 25.2652 13 25 13Z" fill="#3F686C"/>
<path d="M8 25H7C6.73478 25 6.48043 24.8946 6.29289 24.7071C6.10536 24.5196 6 24.2652 6 24C6 23.7348 6.10536 23.4804 6.29289 23.2929C6.48043 23.1054 6.73478 23 7 23H8C8.26522 23 8.51957 23.1054 8.70711 23.2929C8.89464 23.4804 9 23.7348 9 24C9 24.2652 8.89464 24.5196 8.70711 24.7071C8.51957 24.8946 8.26522 25 8 25Z" fill="#3F686C"/>
<path d="M25 25H24C23.7348 25 23.4804 24.8946 23.2929 24.7071C23.1054 24.5196 23 24.2652 23 24C23 23.7348 23.1054 23.4804 23.2929 23.2929C23.4804 23.1054 23.7348 23 24 23H25C25.2652 23 25.5196 23.1054 25.7071 23.2929C25.8946 23.4804 26 23.7348 26 24C26 24.2652 25.8946 24.5196 25.7071 24.7071C25.5196 24.8946 25.2652 25 25 25Z" fill="#3F686C"/>
</svg>
