<svg width="20" height="21" viewBox="0 0 20 21" fill="none" xmlns="http://www.w3.org/2000/svg">
<path d="M19.8408 18.3623L14.67 13.0986C15.6425 11.7371 16.2175 10.0625 16.2175 8.25397C16.2175 3.70283 12.58 0 8.10833 0C3.6375 0 0 3.70283 0 8.25397C0 12.806 3.6375 16.5079 8.10833 16.5079C9.80333 16.5079 11.3775 15.9761 12.6808 15.0675L17.8792 20.3592L19.8408 18.3623ZM2.37833 8.25397C2.37833 5.03721 4.94917 2.4202 8.10917 2.4202C11.2692 2.4202 13.84 5.03721 13.84 8.25397C13.84 11.4707 11.2692 14.0877 8.10917 14.0877C4.94833 14.0877 2.37833 11.4707 2.37833 8.25397Z" fill="#3F686C"/>
</svg>
