<svg width="35" height="35" viewBox="0 0 35 35" fill="none" xmlns="http://www.w3.org/2000/svg">
<g clip-path="url(#clip0_131:2477)">
<path d="M23.3334 12.8333C23.9777 12.8333 24.5001 12.311 24.5001 11.6667C24.5001 11.0223 23.9777 10.5 23.3334 10.5C22.6891 10.5 22.1667 11.0223 22.1667 11.6667C22.1667 12.311 22.6891 12.8333 23.3334 12.8333Z" fill="#3F686C"/>
<path d="M15.1667 22.1666C15.1667 23.4558 14.1225 24.4999 12.8333 24.4999C11.5442 24.4999 10.5 23.4558 10.5 22.1666C10.5 20.8774 11.5442 19.8333 12.8333 19.8333C14.1225 19.8333 15.1667 20.8774 15.1667 22.1666ZM25.6667 21.7758V22.5574C25.6667 22.8386 25.4672 23.0789 25.1907 23.1303L24.038 23.3461C23.5585 23.4359 23.205 23.8198 23.1082 24.2981C23.0277 24.6959 22.925 25.0868 22.8002 25.4671C22.6485 25.9291 22.7628 26.4343 23.1315 26.7504L24.017 27.5099C24.2305 27.6931 24.283 28.0011 24.1418 28.2449L23.751 28.9216C23.611 29.1643 23.317 29.2739 23.0522 29.1806L21.9403 28.7898C21.4818 28.6288 20.986 28.7828 20.6617 29.1456C20.3945 29.4454 20.1098 29.7289 19.81 29.9973C19.4472 30.3216 19.2932 30.8163 19.4542 31.2759L19.845 32.3878C19.9383 32.6526 19.8298 32.9466 19.586 33.0866L18.9093 33.4774C18.6667 33.6174 18.3575 33.5649 18.1743 33.3526L17.4148 32.4671C17.0987 32.0984 16.5935 31.9841 16.1315 32.1358C15.7512 32.2606 15.3615 32.3633 14.9625 32.4438C14.4842 32.5406 14.1003 32.8941 14.0105 33.3736L13.7947 34.5263C13.7457 34.8004 13.5053 34.9999 13.2242 34.9999H12.4425C12.1613 34.9999 11.921 34.8004 11.8697 34.5239L11.6538 33.3713C11.564 32.8918 11.1802 32.5383 10.7018 32.4414C10.304 32.3609 9.91317 32.2583 9.53283 32.1334C9.07083 31.9818 8.56567 32.0961 8.2495 32.4648L7.49 33.3503C7.30683 33.5638 6.99883 33.6163 6.755 33.4751L6.07833 33.0843C5.83567 32.9443 5.726 32.6503 5.81933 32.3854L6.21017 31.2736C6.37117 30.8139 6.21717 30.3193 5.85433 29.9949C5.5545 29.7278 5.271 29.4431 5.00267 29.1433C4.67833 28.7804 4.18367 28.6264 3.724 28.7874L2.61333 29.1806C2.3485 29.2739 2.0545 29.1654 1.9145 28.9216L1.52367 28.2449C1.38367 28.0023 1.43617 27.6931 1.6485 27.5099L2.534 26.7504C2.90267 26.4343 3.017 25.9291 2.86533 25.4671C2.7405 25.0868 2.63783 24.6971 2.55733 24.2981C2.4605 23.8198 2.107 23.4359 1.6275 23.3461L0.474833 23.1303C0.1995 23.0789 0 22.8386 0 22.5574V21.7758C0 21.4946 0.1995 21.2543 0.476 21.2029L1.62867 20.9871C2.10817 20.8973 2.46167 20.5134 2.5585 20.0351C2.639 19.6373 2.74167 19.2464 2.8665 18.8661C3.01817 18.4041 2.90383 17.8989 2.53517 17.5828L1.64967 16.8233C1.43617 16.6401 1.38367 16.3321 1.52483 16.0883L1.91567 15.4116C2.05567 15.1689 2.34967 15.0593 2.6145 15.1526L3.72633 15.5434C4.186 15.7044 4.68067 15.5504 5.005 15.1876C5.27217 14.8878 5.55683 14.6043 5.85667 14.3359C6.2195 14.0116 6.3735 13.5169 6.2125 13.0573L5.81933 11.9466C5.726 11.6818 5.8345 11.3878 6.07833 11.2478L6.755 10.8569C6.99767 10.7169 7.30683 10.7694 7.49 10.9818L8.2495 11.8673C8.56567 12.2359 9.07083 12.3503 9.53283 12.1986C9.91317 12.0738 10.304 11.9711 10.7018 11.8906C11.1802 11.7938 11.564 11.4403 11.6538 10.9608L11.8697 9.80808C11.921 9.53275 12.1613 9.33325 12.4425 9.33325H13.2242C13.5053 9.33325 13.7457 9.53275 13.797 9.80925L14.0128 10.9619C14.1027 11.4414 14.4865 11.7949 14.9648 11.8918C15.3627 11.9723 15.7535 12.0749 16.1338 12.1998C16.5958 12.3514 17.101 12.2371 17.4172 11.8684L18.1767 10.9829C18.3598 10.7694 18.6678 10.7169 18.9117 10.8581L19.5883 11.2489C19.831 11.3889 19.9407 11.6829 19.8473 11.9478L19.4565 13.0584C19.2955 13.5181 19.4495 14.0128 19.8123 14.3371C20.1122 14.6043 20.3957 14.8889 20.664 15.1888C20.9883 15.5516 21.483 15.7056 21.9427 15.5446L23.0545 15.1538C23.3193 15.0604 23.6133 15.1689 23.7533 15.4128L24.1442 16.0894C24.2842 16.3321 24.2317 16.6413 24.0193 16.8244L23.1338 17.5839C22.7652 17.9001 22.6508 18.4053 22.8025 18.8673C22.9273 19.2476 23.03 19.6384 23.1105 20.0363C23.2073 20.5146 23.5608 20.8984 24.0403 20.9883L25.193 21.2041C25.4672 21.2543 25.6667 21.4946 25.6667 21.7758ZM19.8333 22.1666C19.8333 18.3003 16.6997 15.1666 12.8333 15.1666C8.967 15.1666 5.83333 18.3003 5.83333 22.1666C5.83333 26.0329 8.967 29.1666 12.8333 29.1666C16.6997 29.1666 19.8333 26.0329 19.8333 22.1666Z" fill="#3F686C"/>
<path d="M34.5241 10.703L33.1521 10.4452C32.7962 10.3787 32.5302 10.0963 32.4567 9.7405C32.3879 9.40917 32.3016 9.08367 32.1989 8.76633C32.0869 8.42217 32.1756 8.04767 32.4497 7.812L33.5067 6.90667C33.7202 6.7235 33.7727 6.4155 33.6316 6.17167L33.2407 5.495C33.1007 5.25233 32.8067 5.14267 32.5419 5.236L31.2259 5.69917C30.8852 5.81933 30.5154 5.7085 30.2739 5.439C30.0487 5.18817 29.8107 4.95017 29.5599 4.725C29.2904 4.4835 29.1796 4.11367 29.2997 3.773L29.7629 2.457C29.8562 2.19217 29.7477 1.89817 29.5039 1.75817L28.8272 1.36733C28.5846 1.22733 28.2754 1.27983 28.0922 1.49217L27.1857 2.54917C26.9501 2.82333 26.5756 2.912 26.2314 2.8C25.9141 2.69733 25.5886 2.611 25.2572 2.54217C24.9026 2.46867 24.6202 2.20267 24.5526 1.84683L24.2947 0.474833C24.2457 0.1995 24.0054 0 23.7242 0H22.9426C22.6614 0 22.4211 0.1995 22.3697 0.476L22.1119 1.848C22.0454 2.20383 21.7631 2.46983 21.4072 2.54333C21.0759 2.61217 20.7504 2.6985 20.4331 2.80117C20.0889 2.91317 19.7144 2.8245 19.4787 2.55033L18.5734 1.49333C18.3902 1.27983 18.0822 1.22733 17.8384 1.3685L17.1617 1.75933C16.9191 1.89933 16.8094 2.19333 16.9027 2.45817L17.3659 3.77417C17.4861 4.11483 17.3752 4.48467 17.1057 4.72617C16.8549 4.95133 16.6169 5.18933 16.3917 5.44017C16.1502 5.70967 15.7804 5.8205 15.4397 5.70033L14.1237 5.23717C13.8589 5.14383 13.5649 5.25233 13.4249 5.49617L13.0341 6.17283C12.8941 6.4155 12.9466 6.72467 13.1589 6.90783L13.2732 7.00583C14.6534 7.02917 15.8341 8.01733 16.0896 9.37883L16.1596 9.74983L16.4034 9.464C16.9389 8.841 17.6902 8.50033 18.4649 8.4595C19.5102 6.87867 21.2976 5.83333 23.3334 5.83333C26.5546 5.83333 29.1667 8.4455 29.1667 11.6667C29.1667 13.7025 28.1214 15.4898 26.5406 16.5328C26.4997 17.3075 26.1602 18.0588 25.5372 18.5932L25.2502 18.8382L25.6212 18.9082C26.9827 19.1637 27.9709 20.3443 27.9942 21.7245L28.0922 21.8388C28.2754 22.0523 28.5834 22.1048 28.8272 21.9637L29.5039 21.5728C29.7466 21.4328 29.8562 21.1388 29.7629 20.874L29.2997 19.558C29.1796 19.2173 29.2904 18.8475 29.5599 18.606C29.8107 18.3808 30.0487 18.1428 30.2739 17.892C30.5154 17.6225 30.8852 17.5117 31.2259 17.6318L32.5419 18.095C32.8067 18.1883 33.1007 18.0798 33.2407 17.836L33.6316 17.1593C33.7716 16.9167 33.7191 16.6075 33.5067 16.4243L32.4497 15.5178C32.1756 15.2822 32.0869 14.9077 32.1989 14.5635C32.3016 14.2462 32.3879 13.9207 32.4567 13.5893C32.5302 13.2347 32.7962 12.9523 33.1521 12.8847L34.5241 12.6268C34.8006 12.579 35.0001 12.3387 35.0001 12.0575V11.2758C35.0001 10.9947 34.8006 10.7543 34.5241 10.703Z" fill="#3F686C"/>
</g>
<defs>
<clipPath id="clip0_131:2477">
<rect width="35" height="35" fill="white"/>
</clipPath>
</defs>
</svg>
