<svg width="12" height="12" viewBox="0 0 12 12" fill="none" xmlns="http://www.w3.org/2000/svg">
<path d="M7.955 6.67L9.273 4.657L9.046 4.454L7.2095 6.0035C6.872 5.9345 6.5085 6.0375 6.2625 6.3125C5.8945 6.724 5.93 7.3565 6.342 7.7245C6.754 8.0925 7.386 8.057 7.754 7.645C8 7.37 8.0615 6.9975 7.955 6.67ZM6 1.347V0H8V1.347C7.2805 1.2255 6.704 1.228 6 1.347ZM10.4255 2.379L11.129 1.6755L11.836 2.3825L11.1755 3.043C10.9445 2.801 10.6935 2.5795 10.4255 2.379ZM1 4.5H5V5.5H1V4.5ZM0 6.5H4V7.5H0V6.5ZM1.5 8.5H5V9.5H1.5V8.5ZM12 7C12 9.7615 9.7615 12 7 12C5.605 12 4.35 11.4225 3.4445 10.5H5.0845C5.6535 10.8155 6.304 11 7 11C9.2055 11 11 9.2055 11 7C11 4.7945 9.2055 3 7 3C6.304 3 5.6535 3.1845 5.0845 3.5H3.4445C4.35 2.5775 5.605 2 7 2C9.7615 2 12 4.2385 12 7Z" fill="#8C51F6"/>
</svg>
