<svg width="20" height="16" viewBox="0 0 20 16" fill="none" xmlns="http://www.w3.org/2000/svg">
<path fill-rule="evenodd" clip-rule="evenodd" d="M19.6194 6.67695L16.4944 1.67695C16.0381 0.946328 15.2369 0.501953 14.375 0.501953H2.5C1.11937 0.501953 0 1.62133 0 3.00195V13.002C0 14.3826 1.11937 15.502 2.5 15.502H14.375C15.2369 15.502 16.0375 15.0576 16.4944 14.3263L19.6194 9.32633C20.1269 8.51695 20.1269 7.48758 19.6194 6.67695ZM18.5594 8.66383L15.4344 13.6651C15.205 14.0326 14.8081 14.252 14.375 14.252H2.5C1.81062 14.252 1.25 13.6907 1.25 13.002V3.00195C1.25 2.31258 1.81062 1.75195 2.5 1.75195H14.375C14.8081 1.75195 15.205 1.97195 15.4344 2.33883L18.5594 7.33883C18.8113 7.74195 18.8113 8.26195 18.5594 8.66383Z" fill="#3F686C"/>
<path fill-rule="evenodd" clip-rule="evenodd" d="M14.375 6.12695C13.3388 6.12695 12.5 6.96633 12.5 8.00195C12.5 9.03758 13.3388 9.87695 14.375 9.87695C15.41 9.87695 16.25 9.03695 16.25 8.00195C16.25 6.96633 15.41 6.12695 14.375 6.12695ZM14.375 9.25258C13.6844 9.25258 13.125 8.69258 13.125 8.00258C13.125 7.31258 13.6844 6.75258 14.375 6.75258C15.065 6.75258 15.625 7.31258 15.625 8.00258C15.625 8.69195 15.065 9.25258 14.375 9.25258Z" fill="#3F686C"/>
</svg>
