<svg width="20" height="20" viewBox="0 0 20 20" fill="none" xmlns="http://www.w3.org/2000/svg">
<path d="M10 1.66667C12.2975 1.66667 14.1667 3.53583 14.1667 5.83417C14.1667 8.13083 12.2975 10.0008 10 10.0008C7.7025 10.0008 5.83333 8.13083 5.83333 5.83417C5.83333 3.53583 7.7025 1.66667 10 1.66667ZM10 0C6.77833 0 4.16667 2.61167 4.16667 5.83417C4.16667 9.055 6.77833 11.6675 10 11.6675C13.2217 11.6675 15.8333 9.055 15.8333 5.83417C15.8333 2.61167 13.2217 0 10 0V0ZM15.3075 11.1275C14.8933 11.5425 14.4267 11.9033 13.9258 12.2125C16.3192 13.7742 17.5742 16.4483 18.0692 18.3342H1.91333C2.39 16.4258 3.62833 13.7483 6.0575 12.2025C5.555 11.8908 5.08917 11.5267 4.67583 11.1092C1.1275 13.6692 0 18.1975 0 20H20C20 18.215 18.8 13.7025 15.3075 11.1275Z" fill="#3F686C"/>
</svg>
