<svg width="24" height="24" viewBox="0 0 24 24" fill="none" xmlns="http://www.w3.org/2000/svg">
<path d="M12 23.2505C9.77497 23.2505 7.59989 22.5907 5.74984 21.3545C3.89979 20.1183 2.45785 18.3613 1.60636 16.3056C0.754875 14.25 0.532087 11.988 0.966171 9.80569C1.40025 7.6234 2.47171 5.61884 4.04505 4.0455C5.61839 2.47216 7.62295 1.4007 9.80524 0.966621C11.9875 0.532537 14.2495 0.755325 16.3052 1.60681C18.3609 2.4583 20.1179 3.90024 21.354 5.75029C22.5902 7.60034 23.25 9.77541 23.25 12.0005C23.25 14.9841 22.0647 17.8456 19.955 19.9554C17.8452 22.0652 14.9837 23.2505 12 23.2505ZM12 2.25045C10.0716 2.25045 8.18657 2.82228 6.5832 3.89363C4.97982 4.96497 3.73013 6.48771 2.99218 8.26929C2.25423 10.0509 2.06114 12.0113 2.43735 13.9026C2.81355 15.7939 3.74215 17.5312 5.10571 18.8947C6.46928 20.2583 8.20656 21.1869 10.0979 21.5631C11.9892 21.9393 13.9496 21.7462 15.7312 21.0083C17.5127 20.2703 19.0355 19.0206 20.1068 17.4173C21.1782 15.8139 21.75 13.9288 21.75 12.0005C21.75 9.41459 20.7228 6.93464 18.8943 5.10616C17.0658 3.27768 14.5859 2.25045 12 2.25045Z" fill="#3F686C"/>
<path d="M15.18 16.245L11.4675 12.5325C11.398 12.4624 11.343 12.3793 11.3057 12.2879C11.2684 12.1966 11.2494 12.0987 11.25 12V6.00001H12.75V11.6925L16.245 15.18L15.18 16.245Z" fill="#3F686C"/>
</svg>
